M48
; DRILL file {KiCad 9.0.3} date 2025-07-30T09:20:44+0300
; FORMAT={-:-/ absolute / metric / decimal}
; #@! TF.CreationDate,2025-07-30T09:20:44+03:00
; #@! TF.GenerationSoftware,Kicad,Pcbnew,9.0.3
; #@! TF.FileFunction,Plated,1,2,PTH
FMAT,2
METRIC
; #@! TA.AperFunction,Plated,PTH,ViaDrill
T1C0.300
; #@! TA.AperFunction,Plated,PTH,ComponentDrill
T2C0.500
; #@! TA.AperFunction,Plated,PTH,ComponentDrill
T3C0.890
; #@! TA.AperFunction,Plated,PTH,ComponentDrill
T4C0.950
; #@! TA.AperFunction,Plated,PTH,ComponentDrill
T5C1.000
; #@! TA.AperFunction,Plated,PTH,ComponentDrill
T6C1.020
; #@! TA.AperFunction,Plated,PTH,ComponentDrill
T7C1.200
; #@! TA.AperFunction,Plated,PTH,ComponentDrill
T8C1.630
; #@! TA.AperFunction,Plated,PTH,ComponentDrill
T9C3.200
%
G90
G05
T1
X99.78Y-61.2
X100.12Y-115.62
X101.305Y-92.5
X102.66Y-115.62
X103.312Y-111.845
X103.93Y-115.62
X104.055Y-85.345
X104.055Y-98.045
X108.0Y-123.0
X108.555Y-107.145
X111.775Y-115.25
X113.525Y-90.345
X114.275Y-115.25
X115.8Y-98.05
X116.025Y-61.095
X116.56Y-115.31
X123.5Y-95.75
X123.5Y-98.25
X124.25Y-90.25
X124.575Y-61.255
X124.75Y-68.25
X125.65Y-62.94
X125.75Y-74.75
X126.54Y-62.96
X128.0Y-72.845
X128.0Y-75.345
X128.4Y-64.69
X128.675Y-124.545
X128.675Y-125.645
X129.66Y-69.82
X130.93Y-64.87
X131.0Y-69.82
X131.77Y-88.37
X132.07Y-63.7
X133.76Y-58.274
X133.76Y-60.774
X133.98Y-63.33
X134.325Y-139.395
X135.0Y-93.25
X135.425Y-139.395
X136.525Y-139.395
X137.39Y-88.19
X137.56Y-89.4
X138.02Y-79.6
X138.52Y-90.3
X139.02Y-87.67
X139.14Y-82.92
X139.2Y-85.38
X139.2Y-86.46
X139.91Y-82.06
X140.0Y-99.5
X140.925Y-121.795
X141.03Y-83.72
X141.275Y-73.595
X141.275Y-75.595
X142.5Y-85.95
X142.5Y-88.93
X142.5Y-90.25
X143.32Y-93.91
X143.525Y-73.595
X143.57Y-94.72
X143.65Y-86.41
X143.65Y-87.33
X143.65Y-88.18
X143.67Y-91.17
X144.425Y-70.75
X144.56Y-85.81
X144.85Y-91.08
X145.01Y-95.24
X145.51Y-81.14
X145.525Y-70.595
X145.775Y-73.595
X146.1Y-94.13
X146.95Y-81.17
X147.25Y-87.75
X147.36Y-97.61
X147.42Y-79.55
X147.63Y-86.56
X147.725Y-70.595
X147.83Y-82.94
X147.83Y-91.32
X148.0Y-93.25
X148.025Y-73.595
X148.69Y-96.4
X148.75Y-91.5
X148.825Y-70.552
X149.463Y-133.515
X149.925Y-70.552
X150.275Y-73.595
X150.275Y-75.595
X150.92Y-91.03
X151.41Y-84.72
X151.45Y-88.23
X152.1Y-87.54
X152.125Y-70.5
X152.41Y-90.3
X152.64Y-74.57
X152.88Y-86.96
X153.525Y-70.095
X153.83Y-66.96
X156.614Y-62.953
X156.975Y-115.345
X157.93Y-94.73
X158.31Y-88.38
X158.31Y-89.26
X160.3Y-96.44
X160.3Y-97.71
X160.3Y-98.98
X160.32Y-76.73
X160.79Y-85.24
X160.81Y-83.98
X164.425Y-107.795
X165.25Y-97.71
X165.25Y-98.98
X166.175Y-73.095
X167.0Y-92.75
X167.42Y-86.56
X167.445Y-73.095
X167.76Y-112.212
X171.275Y-92.345
X171.581Y-95.366
X173.275Y-92.345
X173.631Y-95.366
X174.025Y-88.845
X175.065Y-68.145
X175.1Y-77.1
X176.25Y-120.0
X176.62Y-76.15
X176.69Y-74.01
X176.75Y-92.27
X176.75Y-100.25
X176.775Y-89.73
X176.775Y-91.0
X176.775Y-93.54
X176.835Y-98.0
X179.5Y-92.5
X181.025Y-62.845
X181.775Y-84.65
X181.775Y-85.92
X181.775Y-87.19
X183.775Y-62.84
X184.775Y-86.595
X186.325Y-62.795
X187.25Y-95.5
X188.8Y-92.845
X190.675Y-87.092
X193.84Y-78.65
X195.73Y-67.97
X196.66Y-84.08
X197.68Y-88.14
X197.8Y-72.65
X197.8Y-76.46
X198.0Y-117.07
X201.2Y-107.22
X202.75Y-72.65
X202.75Y-77.73
X204.75Y-67.146
X204.75Y-84.295
X204.775Y-118.245
X204.812Y-64.75
X205.765Y-61.821
X207.34Y-75.18
X210.33Y-88.545
T2
X122.2Y-114.95
X122.903Y-113.253
X122.903Y-116.647
X124.6Y-112.55
X124.6Y-117.35
X126.297Y-113.253
X126.297Y-116.647
X127.0Y-114.95
X130.825Y-100.84
X132.725Y-100.84
X195.3Y-58.16
X196.003Y-56.463
X196.003Y-59.857
X197.7Y-55.76
X197.7Y-60.56
X199.397Y-56.463
X199.397Y-59.857
X200.1Y-58.16
T3
X115.775Y-67.975
X115.775Y-70.515
X115.775Y-73.055
X115.775Y-75.595
X118.315Y-69.235
X118.315Y-71.775
X118.315Y-74.315
X118.315Y-76.855
T4
X101.775Y-57.845
X104.275Y-57.845
X106.775Y-57.845
X109.275Y-57.845
X125.525Y-83.095
X128.025Y-83.095
X130.525Y-83.095
X133.025Y-83.095
X164.27Y-58.44
X166.77Y-58.44
X169.27Y-58.44
X171.77Y-58.44
X177.95Y-58.45
X180.45Y-58.45
X182.95Y-58.45
X185.45Y-58.45
X187.95Y-58.45
X190.45Y-58.45
X217.142Y-85.095
X217.142Y-87.595
X217.142Y-90.095
T5
X126.7Y-88.845
X126.7Y-91.385
X126.7Y-93.925
X129.24Y-88.845
X129.24Y-91.385
X129.24Y-93.925
X188.5Y-69.2
X188.5Y-76.8
T6
X104.515Y-65.79
X104.515Y-68.33
X104.515Y-76.5
X104.515Y-79.04
T7
X106.707Y-133.495
X106.707Y-137.305
X147.75Y-122.5
X211.343Y-57.13
X211.343Y-62.21
X211.343Y-67.29
X211.343Y-72.37
X211.343Y-77.45
X211.343Y-97.885
X211.343Y-101.695
T8
X112.465Y-64.67
X112.465Y-80.16
T9
X124.6Y-114.95
X197.7Y-58.16
M30
