%TF.GenerationSoftware,KiCad,Pcbnew,9.0.3*%
%TF.CreationDate,2025-07-30T09:19:55+03:00*%
%TF.ProjectId,KiCad Projeleri,4b694361-6420-4507-926f-6a656c657269,rev?*%
%TF.SameCoordinates,Original*%
%TF.FileFunction,Soldermask,Top*%
%TF.FilePolarity,Negative*%
%FSLAX46Y46*%
G04 Gerber Fmt 4.6, Leading zero omitted, Abs format (unit mm)*
G04 Created by KiCad (PCBNEW 9.0.3) date 2025-07-30 09:19:55*
%MOMM*%
%LPD*%
G01*
G04 APERTURE LIST*
G04 Aperture macros list*
%AMRoundRect*
0 Rectangle with rounded corners*
0 $1 Rounding radius*
0 $2 $3 $4 $5 $6 $7 $8 $9 X,Y pos of 4 corners*
0 Add a 4 corners polygon primitive as box body*
4,1,4,$2,$3,$4,$5,$6,$7,$8,$9,$2,$3,0*
0 Add four circle primitives for the rounded corners*
1,1,$1+$1,$2,$3*
1,1,$1+$1,$4,$5*
1,1,$1+$1,$6,$7*
1,1,$1+$1,$8,$9*
0 Add four rect primitives between the rounded corners*
20,1,$1+$1,$2,$3,$4,$5,0*
20,1,$1+$1,$4,$5,$6,$7,0*
20,1,$1+$1,$6,$7,$8,$9,0*
20,1,$1+$1,$8,$9,$2,$3,0*%
G04 Aperture macros list end*
%ADD10RoundRect,0.250000X0.350000X0.450000X-0.350000X0.450000X-0.350000X-0.450000X0.350000X-0.450000X0*%
%ADD11RoundRect,0.250000X-0.475000X0.337500X-0.475000X-0.337500X0.475000X-0.337500X0.475000X0.337500X0*%
%ADD12RoundRect,0.250000X0.475000X-0.337500X0.475000X0.337500X-0.475000X0.337500X-0.475000X-0.337500X0*%
%ADD13R,1.100000X2.000000*%
%ADD14RoundRect,0.250000X0.450000X-0.800000X0.450000X0.800000X-0.450000X0.800000X-0.450000X-0.800000X0*%
%ADD15RoundRect,0.250000X0.325000X0.450000X-0.325000X0.450000X-0.325000X-0.450000X0.325000X-0.450000X0*%
%ADD16R,0.600000X1.100000*%
%ADD17RoundRect,0.225000X0.375000X-0.225000X0.375000X0.225000X-0.375000X0.225000X-0.375000X-0.225000X0*%
%ADD18RoundRect,0.250000X-0.325000X-0.450000X0.325000X-0.450000X0.325000X0.450000X-0.325000X0.450000X0*%
%ADD19RoundRect,0.250000X-1.500000X-1.000000X1.500000X-1.000000X1.500000X1.000000X-1.500000X1.000000X0*%
%ADD20RoundRect,0.250000X0.600000X0.725000X-0.600000X0.725000X-0.600000X-0.725000X0.600000X-0.725000X0*%
%ADD21O,1.700000X1.950000*%
%ADD22RoundRect,0.250000X-0.450000X0.350000X-0.450000X-0.350000X0.450000X-0.350000X0.450000X0.350000X0*%
%ADD23RoundRect,0.237500X-0.250000X-0.237500X0.250000X-0.237500X0.250000X0.237500X-0.250000X0.237500X0*%
%ADD24RoundRect,0.150000X-0.825000X-0.150000X0.825000X-0.150000X0.825000X0.150000X-0.825000X0.150000X0*%
%ADD25RoundRect,0.250000X-0.350000X-0.450000X0.350000X-0.450000X0.350000X0.450000X-0.350000X0.450000X0*%
%ADD26RoundRect,0.250000X0.450000X-0.350000X0.450000X0.350000X-0.450000X0.350000X-0.450000X-0.350000X0*%
%ADD27RoundRect,0.250000X1.550000X-0.650000X1.550000X0.650000X-1.550000X0.650000X-1.550000X-0.650000X0*%
%ADD28O,3.600000X1.800000*%
%ADD29RoundRect,0.250000X-1.550000X0.650000X-1.550000X-0.650000X1.550000X-0.650000X1.550000X0.650000X0*%
%ADD30R,5.400000X3.600000*%
%ADD31RoundRect,0.250001X-1.044999X0.872499X-1.044999X-0.872499X1.044999X-0.872499X1.044999X0.872499X0*%
%ADD32RoundRect,0.250000X-1.000000X1.500000X-1.000000X-1.500000X1.000000X-1.500000X1.000000X1.500000X0*%
%ADD33RoundRect,0.250000X0.725000X-0.600000X0.725000X0.600000X-0.725000X0.600000X-0.725000X-0.600000X0*%
%ADD34O,1.950000X1.700000*%
%ADD35RoundRect,0.250000X1.400000X1.000000X-1.400000X1.000000X-1.400000X-1.000000X1.400000X-1.000000X0*%
%ADD36O,1.600000X0.600000*%
%ADD37O,0.600000X1.600000*%
%ADD38RoundRect,0.250000X-0.337500X-0.475000X0.337500X-0.475000X0.337500X0.475000X-0.337500X0.475000X0*%
%ADD39RoundRect,0.250000X0.337500X0.475000X-0.337500X0.475000X-0.337500X-0.475000X0.337500X-0.475000X0*%
%ADD40RoundRect,0.150000X-0.150000X0.825000X-0.150000X-0.825000X0.150000X-0.825000X0.150000X0.825000X0*%
%ADD41RoundRect,0.150000X-0.850000X-0.150000X0.850000X-0.150000X0.850000X0.150000X-0.850000X0.150000X0*%
%ADD42RoundRect,0.250000X1.000000X-1.400000X1.000000X1.400000X-1.000000X1.400000X-1.000000X-1.400000X0*%
%ADD43C,0.800000*%
%ADD44C,6.400000*%
%ADD45RoundRect,0.250000X-0.400000X-0.400000X0.400000X-0.400000X0.400000X0.400000X-0.400000X0.400000X0*%
%ADD46RoundRect,0.250000X-0.750000X-0.400000X0.750000X-0.400000X0.750000X0.400000X-0.750000X0.400000X0*%
%ADD47RoundRect,0.075000X0.075000X-0.662500X0.075000X0.662500X-0.075000X0.662500X-0.075000X-0.662500X0*%
%ADD48RoundRect,0.075000X0.662500X-0.075000X0.662500X0.075000X-0.662500X0.075000X-0.662500X-0.075000X0*%
%ADD49R,2.000000X2.000000*%
%ADD50C,2.000000*%
%ADD51RoundRect,0.375000X0.375000X-0.625000X0.375000X0.625000X-0.375000X0.625000X-0.375000X-0.625000X0*%
%ADD52RoundRect,0.500000X1.400000X-0.500000X1.400000X0.500000X-1.400000X0.500000X-1.400000X-0.500000X0*%
%ADD53RoundRect,0.250001X-0.507499X-0.944999X0.507499X-0.944999X0.507499X0.944999X-0.507499X0.944999X0*%
%ADD54C,3.250000*%
%ADD55RoundRect,0.250500X-0.499500X0.499500X-0.499500X-0.499500X0.499500X-0.499500X0.499500X0.499500X0*%
%ADD56C,1.500000*%
%ADD57C,2.500000*%
%ADD58RoundRect,0.162500X-0.447500X-0.162500X0.447500X-0.162500X0.447500X0.162500X-0.447500X0.162500X0*%
%ADD59RoundRect,0.250001X-0.944999X0.507499X-0.944999X-0.507499X0.944999X-0.507499X0.944999X0.507499X0*%
%ADD60RoundRect,0.150000X0.150000X-0.825000X0.150000X0.825000X-0.150000X0.825000X-0.150000X-0.825000X0*%
%ADD61RoundRect,0.250000X-1.050000X-0.550000X1.050000X-0.550000X1.050000X0.550000X-1.050000X0.550000X0*%
%ADD62C,1.000000*%
%ADD63RoundRect,0.250000X2.050000X0.300000X-2.050000X0.300000X-2.050000X-0.300000X2.050000X-0.300000X0*%
%ADD64RoundRect,0.250002X4.449998X5.149998X-4.449998X5.149998X-4.449998X-5.149998X4.449998X-5.149998X0*%
%ADD65RoundRect,0.250000X-2.000000X-0.750000X2.000000X-0.750000X2.000000X0.750000X-2.000000X0.750000X0*%
%ADD66C,0.750000*%
%ADD67RoundRect,0.102000X-0.400000X-0.570000X0.400000X-0.570000X0.400000X0.570000X-0.400000X0.570000X0*%
%ADD68RoundRect,0.102000X-0.350000X-1.050000X0.350000X-1.050000X0.350000X1.050000X-0.350000X1.050000X0*%
%ADD69R,0.450000X1.380000*%
%ADD70R,1.650000X1.300000*%
%ADD71R,1.425000X1.550000*%
%ADD72R,1.800000X1.900000*%
%ADD73R,1.000000X1.900000*%
%ADD74C,2.400000*%
%ADD75R,1.700000X1.700000*%
%ADD76C,1.700000*%
%ADD77RoundRect,0.150000X-0.150000X0.587500X-0.150000X-0.587500X0.150000X-0.587500X0.150000X0.587500X0*%
%ADD78R,0.700000X1.600000*%
%ADD79R,1.200000X1.400000*%
%ADD80R,1.200000X2.200000*%
%ADD81R,1.600000X1.400000*%
G04 APERTURE END LIST*
D10*
%TO.C,R5*%
X148000000Y-101000000D03*
X146000000Y-101000000D03*
%TD*%
D11*
%TO.C,C24*%
X113555000Y-84887500D03*
X113555000Y-86962500D03*
%TD*%
D12*
%TO.C,C26*%
X113555000Y-99662500D03*
X113555000Y-97587500D03*
%TD*%
D13*
%TO.C,D6*%
X195730000Y-67970000D03*
X197430000Y-67970000D03*
X199130000Y-67970000D03*
X199130000Y-63170000D03*
X197430000Y-63170000D03*
X195730000Y-63170000D03*
%TD*%
D14*
%TO.C,SW3*%
X115805000Y-107145000D03*
X115805000Y-98045000D03*
X120305000Y-107145000D03*
X120305000Y-98045000D03*
%TD*%
D15*
%TO.C,D8*%
X140275000Y-117250000D03*
X138225000Y-117250000D03*
%TD*%
D16*
%TO.C,U7*%
X204815200Y-61820800D03*
X205765200Y-61820800D03*
X206715200Y-61820800D03*
X206715200Y-59320800D03*
X205765200Y-59320800D03*
X204815200Y-59320800D03*
%TD*%
D17*
%TO.C,D4*%
X133250000Y-68800000D03*
X133250000Y-65500000D03*
%TD*%
D18*
%TO.C,D10*%
X173871443Y-80160503D03*
X175921443Y-80160503D03*
%TD*%
D19*
%TO.C,C1*%
X211525000Y-130845000D03*
X218025000Y-130845000D03*
%TD*%
D20*
%TO.C,J9*%
X190450000Y-58450000D03*
D21*
X187950000Y-58450000D03*
X185450000Y-58450000D03*
X182950000Y-58450000D03*
X180450000Y-58450000D03*
X177950000Y-58450000D03*
%TD*%
D22*
%TO.C,R30*%
X132250000Y-72750000D03*
X132250000Y-74750000D03*
%TD*%
D10*
%TO.C,R6*%
X134950000Y-89845000D03*
X132950000Y-89845000D03*
%TD*%
D23*
%TO.C,F3*%
X204811700Y-64770800D03*
X206636700Y-64770800D03*
%TD*%
D24*
%TO.C,U6*%
X197800000Y-72650000D03*
X197800000Y-73920000D03*
X197800000Y-75190000D03*
X197800000Y-76460000D03*
X197800000Y-77730000D03*
X197800000Y-79000000D03*
X197800000Y-80270000D03*
X202750000Y-80270000D03*
X202750000Y-79000000D03*
X202750000Y-77730000D03*
X202750000Y-76460000D03*
X202750000Y-75190000D03*
X202750000Y-73920000D03*
X202750000Y-72650000D03*
%TD*%
D25*
%TO.C,R25*%
X157419663Y-71000000D03*
X159419663Y-71000000D03*
%TD*%
D10*
%TO.C,R27*%
X116025000Y-61095000D03*
X114025000Y-61095000D03*
%TD*%
D26*
%TO.C,R29*%
X125750000Y-74750000D03*
X125750000Y-72750000D03*
%TD*%
D19*
%TO.C,C5*%
X211525000Y-115345000D03*
X218025000Y-115345000D03*
%TD*%
D27*
%TO.C,J6*%
X211342500Y-77450000D03*
D28*
X211342500Y-72370000D03*
X211342500Y-67290000D03*
X211342500Y-62210000D03*
X211342500Y-57130000D03*
%TD*%
D22*
%TO.C,R9*%
X107000000Y-126250000D03*
X107000000Y-128250000D03*
%TD*%
D10*
%TO.C,RJ2*%
X210284800Y-86095000D03*
X208284800Y-86095000D03*
%TD*%
D25*
%TO.C,R1*%
X192925000Y-123095000D03*
X194925000Y-123095000D03*
%TD*%
D14*
%TO.C,SW2*%
X104055000Y-94445000D03*
X104055000Y-85345000D03*
X108555000Y-94445000D03*
X108555000Y-85345000D03*
%TD*%
D12*
%TO.C,C25*%
X101275000Y-86962500D03*
X101275000Y-84887500D03*
%TD*%
D29*
%TO.C,J5*%
X106707500Y-133495000D03*
D28*
X106707500Y-137305000D03*
%TD*%
D18*
%TO.C,D16*%
X186750000Y-92845000D03*
X188800000Y-92845000D03*
%TD*%
D26*
%TO.C,R20*%
X148025000Y-75595000D03*
X148025000Y-73595000D03*
%TD*%
%TO.C,R39*%
X114275000Y-117345000D03*
X114275000Y-115345000D03*
%TD*%
D30*
%TO.C,L1*%
X176175000Y-135570000D03*
X176175000Y-124570000D03*
%TD*%
D31*
%TO.C,C34*%
X154025000Y-132137500D03*
X154025000Y-138552500D03*
%TD*%
D32*
%TO.C,C3*%
X162525000Y-132595000D03*
X162525000Y-139095000D03*
%TD*%
D33*
%TO.C,J10*%
X217142500Y-90095000D03*
D34*
X217142500Y-87595000D03*
X217142500Y-85095000D03*
%TD*%
D35*
%TO.C,D2*%
X204775000Y-134245000D03*
X204775000Y-127445000D03*
%TD*%
D36*
%TO.C,U13*%
X128675000Y-124545000D03*
X128675000Y-125645000D03*
X128675000Y-126745000D03*
X128675000Y-127845000D03*
X128675000Y-128945000D03*
X128675000Y-130045000D03*
X128675000Y-131145000D03*
X128675000Y-132245000D03*
X128675000Y-133345000D03*
X128675000Y-134445000D03*
X128675000Y-135545000D03*
X128675000Y-136645000D03*
D37*
X132125000Y-139395000D03*
X133225000Y-139395000D03*
X134325000Y-139395000D03*
X135425000Y-139395000D03*
X136525000Y-139395000D03*
X137625000Y-139395000D03*
X138725000Y-139395000D03*
X139825000Y-139395000D03*
X140925000Y-139395000D03*
D36*
X144375000Y-136645000D03*
X144375000Y-135545000D03*
X144375000Y-134445000D03*
X144375000Y-133345000D03*
X144375000Y-132245000D03*
X144375000Y-131145000D03*
X144375000Y-130045000D03*
X144375000Y-128945000D03*
X144375000Y-127845000D03*
X144375000Y-126745000D03*
X144375000Y-125645000D03*
X144375000Y-124545000D03*
D37*
X140925000Y-121795000D03*
X139825000Y-121795000D03*
X138725000Y-121795000D03*
X137625000Y-121795000D03*
X136525000Y-121795000D03*
X135425000Y-121795000D03*
X134325000Y-121795000D03*
X133225000Y-121795000D03*
X132125000Y-121795000D03*
%TD*%
D24*
%TO.C,U14*%
X160300000Y-96440000D03*
X160300000Y-97710000D03*
X160300000Y-98980000D03*
X160300000Y-100250000D03*
X165250000Y-100250000D03*
X165250000Y-98980000D03*
X165250000Y-97710000D03*
X165250000Y-96440000D03*
%TD*%
D38*
%TO.C,C17*%
X148925000Y-109750000D03*
X151000000Y-109750000D03*
%TD*%
D18*
%TO.C,D5*%
X136420000Y-95845000D03*
X138470000Y-95845000D03*
%TD*%
D25*
%TO.C,R24*%
X157419663Y-68589111D03*
X159419663Y-68589111D03*
%TD*%
D20*
%TO.C,J3*%
X133025000Y-83095000D03*
D21*
X130525000Y-83095000D03*
X128025000Y-83095000D03*
X125525000Y-83095000D03*
%TD*%
D25*
%TO.C,R2*%
X202275000Y-123095000D03*
X204275000Y-123095000D03*
%TD*%
D18*
%TO.C,D15*%
X182628557Y-97029497D03*
X184678557Y-97029497D03*
%TD*%
D38*
%TO.C,C13*%
X153962500Y-90000000D03*
X156037500Y-90000000D03*
%TD*%
%TO.C,C30*%
X128025000Y-75345000D03*
X130100000Y-75345000D03*
%TD*%
D25*
%TO.C,R4*%
X194175000Y-106595000D03*
X196175000Y-106595000D03*
%TD*%
D39*
%TO.C,C23*%
X165537500Y-81000000D03*
X163462500Y-81000000D03*
%TD*%
D40*
%TO.C,U11*%
X130930000Y-64870000D03*
X129660000Y-64870000D03*
X128390000Y-64870000D03*
X127120000Y-64870000D03*
X127120000Y-69820000D03*
X128390000Y-69820000D03*
X129660000Y-69820000D03*
X130930000Y-69820000D03*
%TD*%
D41*
%TO.C,U15*%
X176775000Y-84650000D03*
X176775000Y-85920000D03*
X176775000Y-87190000D03*
X176775000Y-88460000D03*
X176775000Y-89730000D03*
X176775000Y-91000000D03*
X176775000Y-92270000D03*
X176775000Y-93540000D03*
X181775000Y-93540000D03*
X181775000Y-92270000D03*
X181775000Y-91000000D03*
X181775000Y-89730000D03*
X181775000Y-88460000D03*
X181775000Y-87190000D03*
X181775000Y-85920000D03*
X181775000Y-84650000D03*
%TD*%
D42*
%TO.C,D1*%
X196625000Y-99345000D03*
X203425000Y-99345000D03*
%TD*%
D26*
%TO.C,R37*%
X116525000Y-117345000D03*
X116525000Y-115345000D03*
%TD*%
D25*
%TO.C,R28*%
X128062500Y-72845000D03*
X130062500Y-72845000D03*
%TD*%
D40*
%TO.C,U5*%
X103930000Y-115620000D03*
X102660000Y-115620000D03*
X101390000Y-115620000D03*
X100120000Y-115620000D03*
X100120000Y-120570000D03*
X101390000Y-120570000D03*
X102660000Y-120570000D03*
X103930000Y-120570000D03*
%TD*%
D20*
%TO.C,J8*%
X109275000Y-57845000D03*
D21*
X106775000Y-57845000D03*
X104275000Y-57845000D03*
X101775000Y-57845000D03*
%TD*%
D22*
%TO.C,R34*%
X186275000Y-62845000D03*
X186275000Y-64845000D03*
%TD*%
D39*
%TO.C,C2*%
X208587500Y-123095000D03*
X206512500Y-123095000D03*
%TD*%
D25*
%TO.C,R3*%
X190175000Y-106595000D03*
X192175000Y-106595000D03*
%TD*%
D14*
%TO.C,SW4*%
X104055000Y-107145000D03*
X104055000Y-98045000D03*
X108555000Y-107145000D03*
X108555000Y-98045000D03*
%TD*%
D43*
%TO.C,REF\u002A\u002A*%
X195300000Y-58160000D03*
X196002944Y-56462944D03*
X196002944Y-59857056D03*
X197700000Y-55760000D03*
D44*
X197700000Y-58160000D03*
D43*
X197700000Y-60560000D03*
X199397056Y-56462944D03*
X199397056Y-59857056D03*
X200100000Y-58160000D03*
%TD*%
D12*
%TO.C,C10*%
X167760000Y-114287500D03*
X167760000Y-112212500D03*
%TD*%
D45*
%TO.C,RV1*%
X204684800Y-84295000D03*
D46*
X203534800Y-89795000D03*
D45*
X202384800Y-84295000D03*
%TD*%
D25*
%TO.C,R26*%
X118025000Y-61095000D03*
X120025000Y-61095000D03*
%TD*%
D18*
%TO.C,D14*%
X176834654Y-97992303D03*
X178884654Y-97992303D03*
%TD*%
D26*
%TO.C,R38*%
X111775000Y-117345000D03*
X111775000Y-115345000D03*
%TD*%
D47*
%TO.C,U1*%
X142275000Y-92757500D03*
X142775000Y-92757500D03*
X143275000Y-92757500D03*
X143775000Y-92757500D03*
X144275000Y-92757500D03*
X144775000Y-92757500D03*
X145275000Y-92757500D03*
X145775000Y-92757500D03*
X146275000Y-92757500D03*
X146775000Y-92757500D03*
X147275000Y-92757500D03*
X147775000Y-92757500D03*
D48*
X149187500Y-91345000D03*
X149187500Y-90845000D03*
X149187500Y-90345000D03*
X149187500Y-89845000D03*
X149187500Y-89345000D03*
X149187500Y-88845000D03*
X149187500Y-88345000D03*
X149187500Y-87845000D03*
X149187500Y-87345000D03*
X149187500Y-86845000D03*
X149187500Y-86345000D03*
X149187500Y-85845000D03*
D47*
X147775000Y-84432500D03*
X147275000Y-84432500D03*
X146775000Y-84432500D03*
X146275000Y-84432500D03*
X145775000Y-84432500D03*
X145275000Y-84432500D03*
X144775000Y-84432500D03*
X144275000Y-84432500D03*
X143775000Y-84432500D03*
X143275000Y-84432500D03*
X142775000Y-84432500D03*
X142275000Y-84432500D03*
D48*
X140862500Y-85845000D03*
X140862500Y-86345000D03*
X140862500Y-86845000D03*
X140862500Y-87345000D03*
X140862500Y-87845000D03*
X140862500Y-88345000D03*
X140862500Y-88845000D03*
X140862500Y-89345000D03*
X140862500Y-89845000D03*
X140862500Y-90345000D03*
X140862500Y-90845000D03*
X140862500Y-91345000D03*
%TD*%
D14*
%TO.C,SW1*%
X115805000Y-94445000D03*
X115805000Y-85345000D03*
X120305000Y-94445000D03*
X120305000Y-85345000D03*
%TD*%
D25*
%TO.C,R36*%
X134000000Y-117250000D03*
X136000000Y-117250000D03*
%TD*%
D49*
%TO.C,BZ1*%
X188500000Y-76800000D03*
D50*
X188500000Y-69200000D03*
%TD*%
D51*
%TO.C,U3*%
X156975000Y-115345000D03*
X159275000Y-115345000D03*
D52*
X159275000Y-109045000D03*
D51*
X161575000Y-115345000D03*
%TD*%
D39*
%TO.C,C18*%
X144750000Y-109750000D03*
X142675000Y-109750000D03*
%TD*%
D53*
%TO.C,C28*%
X156613750Y-62952999D03*
X159868750Y-62952999D03*
%TD*%
D22*
%TO.C,R46*%
X174025000Y-86845000D03*
X174025000Y-88845000D03*
%TD*%
D11*
%TO.C,C11*%
X164425000Y-107795000D03*
X164425000Y-109870000D03*
%TD*%
D26*
%TO.C,R21*%
X150275000Y-75595000D03*
X150275000Y-73595000D03*
%TD*%
D22*
%TO.C,R32*%
X181025000Y-62845000D03*
X181025000Y-64845000D03*
%TD*%
D18*
%TO.C,D11*%
X169750000Y-84345000D03*
X171800000Y-84345000D03*
%TD*%
D38*
%TO.C,C14*%
X153962500Y-93010000D03*
X156037500Y-93010000D03*
%TD*%
D12*
%TO.C,C20*%
X128000000Y-104750000D03*
X128000000Y-102675000D03*
%TD*%
D27*
%TO.C,J1*%
X211342500Y-101695000D03*
D28*
X211342500Y-97885000D03*
%TD*%
D25*
%TO.C,R40*%
X157470000Y-129240000D03*
X159470000Y-129240000D03*
%TD*%
D26*
%TO.C,R17*%
X141275000Y-75595000D03*
X141275000Y-73595000D03*
%TD*%
D54*
%TO.C,J7*%
X109415000Y-66700000D03*
X109415000Y-78130000D03*
D55*
X115775000Y-67975000D03*
D56*
X118315000Y-69235000D03*
X115775000Y-70515000D03*
X118315000Y-71775000D03*
X115775000Y-73055000D03*
X118315000Y-74315000D03*
X115775000Y-75595000D03*
X118315000Y-76855000D03*
X104515000Y-65790000D03*
X104515000Y-68330000D03*
X104515000Y-76500000D03*
X104515000Y-79040000D03*
D57*
X112465000Y-64670000D03*
X112465000Y-80160000D03*
%TD*%
D30*
%TO.C,L2*%
X176250000Y-120000000D03*
X176250000Y-109000000D03*
%TD*%
D18*
%TO.C,D19*%
X179665346Y-79197697D03*
X181715346Y-79197697D03*
%TD*%
D12*
%TO.C,C38*%
X114275000Y-113132500D03*
X114275000Y-111057500D03*
%TD*%
D38*
%TO.C,C16*%
X153962500Y-99030000D03*
X156037500Y-99030000D03*
%TD*%
D58*
%TO.C,Q1*%
X147630000Y-128050000D03*
X147630000Y-129950000D03*
X150250000Y-129000000D03*
%TD*%
D12*
%TO.C,C9*%
X164750000Y-114287500D03*
X164750000Y-112212500D03*
%TD*%
D25*
%TO.C,R22*%
X157419663Y-66133666D03*
X159419663Y-66133666D03*
%TD*%
D59*
%TO.C,C21*%
X108000000Y-119745000D03*
X108000000Y-123000000D03*
%TD*%
D12*
%TO.C,C27*%
X101275000Y-99662500D03*
X101275000Y-97587500D03*
%TD*%
D26*
%TO.C,R15*%
X113525000Y-106345000D03*
X113525000Y-104345000D03*
%TD*%
D10*
%TO.C,R35*%
X136025000Y-114250000D03*
X134025000Y-114250000D03*
%TD*%
D38*
%TO.C,C22*%
X101237500Y-111845000D03*
X103312500Y-111845000D03*
%TD*%
D12*
%TO.C,C19*%
X135500000Y-104750000D03*
X135500000Y-102675000D03*
%TD*%
D10*
%TO.C,R10*%
X102775000Y-127595000D03*
X100775000Y-127595000D03*
%TD*%
D15*
%TO.C,D7*%
X140300000Y-114250000D03*
X138250000Y-114250000D03*
%TD*%
D18*
%TO.C,D18*%
X184918635Y-81824342D03*
X186968635Y-81824342D03*
%TD*%
D60*
%TO.C,U12*%
X166175000Y-73095000D03*
X167445000Y-73095000D03*
X168715000Y-73095000D03*
X169985000Y-73095000D03*
X171255000Y-73095000D03*
X172525000Y-73095000D03*
X173795000Y-73095000D03*
X175065000Y-73095000D03*
X175065000Y-68145000D03*
X173795000Y-68145000D03*
X172525000Y-68145000D03*
X171255000Y-68145000D03*
X169985000Y-68145000D03*
X168715000Y-68145000D03*
X167445000Y-68145000D03*
X166175000Y-68145000D03*
%TD*%
D26*
%TO.C,R18*%
X143525000Y-75595000D03*
X143525000Y-73595000D03*
%TD*%
%TO.C,R47*%
X194780000Y-87920000D03*
X194780000Y-85920000D03*
%TD*%
D39*
%TO.C,C6*%
X203275000Y-107095000D03*
X201200000Y-107095000D03*
%TD*%
D25*
%TO.C,R23*%
X157419663Y-73500000D03*
X159419663Y-73500000D03*
%TD*%
D23*
%TO.C,F2*%
X204811700Y-67145800D03*
X206636700Y-67145800D03*
%TD*%
D61*
%TO.C,C40*%
X172975000Y-102900000D03*
X176575000Y-102900000D03*
%TD*%
D32*
%TO.C,C7*%
X156500000Y-119345000D03*
X156500000Y-125845000D03*
%TD*%
D26*
%TO.C,R19*%
X145775000Y-75595000D03*
X145775000Y-73595000D03*
%TD*%
D12*
%TO.C,C32*%
X167525000Y-125920000D03*
X167525000Y-123845000D03*
%TD*%
D62*
%TO.C,Y2*%
X130825000Y-100840000D03*
X132725000Y-100840000D03*
%TD*%
D63*
%TO.C,U4*%
X198000000Y-134470000D03*
X198000000Y-132770000D03*
X198000000Y-131070000D03*
D64*
X188850000Y-131070000D03*
D63*
X198000000Y-129370000D03*
X198000000Y-127670000D03*
%TD*%
D38*
%TO.C,C15*%
X153962500Y-96020000D03*
X156037500Y-96020000D03*
%TD*%
D65*
%TO.C,Y1*%
X142525000Y-105095000D03*
X151025000Y-105095000D03*
%TD*%
D11*
%TO.C,C8*%
X147525000Y-117270000D03*
X147525000Y-119345000D03*
%TD*%
D25*
%TO.C,R7*%
X132950000Y-93095000D03*
X134950000Y-93095000D03*
%TD*%
D12*
%TO.C,C37*%
X111775000Y-113132500D03*
X111775000Y-111057500D03*
%TD*%
D11*
%TO.C,C33*%
X149462500Y-133515000D03*
X149462500Y-135590000D03*
%TD*%
D18*
%TO.C,D17*%
X188624732Y-87092148D03*
X190674732Y-87092148D03*
%TD*%
D25*
%TO.C,R41*%
X147750000Y-138500000D03*
X149750000Y-138500000D03*
%TD*%
D18*
%TO.C,D13*%
X171581365Y-95365658D03*
X173631365Y-95365658D03*
%TD*%
D38*
%TO.C,C29*%
X157183750Y-59952999D03*
X159258750Y-59952999D03*
%TD*%
D66*
%TO.C,J12*%
X113110000Y-136850000D03*
X121610000Y-136850000D03*
D67*
X118360000Y-124620000D03*
X115820000Y-124620000D03*
X113280000Y-124620000D03*
D68*
X111610000Y-126100000D03*
X111610000Y-138100000D03*
D67*
X119630000Y-124620000D03*
D68*
X124610000Y-126100000D03*
X124610000Y-138100000D03*
D67*
X117090000Y-124620000D03*
X114550000Y-124620000D03*
%TD*%
D43*
%TO.C,REF\u002A\u002A*%
X122200000Y-114950000D03*
X122902944Y-113252944D03*
X122902944Y-116647056D03*
X124600000Y-112550000D03*
D44*
X124600000Y-114950000D03*
D43*
X124600000Y-117350000D03*
X126297056Y-113252944D03*
X126297056Y-116647056D03*
X127000000Y-114950000D03*
%TD*%
D22*
%TO.C,R31*%
X124750000Y-66250000D03*
X124750000Y-68250000D03*
%TD*%
D69*
%TO.C,J2*%
X127175000Y-61255000D03*
X126525000Y-61255000D03*
X125875000Y-61255000D03*
X125225000Y-61255000D03*
X124575000Y-61255000D03*
D70*
X129250000Y-58595000D03*
D71*
X128362500Y-61170000D03*
D72*
X127025000Y-58595000D03*
D73*
X124325000Y-58595000D03*
D71*
X123387500Y-61170000D03*
D70*
X122500000Y-58595000D03*
%TD*%
D63*
%TO.C,U2*%
X198000000Y-118770000D03*
X198000000Y-117070000D03*
X198000000Y-115370000D03*
D64*
X188850000Y-115370000D03*
D63*
X198000000Y-113670000D03*
X198000000Y-111970000D03*
%TD*%
D74*
%TO.C,TP1*%
X147750000Y-122500000D03*
%TD*%
D35*
%TO.C,D3*%
X204775000Y-118245000D03*
X204775000Y-111445000D03*
%TD*%
D75*
%TO.C,J4*%
X129240000Y-93925000D03*
D76*
X126700000Y-93925000D03*
X129240000Y-91385000D03*
X126700000Y-91385000D03*
X129240000Y-88845000D03*
X126700000Y-88845000D03*
%TD*%
D10*
%TO.C,R8*%
X142362500Y-95845000D03*
X140362500Y-95845000D03*
%TD*%
D26*
%TO.C,R16*%
X101305000Y-106345000D03*
X101305000Y-104345000D03*
%TD*%
D18*
%TO.C,D12*%
X168875268Y-90152852D03*
X170925268Y-90152852D03*
%TD*%
D25*
%TO.C,R42*%
X196660000Y-84080000D03*
X198660000Y-84080000D03*
%TD*%
D10*
%TO.C,R44*%
X173275000Y-92345000D03*
X171275000Y-92345000D03*
%TD*%
D20*
%TO.C,J11*%
X171770000Y-58440000D03*
D21*
X169270000Y-58440000D03*
X166770000Y-58440000D03*
X164270000Y-58440000D03*
%TD*%
D16*
%TO.C,U10*%
X134709800Y-58274200D03*
X133759800Y-58274200D03*
X132809800Y-58274200D03*
X132809800Y-60774200D03*
X133759800Y-60774200D03*
X134709800Y-60774200D03*
%TD*%
D22*
%TO.C,R13*%
X113525000Y-90345000D03*
X113525000Y-92345000D03*
%TD*%
D24*
%TO.C,U8*%
X155837500Y-81440000D03*
X155837500Y-82710000D03*
X155837500Y-83980000D03*
X155837500Y-85250000D03*
X160787500Y-85250000D03*
X160787500Y-83980000D03*
X160787500Y-82710000D03*
X160787500Y-81440000D03*
%TD*%
D61*
%TO.C,C39*%
X181475000Y-102900000D03*
X185075000Y-102900000D03*
%TD*%
D26*
%TO.C,R14*%
X101305000Y-92345000D03*
X101305000Y-90345000D03*
%TD*%
D22*
%TO.C,R33*%
X183775000Y-62845000D03*
X183775000Y-64845000D03*
%TD*%
D23*
%TO.C,F1*%
X204811700Y-69500000D03*
X206636700Y-69500000D03*
%TD*%
D38*
%TO.C,C36*%
X116700000Y-112595000D03*
X118775000Y-112595000D03*
%TD*%
D10*
%TO.C,R11*%
X165500000Y-85500000D03*
X163500000Y-85500000D03*
%TD*%
%TO.C,R12*%
X165500000Y-83250000D03*
X163500000Y-83250000D03*
%TD*%
D38*
%TO.C,C4*%
X163450000Y-128845000D03*
X165525000Y-128845000D03*
%TD*%
D77*
%TO.C,Q2*%
X198630000Y-86265000D03*
X196730000Y-86265000D03*
X197680000Y-88140000D03*
%TD*%
D22*
%TO.C,R43*%
X184775000Y-84595000D03*
X184775000Y-86595000D03*
%TD*%
D12*
%TO.C,C35*%
X119025000Y-117382500D03*
X119025000Y-115307500D03*
%TD*%
D25*
%TO.C,RJ1*%
X208284800Y-88545000D03*
X210284800Y-88545000D03*
%TD*%
D11*
%TO.C,C12*%
X152025000Y-113557500D03*
X152025000Y-115632500D03*
%TD*%
D62*
%TO.C,U9*%
X142525000Y-60095000D03*
X150525000Y-60095000D03*
D78*
X143325000Y-70595000D03*
X144425000Y-70595000D03*
X145525000Y-70595000D03*
X146625000Y-70595000D03*
X147725000Y-70595000D03*
X148825000Y-70552200D03*
X149925000Y-70552200D03*
X151025000Y-70552200D03*
X152125000Y-70552200D03*
D79*
X153525000Y-70095000D03*
D80*
X137625000Y-60495000D03*
D81*
X138725000Y-70095000D03*
D80*
X153525000Y-60495000D03*
%TD*%
D38*
%TO.C,C31*%
X128025000Y-77845000D03*
X130100000Y-77845000D03*
%TD*%
M02*
