%TF.GenerationSoftware,KiCad,Pcbnew,9.0.3*%
%TF.CreationDate,2025-07-30T09:19:55+03:00*%
%TF.ProjectId,KiCad Projeleri,4b694361-6420-4507-926f-6a656c657269,rev?*%
%TF.SameCoordinates,Original*%
%TF.FileFunction,Legend,Bot*%
%TF.FilePolarity,Positive*%
%FSLAX46Y46*%
G04 Gerber Fmt 4.6, Leading zero omitted, Abs format (unit mm)*
G04 Created by KiCad (PCBNEW 9.0.3) date 2025-07-30 09:19:55*
%MOMM*%
%LPD*%
G01*
G04 APERTURE LIST*
%ADD10C,0.187500*%
%ADD11C,0.300000*%
%ADD12C,0.125000*%
%ADD13C,0.000000*%
G04 APERTURE END LIST*
D10*
X218458549Y-62552869D02*
X218458549Y-61552869D01*
X218458549Y-61552869D02*
X218125216Y-62267154D01*
X218125216Y-62267154D02*
X217791883Y-61552869D01*
X217791883Y-61552869D02*
X217791883Y-62552869D01*
X217125216Y-61552869D02*
X216934740Y-61552869D01*
X216934740Y-61552869D02*
X216839502Y-61600488D01*
X216839502Y-61600488D02*
X216744264Y-61695726D01*
X216744264Y-61695726D02*
X216696645Y-61886202D01*
X216696645Y-61886202D02*
X216696645Y-62219535D01*
X216696645Y-62219535D02*
X216744264Y-62410011D01*
X216744264Y-62410011D02*
X216839502Y-62505250D01*
X216839502Y-62505250D02*
X216934740Y-62552869D01*
X216934740Y-62552869D02*
X217125216Y-62552869D01*
X217125216Y-62552869D02*
X217220454Y-62505250D01*
X217220454Y-62505250D02*
X217315692Y-62410011D01*
X217315692Y-62410011D02*
X217363311Y-62219535D01*
X217363311Y-62219535D02*
X217363311Y-61886202D01*
X217363311Y-61886202D02*
X217315692Y-61695726D01*
X217315692Y-61695726D02*
X217220454Y-61600488D01*
X217220454Y-61600488D02*
X217125216Y-61552869D01*
X216315692Y-62505250D02*
X216172835Y-62552869D01*
X216172835Y-62552869D02*
X215934740Y-62552869D01*
X215934740Y-62552869D02*
X215839502Y-62505250D01*
X215839502Y-62505250D02*
X215791883Y-62457630D01*
X215791883Y-62457630D02*
X215744264Y-62362392D01*
X215744264Y-62362392D02*
X215744264Y-62267154D01*
X215744264Y-62267154D02*
X215791883Y-62171916D01*
X215791883Y-62171916D02*
X215839502Y-62124297D01*
X215839502Y-62124297D02*
X215934740Y-62076678D01*
X215934740Y-62076678D02*
X216125216Y-62029059D01*
X216125216Y-62029059D02*
X216220454Y-61981440D01*
X216220454Y-61981440D02*
X216268073Y-61933821D01*
X216268073Y-61933821D02*
X216315692Y-61838583D01*
X216315692Y-61838583D02*
X216315692Y-61743345D01*
X216315692Y-61743345D02*
X216268073Y-61648107D01*
X216268073Y-61648107D02*
X216220454Y-61600488D01*
X216220454Y-61600488D02*
X216125216Y-61552869D01*
X216125216Y-61552869D02*
X215887121Y-61552869D01*
X215887121Y-61552869D02*
X215744264Y-61600488D01*
X215315692Y-62552869D02*
X215315692Y-61552869D01*
D11*
X103171203Y-134027971D02*
X103242631Y-134099400D01*
X103242631Y-134099400D02*
X103456917Y-134170828D01*
X103456917Y-134170828D02*
X103599774Y-134170828D01*
X103599774Y-134170828D02*
X103814060Y-134099400D01*
X103814060Y-134099400D02*
X103956917Y-133956542D01*
X103956917Y-133956542D02*
X104028346Y-133813685D01*
X104028346Y-133813685D02*
X104099774Y-133527971D01*
X104099774Y-133527971D02*
X104099774Y-133313685D01*
X104099774Y-133313685D02*
X104028346Y-133027971D01*
X104028346Y-133027971D02*
X103956917Y-132885114D01*
X103956917Y-132885114D02*
X103814060Y-132742257D01*
X103814060Y-132742257D02*
X103599774Y-132670828D01*
X103599774Y-132670828D02*
X103456917Y-132670828D01*
X103456917Y-132670828D02*
X103242631Y-132742257D01*
X103242631Y-132742257D02*
X103171203Y-132813685D01*
X102599774Y-133742257D02*
X101885489Y-133742257D01*
X102742631Y-134170828D02*
X102242631Y-132670828D01*
X102242631Y-132670828D02*
X101742631Y-134170828D01*
X101242632Y-134170828D02*
X101242632Y-132670828D01*
X101242632Y-132670828D02*
X100385489Y-134170828D01*
X100385489Y-134170828D02*
X100385489Y-132670828D01*
X98956917Y-134170828D02*
X99671203Y-134170828D01*
X99671203Y-134170828D02*
X99671203Y-132670828D01*
D12*
X214658240Y-89633690D02*
X214734430Y-89595595D01*
X214734430Y-89595595D02*
X214848716Y-89595595D01*
X214848716Y-89595595D02*
X214963002Y-89633690D01*
X214963002Y-89633690D02*
X215039192Y-89709880D01*
X215039192Y-89709880D02*
X215077287Y-89786071D01*
X215077287Y-89786071D02*
X215115383Y-89938452D01*
X215115383Y-89938452D02*
X215115383Y-90052738D01*
X215115383Y-90052738D02*
X215077287Y-90205119D01*
X215077287Y-90205119D02*
X215039192Y-90281309D01*
X215039192Y-90281309D02*
X214963002Y-90357500D01*
X214963002Y-90357500D02*
X214848716Y-90395595D01*
X214848716Y-90395595D02*
X214772525Y-90395595D01*
X214772525Y-90395595D02*
X214658240Y-90357500D01*
X214658240Y-90357500D02*
X214620144Y-90319404D01*
X214620144Y-90319404D02*
X214620144Y-90052738D01*
X214620144Y-90052738D02*
X214772525Y-90052738D01*
X214277287Y-90395595D02*
X214277287Y-89595595D01*
X214277287Y-89595595D02*
X213820144Y-90395595D01*
X213820144Y-90395595D02*
X213820144Y-89595595D01*
X213439192Y-90395595D02*
X213439192Y-89595595D01*
X213439192Y-89595595D02*
X213248716Y-89595595D01*
X213248716Y-89595595D02*
X213134430Y-89633690D01*
X213134430Y-89633690D02*
X213058240Y-89709880D01*
X213058240Y-89709880D02*
X213020145Y-89786071D01*
X213020145Y-89786071D02*
X212982049Y-89938452D01*
X212982049Y-89938452D02*
X212982049Y-90052738D01*
X212982049Y-90052738D02*
X213020145Y-90205119D01*
X213020145Y-90205119D02*
X213058240Y-90281309D01*
X213058240Y-90281309D02*
X213134430Y-90357500D01*
X213134430Y-90357500D02*
X213248716Y-90395595D01*
X213248716Y-90395595D02*
X213439192Y-90395595D01*
X215420145Y-87767023D02*
X215039192Y-87767023D01*
X215496335Y-87995595D02*
X215229668Y-87195595D01*
X215229668Y-87195595D02*
X214963002Y-87995595D01*
X214696335Y-87995595D02*
X214696335Y-87195595D01*
X214696335Y-87195595D02*
X214505859Y-87195595D01*
X214505859Y-87195595D02*
X214391573Y-87233690D01*
X214391573Y-87233690D02*
X214315383Y-87309880D01*
X214315383Y-87309880D02*
X214277288Y-87386071D01*
X214277288Y-87386071D02*
X214239192Y-87538452D01*
X214239192Y-87538452D02*
X214239192Y-87652738D01*
X214239192Y-87652738D02*
X214277288Y-87805119D01*
X214277288Y-87805119D02*
X214315383Y-87881309D01*
X214315383Y-87881309D02*
X214391573Y-87957500D01*
X214391573Y-87957500D02*
X214505859Y-87995595D01*
X214505859Y-87995595D02*
X214696335Y-87995595D01*
X213439192Y-87919404D02*
X213477288Y-87957500D01*
X213477288Y-87957500D02*
X213591573Y-87995595D01*
X213591573Y-87995595D02*
X213667764Y-87995595D01*
X213667764Y-87995595D02*
X213782050Y-87957500D01*
X213782050Y-87957500D02*
X213858240Y-87881309D01*
X213858240Y-87881309D02*
X213896335Y-87805119D01*
X213896335Y-87805119D02*
X213934431Y-87652738D01*
X213934431Y-87652738D02*
X213934431Y-87538452D01*
X213934431Y-87538452D02*
X213896335Y-87386071D01*
X213896335Y-87386071D02*
X213858240Y-87309880D01*
X213858240Y-87309880D02*
X213782050Y-87233690D01*
X213782050Y-87233690D02*
X213667764Y-87195595D01*
X213667764Y-87195595D02*
X213591573Y-87195595D01*
X213591573Y-87195595D02*
X213477288Y-87233690D01*
X213477288Y-87233690D02*
X213439192Y-87271785D01*
X212677288Y-87995595D02*
X213134431Y-87995595D01*
X212905859Y-87995595D02*
X212905859Y-87195595D01*
X212905859Y-87195595D02*
X212982050Y-87309880D01*
X212982050Y-87309880D02*
X213058240Y-87386071D01*
X213058240Y-87386071D02*
X213134431Y-87424166D01*
D10*
X218661406Y-102867869D02*
X218328073Y-103867869D01*
X218328073Y-103867869D02*
X217994740Y-102867869D01*
X217661406Y-103867869D02*
X217661406Y-102867869D01*
X217185216Y-103867869D02*
X217185216Y-102867869D01*
X217185216Y-102867869D02*
X216613788Y-103867869D01*
X216613788Y-103867869D02*
X216613788Y-102867869D01*
X215851883Y-104248821D02*
X215899502Y-104201202D01*
X215899502Y-104201202D02*
X215994740Y-104058345D01*
X215994740Y-104058345D02*
X216042359Y-103963107D01*
X216042359Y-103963107D02*
X216089978Y-103820250D01*
X216089978Y-103820250D02*
X216137597Y-103582154D01*
X216137597Y-103582154D02*
X216137597Y-103391678D01*
X216137597Y-103391678D02*
X216089978Y-103153583D01*
X216089978Y-103153583D02*
X216042359Y-103010726D01*
X216042359Y-103010726D02*
X215994740Y-102915488D01*
X215994740Y-102915488D02*
X215899502Y-102772630D01*
X215899502Y-102772630D02*
X215851883Y-102725011D01*
X215042359Y-102867869D02*
X215232835Y-102867869D01*
X215232835Y-102867869D02*
X215328073Y-102915488D01*
X215328073Y-102915488D02*
X215375692Y-102963107D01*
X215375692Y-102963107D02*
X215470930Y-103105964D01*
X215470930Y-103105964D02*
X215518549Y-103296440D01*
X215518549Y-103296440D02*
X215518549Y-103677392D01*
X215518549Y-103677392D02*
X215470930Y-103772630D01*
X215470930Y-103772630D02*
X215423311Y-103820250D01*
X215423311Y-103820250D02*
X215328073Y-103867869D01*
X215328073Y-103867869D02*
X215137597Y-103867869D01*
X215137597Y-103867869D02*
X215042359Y-103820250D01*
X215042359Y-103820250D02*
X214994740Y-103772630D01*
X214994740Y-103772630D02*
X214947121Y-103677392D01*
X214947121Y-103677392D02*
X214947121Y-103439297D01*
X214947121Y-103439297D02*
X214994740Y-103344059D01*
X214994740Y-103344059D02*
X215042359Y-103296440D01*
X215042359Y-103296440D02*
X215137597Y-103248821D01*
X215137597Y-103248821D02*
X215328073Y-103248821D01*
X215328073Y-103248821D02*
X215423311Y-103296440D01*
X215423311Y-103296440D02*
X215470930Y-103344059D01*
X215470930Y-103344059D02*
X215518549Y-103439297D01*
X214518549Y-103772630D02*
X214470930Y-103820250D01*
X214470930Y-103820250D02*
X214518549Y-103867869D01*
X214518549Y-103867869D02*
X214566168Y-103820250D01*
X214566168Y-103820250D02*
X214518549Y-103772630D01*
X214518549Y-103772630D02*
X214518549Y-103867869D01*
X214089978Y-102963107D02*
X214042359Y-102915488D01*
X214042359Y-102915488D02*
X213947121Y-102867869D01*
X213947121Y-102867869D02*
X213709026Y-102867869D01*
X213709026Y-102867869D02*
X213613788Y-102915488D01*
X213613788Y-102915488D02*
X213566169Y-102963107D01*
X213566169Y-102963107D02*
X213518550Y-103058345D01*
X213518550Y-103058345D02*
X213518550Y-103153583D01*
X213518550Y-103153583D02*
X213566169Y-103296440D01*
X213566169Y-103296440D02*
X214137597Y-103867869D01*
X214137597Y-103867869D02*
X213518550Y-103867869D01*
X212613788Y-102867869D02*
X213089978Y-102867869D01*
X213089978Y-102867869D02*
X213137597Y-103344059D01*
X213137597Y-103344059D02*
X213089978Y-103296440D01*
X213089978Y-103296440D02*
X212994740Y-103248821D01*
X212994740Y-103248821D02*
X212756645Y-103248821D01*
X212756645Y-103248821D02*
X212661407Y-103296440D01*
X212661407Y-103296440D02*
X212613788Y-103344059D01*
X212613788Y-103344059D02*
X212566169Y-103439297D01*
X212566169Y-103439297D02*
X212566169Y-103677392D01*
X212566169Y-103677392D02*
X212613788Y-103772630D01*
X212613788Y-103772630D02*
X212661407Y-103820250D01*
X212661407Y-103820250D02*
X212756645Y-103867869D01*
X212756645Y-103867869D02*
X212994740Y-103867869D01*
X212994740Y-103867869D02*
X213089978Y-103820250D01*
X213089978Y-103820250D02*
X213137597Y-103772630D01*
X212137597Y-103486916D02*
X211375693Y-103486916D01*
X210470931Y-103201202D02*
X210470931Y-103867869D01*
X210709026Y-102820250D02*
X210947121Y-103534535D01*
X210947121Y-103534535D02*
X210328074Y-103534535D01*
X209756645Y-102867869D02*
X209661407Y-102867869D01*
X209661407Y-102867869D02*
X209566169Y-102915488D01*
X209566169Y-102915488D02*
X209518550Y-102963107D01*
X209518550Y-102963107D02*
X209470931Y-103058345D01*
X209470931Y-103058345D02*
X209423312Y-103248821D01*
X209423312Y-103248821D02*
X209423312Y-103486916D01*
X209423312Y-103486916D02*
X209470931Y-103677392D01*
X209470931Y-103677392D02*
X209518550Y-103772630D01*
X209518550Y-103772630D02*
X209566169Y-103820250D01*
X209566169Y-103820250D02*
X209661407Y-103867869D01*
X209661407Y-103867869D02*
X209756645Y-103867869D01*
X209756645Y-103867869D02*
X209851883Y-103820250D01*
X209851883Y-103820250D02*
X209899502Y-103772630D01*
X209899502Y-103772630D02*
X209947121Y-103677392D01*
X209947121Y-103677392D02*
X209994740Y-103486916D01*
X209994740Y-103486916D02*
X209994740Y-103248821D01*
X209994740Y-103248821D02*
X209947121Y-103058345D01*
X209947121Y-103058345D02*
X209899502Y-102963107D01*
X209899502Y-102963107D02*
X209851883Y-102915488D01*
X209851883Y-102915488D02*
X209756645Y-102867869D01*
X209089978Y-104248821D02*
X209042359Y-104201202D01*
X209042359Y-104201202D02*
X208947121Y-104058345D01*
X208947121Y-104058345D02*
X208899502Y-103963107D01*
X208899502Y-103963107D02*
X208851883Y-103820250D01*
X208851883Y-103820250D02*
X208804264Y-103582154D01*
X208804264Y-103582154D02*
X208804264Y-103391678D01*
X208804264Y-103391678D02*
X208851883Y-103153583D01*
X208851883Y-103153583D02*
X208899502Y-103010726D01*
X208899502Y-103010726D02*
X208947121Y-102915488D01*
X208947121Y-102915488D02*
X209042359Y-102772630D01*
X209042359Y-102772630D02*
X209089978Y-102725011D01*
X217363312Y-71730488D02*
X217458550Y-71682869D01*
X217458550Y-71682869D02*
X217601407Y-71682869D01*
X217601407Y-71682869D02*
X217744264Y-71730488D01*
X217744264Y-71730488D02*
X217839502Y-71825726D01*
X217839502Y-71825726D02*
X217887121Y-71920964D01*
X217887121Y-71920964D02*
X217934740Y-72111440D01*
X217934740Y-72111440D02*
X217934740Y-72254297D01*
X217934740Y-72254297D02*
X217887121Y-72444773D01*
X217887121Y-72444773D02*
X217839502Y-72540011D01*
X217839502Y-72540011D02*
X217744264Y-72635250D01*
X217744264Y-72635250D02*
X217601407Y-72682869D01*
X217601407Y-72682869D02*
X217506169Y-72682869D01*
X217506169Y-72682869D02*
X217363312Y-72635250D01*
X217363312Y-72635250D02*
X217315693Y-72587630D01*
X217315693Y-72587630D02*
X217315693Y-72254297D01*
X217315693Y-72254297D02*
X217506169Y-72254297D01*
X216887121Y-72682869D02*
X216887121Y-71682869D01*
X216887121Y-71682869D02*
X216315693Y-72682869D01*
X216315693Y-72682869D02*
X216315693Y-71682869D01*
X215839502Y-72682869D02*
X215839502Y-71682869D01*
X215839502Y-71682869D02*
X215601407Y-71682869D01*
X215601407Y-71682869D02*
X215458550Y-71730488D01*
X215458550Y-71730488D02*
X215363312Y-71825726D01*
X215363312Y-71825726D02*
X215315693Y-71920964D01*
X215315693Y-71920964D02*
X215268074Y-72111440D01*
X215268074Y-72111440D02*
X215268074Y-72254297D01*
X215268074Y-72254297D02*
X215315693Y-72444773D01*
X215315693Y-72444773D02*
X215363312Y-72540011D01*
X215363312Y-72540011D02*
X215458550Y-72635250D01*
X215458550Y-72635250D02*
X215601407Y-72682869D01*
X215601407Y-72682869D02*
X215839502Y-72682869D01*
X216172836Y-76747869D02*
X216649026Y-76747869D01*
X216649026Y-76747869D02*
X216696645Y-77224059D01*
X216696645Y-77224059D02*
X216649026Y-77176440D01*
X216649026Y-77176440D02*
X216553788Y-77128821D01*
X216553788Y-77128821D02*
X216315693Y-77128821D01*
X216315693Y-77128821D02*
X216220455Y-77176440D01*
X216220455Y-77176440D02*
X216172836Y-77224059D01*
X216172836Y-77224059D02*
X216125217Y-77319297D01*
X216125217Y-77319297D02*
X216125217Y-77557392D01*
X216125217Y-77557392D02*
X216172836Y-77652630D01*
X216172836Y-77652630D02*
X216220455Y-77700250D01*
X216220455Y-77700250D02*
X216315693Y-77747869D01*
X216315693Y-77747869D02*
X216553788Y-77747869D01*
X216553788Y-77747869D02*
X216649026Y-77700250D01*
X216649026Y-77700250D02*
X216696645Y-77652630D01*
X215839502Y-76747869D02*
X215506169Y-77747869D01*
X215506169Y-77747869D02*
X215172836Y-76747869D01*
X218458549Y-67617869D02*
X218458549Y-66617869D01*
X218458549Y-66617869D02*
X218125216Y-67332154D01*
X218125216Y-67332154D02*
X217791883Y-66617869D01*
X217791883Y-66617869D02*
X217791883Y-67617869D01*
X217315692Y-67617869D02*
X217315692Y-66617869D01*
X216887121Y-67570250D02*
X216744264Y-67617869D01*
X216744264Y-67617869D02*
X216506169Y-67617869D01*
X216506169Y-67617869D02*
X216410931Y-67570250D01*
X216410931Y-67570250D02*
X216363312Y-67522630D01*
X216363312Y-67522630D02*
X216315693Y-67427392D01*
X216315693Y-67427392D02*
X216315693Y-67332154D01*
X216315693Y-67332154D02*
X216363312Y-67236916D01*
X216363312Y-67236916D02*
X216410931Y-67189297D01*
X216410931Y-67189297D02*
X216506169Y-67141678D01*
X216506169Y-67141678D02*
X216696645Y-67094059D01*
X216696645Y-67094059D02*
X216791883Y-67046440D01*
X216791883Y-67046440D02*
X216839502Y-66998821D01*
X216839502Y-66998821D02*
X216887121Y-66903583D01*
X216887121Y-66903583D02*
X216887121Y-66808345D01*
X216887121Y-66808345D02*
X216839502Y-66713107D01*
X216839502Y-66713107D02*
X216791883Y-66665488D01*
X216791883Y-66665488D02*
X216696645Y-66617869D01*
X216696645Y-66617869D02*
X216458550Y-66617869D01*
X216458550Y-66617869D02*
X216315693Y-66665488D01*
X215696645Y-66617869D02*
X215506169Y-66617869D01*
X215506169Y-66617869D02*
X215410931Y-66665488D01*
X215410931Y-66665488D02*
X215315693Y-66760726D01*
X215315693Y-66760726D02*
X215268074Y-66951202D01*
X215268074Y-66951202D02*
X215268074Y-67284535D01*
X215268074Y-67284535D02*
X215315693Y-67475011D01*
X215315693Y-67475011D02*
X215410931Y-67570250D01*
X215410931Y-67570250D02*
X215506169Y-67617869D01*
X215506169Y-67617869D02*
X215696645Y-67617869D01*
X215696645Y-67617869D02*
X215791883Y-67570250D01*
X215791883Y-67570250D02*
X215887121Y-67475011D01*
X215887121Y-67475011D02*
X215934740Y-67284535D01*
X215934740Y-67284535D02*
X215934740Y-66951202D01*
X215934740Y-66951202D02*
X215887121Y-66760726D01*
X215887121Y-66760726D02*
X215791883Y-66665488D01*
X215791883Y-66665488D02*
X215696645Y-66617869D01*
D12*
X215039192Y-84695595D02*
X214543954Y-84695595D01*
X214543954Y-84695595D02*
X214810620Y-85000357D01*
X214810620Y-85000357D02*
X214696335Y-85000357D01*
X214696335Y-85000357D02*
X214620144Y-85038452D01*
X214620144Y-85038452D02*
X214582049Y-85076547D01*
X214582049Y-85076547D02*
X214543954Y-85152738D01*
X214543954Y-85152738D02*
X214543954Y-85343214D01*
X214543954Y-85343214D02*
X214582049Y-85419404D01*
X214582049Y-85419404D02*
X214620144Y-85457500D01*
X214620144Y-85457500D02*
X214696335Y-85495595D01*
X214696335Y-85495595D02*
X214924906Y-85495595D01*
X214924906Y-85495595D02*
X215001097Y-85457500D01*
X215001097Y-85457500D02*
X215039192Y-85419404D01*
X214315382Y-84695595D02*
X214048715Y-85495595D01*
X214048715Y-85495595D02*
X213782049Y-84695595D01*
X213591573Y-84695595D02*
X213096335Y-84695595D01*
X213096335Y-84695595D02*
X213363001Y-85000357D01*
X213363001Y-85000357D02*
X213248716Y-85000357D01*
X213248716Y-85000357D02*
X213172525Y-85038452D01*
X213172525Y-85038452D02*
X213134430Y-85076547D01*
X213134430Y-85076547D02*
X213096335Y-85152738D01*
X213096335Y-85152738D02*
X213096335Y-85343214D01*
X213096335Y-85343214D02*
X213134430Y-85419404D01*
X213134430Y-85419404D02*
X213172525Y-85457500D01*
X213172525Y-85457500D02*
X213248716Y-85495595D01*
X213248716Y-85495595D02*
X213477287Y-85495595D01*
X213477287Y-85495595D02*
X213553478Y-85457500D01*
X213553478Y-85457500D02*
X213591573Y-85419404D01*
D11*
X103528346Y-137557971D02*
X103599774Y-137629400D01*
X103599774Y-137629400D02*
X103814060Y-137700828D01*
X103814060Y-137700828D02*
X103956917Y-137700828D01*
X103956917Y-137700828D02*
X104171203Y-137629400D01*
X104171203Y-137629400D02*
X104314060Y-137486542D01*
X104314060Y-137486542D02*
X104385489Y-137343685D01*
X104385489Y-137343685D02*
X104456917Y-137057971D01*
X104456917Y-137057971D02*
X104456917Y-136843685D01*
X104456917Y-136843685D02*
X104385489Y-136557971D01*
X104385489Y-136557971D02*
X104314060Y-136415114D01*
X104314060Y-136415114D02*
X104171203Y-136272257D01*
X104171203Y-136272257D02*
X103956917Y-136200828D01*
X103956917Y-136200828D02*
X103814060Y-136200828D01*
X103814060Y-136200828D02*
X103599774Y-136272257D01*
X103599774Y-136272257D02*
X103528346Y-136343685D01*
X102956917Y-137272257D02*
X102242632Y-137272257D01*
X103099774Y-137700828D02*
X102599774Y-136200828D01*
X102599774Y-136200828D02*
X102099774Y-137700828D01*
X101599775Y-137700828D02*
X101599775Y-136200828D01*
X101599775Y-136200828D02*
X100742632Y-137700828D01*
X100742632Y-137700828D02*
X100742632Y-136200828D01*
X100028346Y-137700828D02*
X100028346Y-136200828D01*
X100028346Y-136915114D02*
X99171203Y-136915114D01*
X99171203Y-137700828D02*
X99171203Y-136200828D01*
D10*
X217077598Y-57392630D02*
X217125217Y-57440250D01*
X217125217Y-57440250D02*
X217268074Y-57487869D01*
X217268074Y-57487869D02*
X217363312Y-57487869D01*
X217363312Y-57487869D02*
X217506169Y-57440250D01*
X217506169Y-57440250D02*
X217601407Y-57345011D01*
X217601407Y-57345011D02*
X217649026Y-57249773D01*
X217649026Y-57249773D02*
X217696645Y-57059297D01*
X217696645Y-57059297D02*
X217696645Y-56916440D01*
X217696645Y-56916440D02*
X217649026Y-56725964D01*
X217649026Y-56725964D02*
X217601407Y-56630726D01*
X217601407Y-56630726D02*
X217506169Y-56535488D01*
X217506169Y-56535488D02*
X217363312Y-56487869D01*
X217363312Y-56487869D02*
X217268074Y-56487869D01*
X217268074Y-56487869D02*
X217125217Y-56535488D01*
X217125217Y-56535488D02*
X217077598Y-56583107D01*
X216172836Y-57487869D02*
X216649026Y-57487869D01*
X216649026Y-57487869D02*
X216649026Y-56487869D01*
X215839502Y-57487869D02*
X215839502Y-56487869D01*
X215268074Y-57487869D02*
X215696645Y-56916440D01*
X215268074Y-56487869D02*
X215839502Y-57059297D01*
X216824740Y-97495488D02*
X216919978Y-97447869D01*
X216919978Y-97447869D02*
X217062835Y-97447869D01*
X217062835Y-97447869D02*
X217205692Y-97495488D01*
X217205692Y-97495488D02*
X217300930Y-97590726D01*
X217300930Y-97590726D02*
X217348549Y-97685964D01*
X217348549Y-97685964D02*
X217396168Y-97876440D01*
X217396168Y-97876440D02*
X217396168Y-98019297D01*
X217396168Y-98019297D02*
X217348549Y-98209773D01*
X217348549Y-98209773D02*
X217300930Y-98305011D01*
X217300930Y-98305011D02*
X217205692Y-98400250D01*
X217205692Y-98400250D02*
X217062835Y-98447869D01*
X217062835Y-98447869D02*
X216967597Y-98447869D01*
X216967597Y-98447869D02*
X216824740Y-98400250D01*
X216824740Y-98400250D02*
X216777121Y-98352630D01*
X216777121Y-98352630D02*
X216777121Y-98019297D01*
X216777121Y-98019297D02*
X216967597Y-98019297D01*
X216348549Y-98447869D02*
X216348549Y-97447869D01*
X216348549Y-97447869D02*
X215777121Y-98447869D01*
X215777121Y-98447869D02*
X215777121Y-97447869D01*
X215300930Y-98447869D02*
X215300930Y-97447869D01*
X215300930Y-97447869D02*
X215062835Y-97447869D01*
X215062835Y-97447869D02*
X214919978Y-97495488D01*
X214919978Y-97495488D02*
X214824740Y-97590726D01*
X214824740Y-97590726D02*
X214777121Y-97685964D01*
X214777121Y-97685964D02*
X214729502Y-97876440D01*
X214729502Y-97876440D02*
X214729502Y-98019297D01*
X214729502Y-98019297D02*
X214777121Y-98209773D01*
X214777121Y-98209773D02*
X214824740Y-98305011D01*
X214824740Y-98305011D02*
X214919978Y-98400250D01*
X214919978Y-98400250D02*
X215062835Y-98447869D01*
X215062835Y-98447869D02*
X215300930Y-98447869D01*
D13*
%TO.C,G\u002A\u002A\u002A*%
G36*
X132725866Y-104573558D02*
G01*
X132991976Y-104746725D01*
X133078152Y-104851475D01*
X133158497Y-105016403D01*
X133204846Y-105248797D01*
X133231491Y-105599547D01*
X133237733Y-105878374D01*
X133195791Y-106325752D01*
X133076905Y-106648135D01*
X132875493Y-106865371D01*
X132622200Y-106972184D01*
X132304021Y-106953586D01*
X132000555Y-106784663D01*
X131892294Y-106683343D01*
X131820289Y-106574067D01*
X131781600Y-106421231D01*
X131765935Y-106182917D01*
X131763001Y-105817205D01*
X131763114Y-105749786D01*
X131771437Y-105383445D01*
X131798574Y-105135141D01*
X131852402Y-104960473D01*
X131940798Y-104815041D01*
X132127862Y-104641844D01*
X132420522Y-104539722D01*
X132725866Y-104573558D01*
G37*
G36*
X136704815Y-104717673D02*
G01*
X136828170Y-104825955D01*
X137089892Y-105060844D01*
X137242431Y-105212672D01*
X137300457Y-105300940D01*
X137278640Y-105345146D01*
X137191648Y-105364790D01*
X136970001Y-105391580D01*
X136970001Y-107035343D01*
X136970001Y-108679106D01*
X137181667Y-108732231D01*
X137336913Y-108811235D01*
X137393334Y-108987844D01*
X137390134Y-109063926D01*
X137361735Y-109125420D01*
X137279318Y-109162812D01*
X137114053Y-109182098D01*
X136837113Y-109189273D01*
X136419667Y-109190333D01*
X135446001Y-109190333D01*
X135446001Y-108984290D01*
X135447247Y-108943671D01*
X135503830Y-108806047D01*
X135678834Y-108751456D01*
X135911667Y-108724666D01*
X135954001Y-106411006D01*
X135996334Y-104097346D01*
X136704815Y-104717673D01*
G37*
G36*
X128530316Y-104601369D02*
G01*
X128678748Y-104805019D01*
X128807412Y-105104148D01*
X128893959Y-105494501D01*
X128943732Y-106001442D01*
X128962077Y-106650333D01*
X128962233Y-106679336D01*
X128951166Y-107343062D01*
X128907933Y-107864225D01*
X128827900Y-108266455D01*
X128706434Y-108573380D01*
X128538904Y-108808630D01*
X128527004Y-108821214D01*
X128353711Y-108962734D01*
X128207001Y-109020999D01*
X128067791Y-108975821D01*
X127874099Y-108799748D01*
X127695356Y-108526570D01*
X127561641Y-108194796D01*
X127542877Y-108121333D01*
X127489440Y-107770913D01*
X127457726Y-107320272D01*
X127447121Y-106814177D01*
X127457014Y-106297390D01*
X127486791Y-105814678D01*
X127535842Y-105410805D01*
X127603554Y-105130536D01*
X127680155Y-104949238D01*
X127876881Y-104633732D01*
X128092185Y-104465997D01*
X128314015Y-104452915D01*
X128530316Y-104601369D01*
G37*
G36*
X124369670Y-104154381D02*
G01*
X124737226Y-104278373D01*
X125038383Y-104465807D01*
X125247602Y-104704874D01*
X125339344Y-104983766D01*
X125288069Y-105290672D01*
X125265519Y-105339912D01*
X125082039Y-105550858D01*
X124838059Y-105612448D01*
X124565717Y-105514714D01*
X124525089Y-105485002D01*
X124382843Y-105287133D01*
X124365745Y-105062853D01*
X124481667Y-104872333D01*
X124496700Y-104859633D01*
X124596527Y-104734390D01*
X124548318Y-104636415D01*
X124342033Y-104541948D01*
X124241493Y-104508916D01*
X123953447Y-104457083D01*
X123726978Y-104515892D01*
X123501488Y-104696486D01*
X123435769Y-104766045D01*
X123292794Y-104997814D01*
X123254001Y-105284432D01*
X123268209Y-105468222D01*
X123396488Y-105793648D01*
X123655022Y-106012051D01*
X124039961Y-106119340D01*
X124161615Y-106134279D01*
X124345397Y-106175980D01*
X124423223Y-106251393D01*
X124439334Y-106390564D01*
X124427633Y-106519252D01*
X124350346Y-106601627D01*
X124155698Y-106624813D01*
X124065235Y-106630383D01*
X123660415Y-106744072D01*
X123351301Y-106987780D01*
X123154012Y-107343898D01*
X123084667Y-107794818D01*
X123086381Y-107854542D01*
X123155331Y-108195467D01*
X123303967Y-108490981D01*
X123503311Y-108679823D01*
X123691651Y-108743466D01*
X124044283Y-108756928D01*
X124426410Y-108674151D01*
X124692754Y-108581303D01*
X124523711Y-108366400D01*
X124505900Y-108343099D01*
X124372220Y-108065881D01*
X124389773Y-107816775D01*
X124557369Y-107622088D01*
X124609617Y-107592197D01*
X124867475Y-107534889D01*
X125115854Y-107593252D01*
X125288234Y-107755172D01*
X125301419Y-107781831D01*
X125365771Y-108073526D01*
X125340896Y-108401473D01*
X125232449Y-108672656D01*
X125193140Y-108720325D01*
X124995034Y-108885083D01*
X124745616Y-109028302D01*
X124511334Y-109107952D01*
X124065281Y-109174178D01*
X123597908Y-109164898D01*
X123190250Y-109077546D01*
X122825851Y-108873859D01*
X122514998Y-108564152D01*
X122318940Y-108205372D01*
X122259019Y-107911630D01*
X122288624Y-107481856D01*
X122440856Y-107085450D01*
X122698043Y-106762746D01*
X123042512Y-106554073D01*
X123091918Y-106535545D01*
X123266878Y-106456294D01*
X123336483Y-106400491D01*
X123322624Y-106381515D01*
X123201229Y-106301978D01*
X122995915Y-106197951D01*
X122854399Y-106120531D01*
X122579945Y-105860567D01*
X122435267Y-105539594D01*
X122418378Y-105189616D01*
X122527294Y-104842634D01*
X122760027Y-104530652D01*
X123114592Y-104285673D01*
X123124004Y-104281152D01*
X123537520Y-104143961D01*
X123961255Y-104105641D01*
X124369670Y-104154381D01*
G37*
G36*
X139005136Y-81467432D02*
G01*
X139002638Y-82088048D01*
X139002001Y-82860209D01*
X139002175Y-83522621D01*
X139003395Y-84128999D01*
X139003454Y-84158512D01*
X139006944Y-84658634D01*
X139013751Y-85041111D01*
X139024978Y-85324067D01*
X139041731Y-85525627D01*
X139065114Y-85663913D01*
X139096233Y-85757050D01*
X139136190Y-85823163D01*
X139186093Y-85880376D01*
X139370185Y-86076333D01*
X138529926Y-86071767D01*
X137893099Y-86059362D01*
X137167953Y-86011557D01*
X136582126Y-85921739D01*
X136119916Y-85782981D01*
X135765621Y-85588357D01*
X135503539Y-85330941D01*
X135317967Y-85003808D01*
X135193203Y-84600032D01*
X135148840Y-84332037D01*
X135160757Y-84029318D01*
X135716226Y-84029318D01*
X135725166Y-84446208D01*
X135840810Y-84836439D01*
X136064016Y-85165780D01*
X136395641Y-85399999D01*
X136481537Y-85435617D01*
X136794672Y-85528378D01*
X137075834Y-85566473D01*
X137393334Y-85568333D01*
X137393334Y-84128999D01*
X137393334Y-82689666D01*
X137114941Y-82689666D01*
X137022513Y-82697215D01*
X136744312Y-82764953D01*
X136458774Y-82880166D01*
X136321058Y-82961014D01*
X136015030Y-83252489D01*
X135813134Y-83620001D01*
X135716226Y-84029318D01*
X135160757Y-84029318D01*
X135170123Y-83791414D01*
X135353168Y-83299742D01*
X135699628Y-82851309D01*
X135812430Y-82738050D01*
X135974182Y-82564680D01*
X136038382Y-82457003D01*
X136020495Y-82378455D01*
X135935987Y-82292472D01*
X135860319Y-82217672D01*
X135621711Y-81864493D01*
X135485049Y-81455146D01*
X135474302Y-81260651D01*
X136092019Y-81260651D01*
X136170121Y-81628067D01*
X136322608Y-81936702D01*
X136540352Y-82136067D01*
X136551959Y-82141939D01*
X136799798Y-82238041D01*
X137078760Y-82310830D01*
X137393334Y-82369844D01*
X137393334Y-81175088D01*
X137393334Y-79980333D01*
X137173296Y-79980333D01*
X137135198Y-79981396D01*
X136798740Y-80061476D01*
X136474168Y-80239442D01*
X136239874Y-80473845D01*
X136195472Y-80551429D01*
X136097427Y-80884941D01*
X136092019Y-81260651D01*
X135474302Y-81260651D01*
X135462181Y-81041302D01*
X135564956Y-80674628D01*
X135613165Y-80586542D01*
X135809937Y-80311924D01*
X136057855Y-80102772D01*
X136380286Y-79950260D01*
X136800598Y-79845563D01*
X137342158Y-79779857D01*
X138028334Y-79744317D01*
X138355216Y-79734523D01*
X138745905Y-79725069D01*
X139003677Y-79725140D01*
X139150761Y-79737239D01*
X139209385Y-79763873D01*
X139201778Y-79807547D01*
X139150167Y-79870767D01*
X139148795Y-79872307D01*
X139108583Y-79930130D01*
X139076403Y-80014993D01*
X139051375Y-80144683D01*
X139032615Y-80336985D01*
X139019243Y-80609687D01*
X139010377Y-80980574D01*
X139008283Y-81175088D01*
X139005136Y-81467432D01*
G37*
G36*
X122123297Y-79771605D02*
G01*
X122286730Y-79789658D01*
X122338735Y-79834240D01*
X122311433Y-79916657D01*
X122299601Y-79971246D01*
X122329242Y-80083794D01*
X122421759Y-80256550D01*
X122588257Y-80507211D01*
X122839841Y-80853478D01*
X123187616Y-81313047D01*
X124143001Y-82561445D01*
X124166486Y-81303525D01*
X124171247Y-80798576D01*
X124161784Y-80352673D01*
X124135680Y-80064532D01*
X124092619Y-79928302D01*
X124074704Y-79902067D01*
X124085520Y-79855889D01*
X124190825Y-79828134D01*
X124415536Y-79814579D01*
X124784567Y-79810999D01*
X124804609Y-79811007D01*
X125171858Y-79816099D01*
X125391690Y-79832680D01*
X125484897Y-79863823D01*
X125472267Y-79912599D01*
X125443419Y-79988487D01*
X125419564Y-80164442D01*
X125400921Y-80451509D01*
X125387100Y-80861328D01*
X125377711Y-81405535D01*
X125372363Y-82095768D01*
X125370667Y-82943666D01*
X125372299Y-83777104D01*
X125377574Y-84470196D01*
X125386884Y-85017043D01*
X125400618Y-85429282D01*
X125419166Y-85718552D01*
X125442919Y-85896489D01*
X125472267Y-85974733D01*
X125473791Y-85976278D01*
X125484066Y-86024722D01*
X125387749Y-86055470D01*
X125163993Y-86071636D01*
X124791955Y-86076333D01*
X124776138Y-86076331D01*
X124416728Y-86074166D01*
X124197405Y-86063366D01*
X124089942Y-86037271D01*
X124066113Y-85989223D01*
X124097689Y-85912565D01*
X124107338Y-85887415D01*
X124138113Y-85702750D01*
X124162859Y-85393721D01*
X124179343Y-84995232D01*
X124185334Y-84542189D01*
X124185333Y-84528347D01*
X124183502Y-84052912D01*
X124175453Y-83715624D01*
X124157195Y-83486068D01*
X124124735Y-83333827D01*
X124074082Y-83228484D01*
X124001242Y-83139623D01*
X123822684Y-82996383D01*
X123606541Y-82955143D01*
X123419417Y-83075385D01*
X123400185Y-83109423D01*
X123336343Y-83295489D01*
X123255016Y-83601250D01*
X123164660Y-83993371D01*
X123073727Y-84438515D01*
X123036748Y-84626145D01*
X122945051Y-85053454D01*
X122857429Y-85413991D01*
X122782333Y-85674428D01*
X122728211Y-85801435D01*
X122586563Y-85919644D01*
X122374195Y-86035907D01*
X122077283Y-86094656D01*
X121763404Y-86014737D01*
X121497696Y-85797581D01*
X121311085Y-85459943D01*
X121309844Y-85456384D01*
X121256828Y-85289705D01*
X121274917Y-85259419D01*
X121376586Y-85343319D01*
X121488166Y-85432982D01*
X121585522Y-85483666D01*
X121615723Y-85475921D01*
X121682204Y-85396822D01*
X121751344Y-85218361D01*
X121827920Y-84923396D01*
X121916708Y-84494786D01*
X122022483Y-83915389D01*
X122103748Y-83469169D01*
X122202072Y-83006098D01*
X122299590Y-82672103D01*
X122407689Y-82444921D01*
X122537755Y-82302295D01*
X122701176Y-82221963D01*
X122909337Y-82181666D01*
X123267459Y-82139333D01*
X122451373Y-81055248D01*
X122275553Y-80824313D01*
X122004996Y-80479527D01*
X121774359Y-80198438D01*
X121603758Y-80005296D01*
X121513311Y-79924356D01*
X121409831Y-79871243D01*
X121414637Y-79815975D01*
X121577107Y-79780923D01*
X121890985Y-79768666D01*
X122123297Y-79771605D01*
G37*
G36*
X135651769Y-92156771D02*
G01*
X135513653Y-92500927D01*
X135404508Y-93129880D01*
X135450074Y-93813531D01*
X135650357Y-94542999D01*
X135788279Y-94915693D01*
X135986599Y-95456896D01*
X136136471Y-95880549D01*
X136244716Y-96212797D01*
X136318152Y-96479786D01*
X136363598Y-96707662D01*
X136375785Y-96815559D01*
X136387873Y-96922571D01*
X136397796Y-97150659D01*
X136400186Y-97418072D01*
X136374600Y-97999120D01*
X136249583Y-98694189D01*
X136012241Y-99302667D01*
X135653388Y-99834779D01*
X135163837Y-100300748D01*
X134534404Y-100710801D01*
X133755900Y-101075161D01*
X132819142Y-101404053D01*
X132367817Y-101551002D01*
X131624012Y-101838686D01*
X131031287Y-102138460D01*
X130577667Y-102455946D01*
X130239001Y-102742384D01*
X130027334Y-102545910D01*
X129559285Y-102189886D01*
X128945392Y-101860281D01*
X128249334Y-101599053D01*
X127948786Y-101497533D01*
X127497626Y-101323944D01*
X127012146Y-101119630D01*
X126556001Y-100910477D01*
X126338046Y-100803624D01*
X125923211Y-100584128D01*
X125598043Y-100379036D01*
X125314619Y-100156202D01*
X125025016Y-99883477D01*
X124747357Y-99586390D01*
X124476942Y-99215487D01*
X124297014Y-98824236D01*
X124186588Y-98363725D01*
X124124678Y-97785045D01*
X124120842Y-97725238D01*
X124112550Y-97232935D01*
X124152339Y-96796403D01*
X126182688Y-96796403D01*
X126329881Y-97554245D01*
X126617037Y-98272659D01*
X127031309Y-98930125D01*
X127559851Y-99505127D01*
X128189817Y-99976144D01*
X128908360Y-100321660D01*
X129316124Y-100433393D01*
X129873562Y-100512660D01*
X130458947Y-100534661D01*
X131010557Y-100497523D01*
X131466667Y-100399369D01*
X131757381Y-100295762D01*
X132292671Y-100050663D01*
X132755184Y-99743438D01*
X133210906Y-99333773D01*
X133494689Y-99022165D01*
X133956217Y-98339058D01*
X134264536Y-97598112D01*
X134415650Y-96815559D01*
X134405567Y-96007632D01*
X134230292Y-95190562D01*
X134183687Y-95054464D01*
X133957819Y-94546345D01*
X133667233Y-94053010D01*
X133344397Y-93624914D01*
X133021778Y-93312512D01*
X133000542Y-93296368D01*
X132819475Y-93168491D01*
X132751840Y-93152073D01*
X132794093Y-93254813D01*
X132942693Y-93484408D01*
X133114771Y-93774689D01*
X133351183Y-94403709D01*
X133447979Y-95073185D01*
X133410730Y-95755181D01*
X133245004Y-96421761D01*
X132956369Y-97044990D01*
X132550394Y-97596932D01*
X132032648Y-98049652D01*
X131759717Y-98219256D01*
X131126140Y-98487017D01*
X130482403Y-98603790D01*
X129846446Y-98579597D01*
X129236208Y-98424460D01*
X128669628Y-98148399D01*
X128164646Y-97761437D01*
X127739200Y-97273594D01*
X127411231Y-96694893D01*
X127198677Y-96035354D01*
X127119477Y-95304999D01*
X127153172Y-94755430D01*
X127318757Y-94076016D01*
X127617424Y-93488168D01*
X127622232Y-93481066D01*
X127742263Y-93281399D01*
X127757006Y-93200988D01*
X127676624Y-93235587D01*
X127511280Y-93380951D01*
X127271137Y-93632833D01*
X127116168Y-93817270D01*
X126714023Y-94432960D01*
X126403576Y-95120811D01*
X126217189Y-95813858D01*
X126188304Y-96020650D01*
X126182688Y-96796403D01*
X124152339Y-96796403D01*
X124155396Y-96762863D01*
X124257921Y-96272894D01*
X124428664Y-95720902D01*
X124676166Y-95064757D01*
X124772996Y-94820511D01*
X124909678Y-94455562D01*
X124996848Y-94171447D01*
X125045561Y-93919289D01*
X125066872Y-93650210D01*
X125071835Y-93315333D01*
X125071498Y-93177360D01*
X125060294Y-92827274D01*
X125025049Y-92570465D01*
X124954592Y-92349211D01*
X124837755Y-92105793D01*
X124739590Y-91933321D01*
X124716704Y-91898769D01*
X128896425Y-91898769D01*
X128938802Y-91928238D01*
X129110106Y-91952180D01*
X129372400Y-91961174D01*
X129887257Y-91960666D01*
X130049112Y-92426333D01*
X130121829Y-92630242D01*
X130198577Y-92831549D01*
X130239639Y-92920764D01*
X130271672Y-92869932D01*
X130334576Y-92694639D01*
X130412979Y-92433931D01*
X130557648Y-91918333D01*
X131116861Y-91918333D01*
X131676074Y-91918333D01*
X131231807Y-91619146D01*
X131059633Y-91499566D01*
X130893014Y-91348937D01*
X130831907Y-91193141D01*
X130862521Y-90981664D01*
X130971065Y-90663987D01*
X130981019Y-90636644D01*
X131033608Y-90448500D01*
X131002650Y-90381076D01*
X130873703Y-90431513D01*
X130632323Y-90596953D01*
X130221313Y-90898663D01*
X129811060Y-90606984D01*
X129624068Y-90478737D01*
X129451611Y-90372019D01*
X129375184Y-90340927D01*
X129381381Y-90403964D01*
X129430928Y-90587732D01*
X129514296Y-90845355D01*
X129679030Y-91324162D01*
X129307168Y-91580009D01*
X129164295Y-91680984D01*
X128983386Y-91818568D01*
X128896425Y-91898769D01*
X124716704Y-91898769D01*
X124519281Y-91600710D01*
X124300814Y-91324063D01*
X123998894Y-90989874D01*
X124676798Y-90352150D01*
X124835705Y-90198403D01*
X125201417Y-89820215D01*
X125556641Y-89425122D01*
X125842784Y-89077193D01*
X126017408Y-88855299D01*
X126222777Y-88623142D01*
X126366312Y-88509451D01*
X126464600Y-88498797D01*
X127045578Y-88718687D01*
X127682526Y-88854890D01*
X128319859Y-88863550D01*
X129011334Y-88749971D01*
X129595469Y-88645791D01*
X130545642Y-88614683D01*
X131509001Y-88752234D01*
X131645139Y-88781990D01*
X132264011Y-88871237D01*
X132826135Y-88857683D01*
X133390051Y-88735398D01*
X134014303Y-88498452D01*
X134027375Y-88494165D01*
X134126535Y-88520262D01*
X134277582Y-88642960D01*
X134495487Y-88876372D01*
X134795220Y-89234610D01*
X134856141Y-89309227D01*
X135427303Y-89969995D01*
X135933176Y-90480583D01*
X136371671Y-90838867D01*
X136577675Y-90982327D01*
X136234499Y-91328935D01*
X136087822Y-91494726D01*
X135846872Y-91824865D01*
X135791929Y-91918333D01*
X135651769Y-92156771D01*
G37*
G36*
X143915678Y-93230666D02*
G01*
X143966759Y-93392161D01*
X144417252Y-94895467D01*
X144780150Y-96272926D01*
X145057141Y-97540803D01*
X145249918Y-98715361D01*
X145360169Y-99812864D01*
X145389586Y-100849576D01*
X145339858Y-101841760D01*
X145212675Y-102805682D01*
X145009729Y-103757603D01*
X144985017Y-103853378D01*
X144582205Y-105055202D01*
X144027723Y-106193638D01*
X143329274Y-107261388D01*
X142494562Y-108251155D01*
X141531290Y-109155642D01*
X140447161Y-109967550D01*
X139249879Y-110679583D01*
X137947147Y-111284443D01*
X136546667Y-111774832D01*
X135878201Y-111979704D01*
X134981912Y-112279537D01*
X134208620Y-112574810D01*
X133531341Y-112876938D01*
X132923092Y-113197336D01*
X132356890Y-113547421D01*
X132272343Y-113604371D01*
X131652291Y-114077210D01*
X131194123Y-114538888D01*
X130901104Y-114986180D01*
X130887430Y-115013566D01*
X130742740Y-115224495D01*
X130586752Y-115357722D01*
X130463603Y-115411627D01*
X130339268Y-115449936D01*
X130169892Y-115404900D01*
X129962797Y-115232811D01*
X129780330Y-114966002D01*
X129671929Y-114793806D01*
X129411235Y-114477244D01*
X129071435Y-114132882D01*
X128691259Y-113798962D01*
X128309440Y-113513724D01*
X128228690Y-113460907D01*
X127743929Y-113180459D01*
X127151720Y-112883683D01*
X126499157Y-112591873D01*
X125833331Y-112326323D01*
X125201334Y-112108325D01*
X125016926Y-112050474D01*
X123949304Y-111701611D01*
X123020468Y-111369126D01*
X122206401Y-111041156D01*
X121483082Y-110705839D01*
X120826493Y-110351311D01*
X120212614Y-109965710D01*
X119617426Y-109537171D01*
X119016910Y-109053832D01*
X118595306Y-108677873D01*
X117710202Y-107729824D01*
X116947736Y-106677227D01*
X116318862Y-105538724D01*
X115834533Y-104332955D01*
X115505705Y-103078563D01*
X115367595Y-102155377D01*
X115299832Y-100960834D01*
X115344187Y-99685743D01*
X115501679Y-98321773D01*
X115773327Y-96860590D01*
X116160151Y-95293864D01*
X116663169Y-93613261D01*
X116940086Y-92723068D01*
X117180833Y-91863278D01*
X117362768Y-91095062D01*
X117493398Y-90386428D01*
X117580230Y-89705388D01*
X117624636Y-88587569D01*
X117521321Y-87511191D01*
X117263778Y-86497249D01*
X116848621Y-85535863D01*
X116272464Y-84617156D01*
X115531918Y-83731250D01*
X115500357Y-83697669D01*
X115193621Y-83347718D01*
X115014734Y-83088495D01*
X114956667Y-82909964D01*
X114959730Y-82879318D01*
X115012939Y-82754923D01*
X115142055Y-82576664D01*
X115359736Y-82329875D01*
X115678639Y-81999891D01*
X116111422Y-81572047D01*
X116310612Y-81376726D01*
X117276495Y-80394843D01*
X118125911Y-79469892D01*
X118854483Y-78607569D01*
X119457832Y-77813570D01*
X119931580Y-77093590D01*
X120271349Y-76453325D01*
X120472761Y-75898470D01*
X120530814Y-75729095D01*
X121052255Y-75729095D01*
X121073628Y-92819547D01*
X121095001Y-109909999D01*
X121687667Y-110225467D01*
X122117994Y-110439201D01*
X122878414Y-110766229D01*
X123746279Y-111089353D01*
X124685189Y-111394378D01*
X124975613Y-111482774D01*
X125307820Y-111585242D01*
X125555578Y-111663262D01*
X125680023Y-111704712D01*
X125687431Y-111705565D01*
X125709837Y-111675791D01*
X125728995Y-111587383D01*
X125745141Y-111429272D01*
X125758508Y-111190387D01*
X125769332Y-110859659D01*
X125777847Y-110426018D01*
X125784288Y-109878395D01*
X125788889Y-109205720D01*
X125791885Y-108396923D01*
X125793511Y-107440934D01*
X125793754Y-106888712D01*
X126487617Y-106888712D01*
X126517305Y-107268517D01*
X126651853Y-107938126D01*
X126884327Y-108479707D01*
X127212159Y-108888170D01*
X127632781Y-109158427D01*
X127717017Y-109191619D01*
X128181093Y-109276948D01*
X128631901Y-109204916D01*
X129049340Y-108985379D01*
X129413304Y-108628193D01*
X129703690Y-108143212D01*
X129774810Y-107973127D01*
X129839214Y-107758840D01*
X129877386Y-107511251D01*
X129895651Y-107185068D01*
X129900334Y-106734999D01*
X129898259Y-106450344D01*
X130958667Y-106450344D01*
X130958909Y-106497901D01*
X130979853Y-106734999D01*
X131020317Y-107193062D01*
X131182968Y-107818165D01*
X131436541Y-108351132D01*
X131770714Y-108769889D01*
X132175168Y-109052359D01*
X132247749Y-109084055D01*
X132672573Y-109180522D01*
X133107085Y-109152698D01*
X133501969Y-109009427D01*
X133807906Y-108759554D01*
X133870350Y-108661859D01*
X133937679Y-108402713D01*
X133913435Y-108133110D01*
X133807831Y-107909197D01*
X133631075Y-107787124D01*
X133614629Y-107783117D01*
X133302313Y-107763942D01*
X133093741Y-107864720D01*
X133005770Y-108068703D01*
X133055260Y-108359144D01*
X133086087Y-108450400D01*
X133101157Y-108654868D01*
X132986075Y-108763358D01*
X132726240Y-108795221D01*
X132680402Y-108793065D01*
X132407578Y-108688823D01*
X132167834Y-108448035D01*
X131976995Y-108098399D01*
X131850887Y-107667614D01*
X131805334Y-107183376D01*
X131809367Y-107056955D01*
X131849428Y-107015623D01*
X131968477Y-107110397D01*
X132036327Y-107163503D01*
X132348552Y-107302592D01*
X132723720Y-107360446D01*
X133088767Y-107323187D01*
X133154339Y-107303227D01*
X133504511Y-107101283D01*
X133783157Y-106780340D01*
X133977718Y-106375037D01*
X134075636Y-105920009D01*
X134064353Y-105449896D01*
X133931311Y-104999333D01*
X133922289Y-104980084D01*
X133640295Y-104562023D01*
X133268905Y-104273006D01*
X132835660Y-104122786D01*
X132368097Y-104121116D01*
X131893758Y-104277749D01*
X131726638Y-104376837D01*
X131386619Y-104704233D01*
X131147076Y-105154785D01*
X131005322Y-105734741D01*
X130958667Y-106450344D01*
X129898259Y-106450344D01*
X129897713Y-106375525D01*
X129883254Y-106026138D01*
X129850531Y-105766601D01*
X129793295Y-105552145D01*
X129705295Y-105337999D01*
X129439273Y-104872701D01*
X129080622Y-104494225D01*
X128656591Y-104269312D01*
X128163182Y-104194999D01*
X128124692Y-104195421D01*
X127734539Y-104260829D01*
X127385988Y-104451682D01*
X127040910Y-104788133D01*
X126770646Y-105179432D01*
X126586434Y-105648261D01*
X126494727Y-106208013D01*
X126487617Y-106888712D01*
X125793754Y-106888712D01*
X125794001Y-106326684D01*
X125794001Y-100904920D01*
X126153834Y-101102960D01*
X126224931Y-101139737D01*
X126487490Y-101261861D01*
X126853368Y-101420975D01*
X127284128Y-101600584D01*
X127741334Y-101784193D01*
X128084163Y-101920016D01*
X128640533Y-102146804D01*
X129073778Y-102335374D01*
X129407968Y-102497843D01*
X129667170Y-102646326D01*
X129875454Y-102792937D01*
X130056886Y-102949794D01*
X130359958Y-103235628D01*
X130624529Y-102962661D01*
X130810529Y-102792084D01*
X131123167Y-102574157D01*
X131526379Y-102361948D01*
X132045354Y-102142636D01*
X132705278Y-101903399D01*
X133086261Y-101765982D01*
X133538899Y-101587932D01*
X133943125Y-101414191D01*
X134242415Y-101268119D01*
X134267681Y-101254351D01*
X134529969Y-101114430D01*
X134725617Y-101015305D01*
X134813915Y-100977666D01*
X134815724Y-100983295D01*
X134822505Y-101107095D01*
X134828879Y-101382322D01*
X134834741Y-101794752D01*
X134839988Y-102330159D01*
X134844514Y-102974320D01*
X134848217Y-103713009D01*
X134850990Y-104532001D01*
X134852731Y-105417073D01*
X134853055Y-105920009D01*
X134853334Y-106353999D01*
X134853401Y-106602167D01*
X134854866Y-107526599D01*
X134858119Y-108395251D01*
X134862991Y-109193931D01*
X134869315Y-109908442D01*
X134876923Y-110524592D01*
X134885646Y-111028186D01*
X134895318Y-111405029D01*
X134905770Y-111640928D01*
X134916834Y-111721689D01*
X135109387Y-111680378D01*
X135450304Y-111583149D01*
X135887132Y-111443941D01*
X136387189Y-111274383D01*
X136917794Y-111086105D01*
X137446263Y-110890735D01*
X137939917Y-110699902D01*
X138366073Y-110525236D01*
X138692050Y-110378365D01*
X139594667Y-109938636D01*
X139594667Y-92832966D01*
X139594667Y-75727295D01*
X139245421Y-76042819D01*
X139047215Y-76205451D01*
X138440663Y-76561241D01*
X137705368Y-76822489D01*
X136851845Y-76986044D01*
X135890606Y-77048754D01*
X134938211Y-77059333D01*
X134938106Y-82769775D01*
X134938072Y-84622021D01*
X134938001Y-88480217D01*
X134643751Y-88195018D01*
X134349500Y-87909820D01*
X133941709Y-88131768D01*
X133932234Y-88136913D01*
X133556580Y-88317268D01*
X133199581Y-88428513D01*
X132815837Y-88476407D01*
X132359947Y-88466710D01*
X131786513Y-88405182D01*
X131738288Y-88398847D01*
X131111169Y-88326029D01*
X130591610Y-88290120D01*
X130125616Y-88291087D01*
X129659190Y-88328895D01*
X129138334Y-88403510D01*
X128896476Y-88441160D01*
X128302372Y-88506587D01*
X127815781Y-88506578D01*
X127398683Y-88435982D01*
X127013059Y-88289648D01*
X126620889Y-88062424D01*
X126304777Y-87853767D01*
X126070556Y-88207720D01*
X125836334Y-88561673D01*
X125814540Y-82810503D01*
X125803540Y-79907921D01*
X128572047Y-79907921D01*
X128617212Y-79965833D01*
X128635991Y-79989369D01*
X128671909Y-80061516D01*
X128700066Y-80175384D01*
X128721380Y-80349203D01*
X128736765Y-80601202D01*
X128747138Y-80949611D01*
X128753413Y-81412659D01*
X128756506Y-82008576D01*
X128757334Y-82755592D01*
X128757334Y-85390518D01*
X129692288Y-85692768D01*
X130154725Y-85834131D01*
X130747830Y-85979137D01*
X131235046Y-86041666D01*
X131641412Y-86022159D01*
X131991967Y-85921055D01*
X132311749Y-85738794D01*
X132342517Y-85716151D01*
X132631154Y-85409592D01*
X132816101Y-85032009D01*
X132894624Y-84622021D01*
X132863990Y-84218245D01*
X132721464Y-83859301D01*
X132464312Y-83583805D01*
X132453359Y-83576273D01*
X132157510Y-83455743D01*
X131850323Y-83456105D01*
X131574484Y-83561421D01*
X131372676Y-83755753D01*
X131287584Y-84023166D01*
X131303217Y-84373185D01*
X131410591Y-84675169D01*
X131616486Y-84841221D01*
X131922441Y-84873402D01*
X131957896Y-84870995D01*
X132145763Y-84911488D01*
X132222611Y-85030639D01*
X132199834Y-85196251D01*
X132088826Y-85376124D01*
X131900980Y-85538057D01*
X131647692Y-85649851D01*
X131638995Y-85652167D01*
X131245578Y-85698740D01*
X130827593Y-85626167D01*
X130344834Y-85427588D01*
X129942667Y-85226813D01*
X129942667Y-82688240D01*
X129942667Y-80149666D01*
X130663052Y-80149666D01*
X130985807Y-80148160D01*
X131203050Y-80138289D01*
X131305205Y-80112236D01*
X131320631Y-80062188D01*
X131277685Y-79980332D01*
X131258806Y-79952269D01*
X131200713Y-79896267D01*
X131105489Y-79857355D01*
X130946696Y-79832453D01*
X130697895Y-79818480D01*
X130332647Y-79812356D01*
X129824512Y-79810999D01*
X129467525Y-79811310D01*
X129066313Y-79814217D01*
X128797941Y-79822539D01*
X128640629Y-79839067D01*
X128572592Y-79866597D01*
X128572047Y-79907921D01*
X125803540Y-79907921D01*
X125792745Y-77059333D01*
X124798540Y-77050062D01*
X124402194Y-77037204D01*
X123480421Y-76928833D01*
X122654233Y-76715304D01*
X121939457Y-76401476D01*
X121351920Y-75992205D01*
X121052255Y-75729095D01*
X120530814Y-75729095D01*
X120555895Y-75655920D01*
X120730523Y-75375183D01*
X120943661Y-75216892D01*
X121171804Y-75204385D01*
X121234430Y-75231102D01*
X121430839Y-75358536D01*
X121645334Y-75538824D01*
X122108573Y-75884798D01*
X122703818Y-76175357D01*
X123390194Y-76388645D01*
X123680837Y-76440239D01*
X124220578Y-76487169D01*
X124851550Y-76500347D01*
X125529499Y-76481337D01*
X126210171Y-76431703D01*
X126849312Y-76353009D01*
X127402667Y-76246819D01*
X127527663Y-76217325D01*
X127789083Y-76161986D01*
X128046283Y-76120366D01*
X128328189Y-76090468D01*
X128663722Y-76070298D01*
X129081809Y-76057860D01*
X129611371Y-76051157D01*
X130281334Y-76048195D01*
X130782597Y-76047598D01*
X131341460Y-76050011D01*
X131783142Y-76058033D01*
X132137732Y-76073729D01*
X132435322Y-76099167D01*
X132706002Y-76136412D01*
X132979865Y-76187530D01*
X133287001Y-76254589D01*
X133581400Y-76318493D01*
X133930195Y-76381816D01*
X134272524Y-76424401D01*
X134652315Y-76450100D01*
X135113498Y-76462767D01*
X135700001Y-76466255D01*
X136095528Y-76465141D01*
X136574947Y-76457550D01*
X136937983Y-76440536D01*
X137216490Y-76411494D01*
X137442322Y-76367815D01*
X137647334Y-76306892D01*
X137905835Y-76214128D01*
X138356225Y-76020021D01*
X138718096Y-75805110D01*
X139045327Y-75539830D01*
X139269786Y-75355703D01*
X139462288Y-75266249D01*
X139670366Y-75256293D01*
X139776899Y-75267309D01*
X139890319Y-75298669D01*
X139980339Y-75374469D01*
X140067495Y-75523303D01*
X140172322Y-75773766D01*
X140315352Y-76154454D01*
X140351932Y-76249690D01*
X140668648Y-76913870D01*
X141118957Y-77644840D01*
X141705538Y-78446057D01*
X142431072Y-79320975D01*
X143298237Y-80273050D01*
X144309713Y-81305738D01*
X144591324Y-81585537D01*
X145011988Y-82011536D01*
X145324203Y-82347033D01*
X145536991Y-82609086D01*
X145659377Y-82814750D01*
X145700384Y-82981083D01*
X145669033Y-83125140D01*
X145574350Y-83263980D01*
X145425357Y-83414659D01*
X145278099Y-83559858D01*
X144863398Y-84031334D01*
X144446782Y-84582609D01*
X144069748Y-85156378D01*
X143773796Y-85695333D01*
X143733327Y-85779978D01*
X143501697Y-86295404D01*
X143334131Y-86749336D01*
X143221053Y-87187784D01*
X143152886Y-87656760D01*
X143120054Y-88202272D01*
X143112981Y-88870333D01*
X143113632Y-88984166D01*
X143127860Y-89574575D01*
X143164751Y-90111794D01*
X143230777Y-90630986D01*
X143332409Y-91167309D01*
X143476122Y-91755923D01*
X143668387Y-92431989D01*
X143792540Y-92832966D01*
X143915678Y-93230666D01*
G37*
G36*
X179242667Y-91432000D02*
G01*
X179200334Y-91474333D01*
X179158000Y-91432000D01*
X179200334Y-91389667D01*
X179242667Y-91432000D01*
G37*
G36*
X178756125Y-87257276D02*
G01*
X178859972Y-87333467D01*
X178808232Y-87466043D01*
X178746330Y-87537807D01*
X178668152Y-87572976D01*
X178529925Y-87528275D01*
X178498988Y-87514526D01*
X178400815Y-87404899D01*
X178437026Y-87292558D01*
X178593556Y-87241000D01*
X178756125Y-87257276D01*
G37*
G36*
X174260031Y-87412638D02*
G01*
X174445411Y-87449026D01*
X174501334Y-87537333D01*
X174498038Y-87591054D01*
X174456632Y-87650131D01*
X174334048Y-87654423D01*
X174088584Y-87611417D01*
X173898080Y-87554711D01*
X173833039Y-87486664D01*
X173923475Y-87432457D01*
X174162667Y-87410333D01*
X174260031Y-87412638D01*
G37*
G36*
X174527478Y-88012587D02*
G01*
X174642267Y-88061549D01*
X174670667Y-88172333D01*
X174668986Y-88196311D01*
X174580042Y-88313256D01*
X174385638Y-88347578D01*
X174127259Y-88290275D01*
X174004720Y-88214597D01*
X173990196Y-88115634D01*
X174105915Y-88035806D01*
X174332000Y-88003000D01*
X174527478Y-88012587D01*
G37*
G36*
X169775723Y-110785370D02*
G01*
X169958883Y-110894568D01*
X170124226Y-111090301D01*
X170230099Y-111313381D01*
X170234844Y-111504616D01*
X170154377Y-111608022D01*
X170009087Y-111587736D01*
X169798485Y-111417182D01*
X169779833Y-111397769D01*
X169649591Y-111200397D01*
X169592994Y-110998642D01*
X169615787Y-110841592D01*
X169723715Y-110778333D01*
X169775723Y-110785370D01*
G37*
G36*
X174632128Y-91312989D02*
G01*
X174816684Y-91345041D01*
X174886046Y-91412060D01*
X174867442Y-91524944D01*
X174780285Y-91597417D01*
X174582508Y-91636440D01*
X174333058Y-91632902D01*
X174086870Y-91592251D01*
X173898873Y-91519940D01*
X173824000Y-91421417D01*
X173863350Y-91357834D01*
X174019322Y-91317217D01*
X174317889Y-91305000D01*
X174632128Y-91312989D01*
G37*
G36*
X195377047Y-114591212D02*
G01*
X195383732Y-114594873D01*
X195545137Y-114768853D01*
X195579739Y-115000412D01*
X195477500Y-115226101D01*
X195363772Y-115298567D01*
X195160000Y-115328361D01*
X195077203Y-115314396D01*
X194966782Y-115230942D01*
X194921755Y-115032197D01*
X194922398Y-114858375D01*
X195002077Y-114640484D01*
X195161297Y-114544001D01*
X195377047Y-114591212D01*
G37*
G36*
X170788211Y-110968687D02*
G01*
X170860667Y-111032333D01*
X170871654Y-111068012D01*
X170977930Y-111117000D01*
X171059168Y-111148044D01*
X171199851Y-111286613D01*
X171318648Y-111477978D01*
X171368667Y-111657299D01*
X171359337Y-111711313D01*
X171262834Y-111822080D01*
X171164684Y-111844000D01*
X170920035Y-111797072D01*
X170684564Y-111646756D01*
X170507315Y-111430789D01*
X170437334Y-111186908D01*
X170440767Y-111100526D01*
X170494498Y-110977339D01*
X170649000Y-110947667D01*
X170788211Y-110968687D01*
G37*
G36*
X195102360Y-82167165D02*
G01*
X195431020Y-82223375D01*
X195668000Y-82330333D01*
X195848401Y-82447725D01*
X195985500Y-82497784D01*
X196047053Y-82530677D01*
X196091334Y-82669000D01*
X196107210Y-82767421D01*
X196176000Y-82838333D01*
X196194979Y-82846969D01*
X196241889Y-82964926D01*
X196260667Y-83177000D01*
X196262473Y-83245868D01*
X196294268Y-83439770D01*
X196354943Y-83515667D01*
X196409788Y-83581228D01*
X196389807Y-83790833D01*
X196361355Y-83952888D01*
X196321005Y-84261168D01*
X196288307Y-84595167D01*
X196258980Y-84846395D01*
X196215014Y-85047304D01*
X196168776Y-85124333D01*
X196123794Y-85156040D01*
X196091334Y-85293667D01*
X196075457Y-85392087D01*
X196006667Y-85463000D01*
X195957457Y-85494753D01*
X195922000Y-85632333D01*
X195906124Y-85730754D01*
X195837334Y-85801667D01*
X195810481Y-85806671D01*
X195752667Y-85898166D01*
X195724356Y-85975745D01*
X195604500Y-86104658D01*
X195572465Y-86127296D01*
X195449897Y-86180162D01*
X195359745Y-86141267D01*
X195297822Y-85995176D01*
X195259938Y-85726451D01*
X195241908Y-85319655D01*
X195239542Y-84759352D01*
X195247371Y-83524372D01*
X194928519Y-83435825D01*
X194852766Y-83417260D01*
X194533782Y-83367148D01*
X194207500Y-83346805D01*
X193805334Y-83346333D01*
X193805334Y-83046151D01*
X193847873Y-82807691D01*
X194041387Y-82505513D01*
X194377746Y-82256506D01*
X194454370Y-82223260D01*
X194753113Y-82165771D01*
X195102360Y-82167165D01*
G37*
G36*
X172706628Y-85162212D02*
G01*
X172998064Y-85205691D01*
X173425640Y-85270354D01*
X173958774Y-85351817D01*
X174628334Y-85454778D01*
X174930554Y-85501033D01*
X175377212Y-85568642D01*
X175771334Y-85627551D01*
X175916183Y-85650705D01*
X176197323Y-85718330D01*
X176392887Y-85818549D01*
X176563195Y-85978063D01*
X176804723Y-86247133D01*
X177142696Y-86066733D01*
X177375842Y-85957181D01*
X177653277Y-85886253D01*
X177827545Y-85930825D01*
X177888000Y-86090558D01*
X177907693Y-86215055D01*
X178005312Y-86298413D01*
X178226667Y-86352000D01*
X178304479Y-86366244D01*
X178490815Y-86412019D01*
X178565334Y-86450156D01*
X178561111Y-86480076D01*
X178453889Y-86604241D01*
X178240398Y-86696723D01*
X177972077Y-86733000D01*
X177937187Y-86733256D01*
X177710243Y-86760753D01*
X177523869Y-86857643D01*
X177308434Y-87058031D01*
X177187493Y-87178415D01*
X176998387Y-87345760D01*
X176870572Y-87432347D01*
X176832821Y-87445450D01*
X176701934Y-87471565D01*
X176513636Y-87482647D01*
X176245748Y-87477965D01*
X175876094Y-87456784D01*
X175382497Y-87418371D01*
X174742779Y-87361994D01*
X174231070Y-87318156D01*
X173767080Y-87287043D01*
X173433726Y-87277640D01*
X173210903Y-87289462D01*
X173078506Y-87322029D01*
X172993253Y-87355914D01*
X172854041Y-87352267D01*
X172715722Y-87222201D01*
X172587498Y-87066931D01*
X172470903Y-86927073D01*
X172436743Y-86875822D01*
X172384667Y-86694240D01*
X172376486Y-86632700D01*
X172315803Y-86563667D01*
X172302468Y-86559389D01*
X172222362Y-86459070D01*
X172130667Y-86267333D01*
X172109991Y-86217171D01*
X172017885Y-86041842D01*
X171945531Y-85971000D01*
X171913973Y-85956788D01*
X171876667Y-85844000D01*
X171886219Y-85785576D01*
X171961334Y-85717000D01*
X172011643Y-85682450D01*
X172046000Y-85541619D01*
X172049181Y-85477852D01*
X172140934Y-85261693D01*
X172359873Y-85156599D01*
X172706628Y-85162212D01*
G37*
G36*
X193200112Y-84277746D02*
G01*
X193513256Y-84289937D01*
X193726542Y-84319672D01*
X193805334Y-84362333D01*
X193821062Y-84402457D01*
X193936182Y-84447000D01*
X193945984Y-84447521D01*
X194097651Y-84513024D01*
X194274849Y-84654818D01*
X194289588Y-84669885D01*
X194426437Y-84847977D01*
X194482667Y-84993485D01*
X194492845Y-85055494D01*
X194567334Y-85124333D01*
X194584209Y-85137150D01*
X194620046Y-85276768D01*
X194643556Y-85549274D01*
X194652000Y-85928667D01*
X194650651Y-86088977D01*
X194635955Y-86429432D01*
X194607270Y-86652774D01*
X194567334Y-86733000D01*
X194528587Y-86747098D01*
X194482667Y-86859356D01*
X194458499Y-86983771D01*
X194310689Y-87194054D01*
X194071564Y-87349590D01*
X193791364Y-87410333D01*
X193469263Y-87410333D01*
X193520032Y-86923500D01*
X193526850Y-86854700D01*
X193538676Y-86574989D01*
X193503165Y-86389741D01*
X193410793Y-86239298D01*
X193303062Y-86123333D01*
X193183837Y-86088829D01*
X192998892Y-86153644D01*
X192830497Y-86237620D01*
X192671323Y-86360028D01*
X192560724Y-86528974D01*
X192486050Y-86775154D01*
X192434654Y-87129264D01*
X192393889Y-87622000D01*
X192393239Y-87631249D01*
X192361766Y-87936922D01*
X192319263Y-88175166D01*
X192274739Y-88295100D01*
X192236809Y-88353500D01*
X192196667Y-88527933D01*
X192170131Y-88619839D01*
X192027334Y-88680333D01*
X191928913Y-88696210D01*
X191858000Y-88765000D01*
X191808039Y-88820047D01*
X191651331Y-88849667D01*
X191509041Y-88868794D01*
X191392334Y-88934333D01*
X191348324Y-88964916D01*
X191193313Y-89003068D01*
X190997123Y-89019806D01*
X190828786Y-89010986D01*
X190757334Y-88972462D01*
X190760943Y-88952642D01*
X190817403Y-88814858D01*
X190914602Y-88621152D01*
X191016512Y-88440448D01*
X191087099Y-88341667D01*
X191113221Y-88314379D01*
X191208121Y-88108285D01*
X191296115Y-87747113D01*
X191374910Y-87242084D01*
X191442211Y-86604419D01*
X191448280Y-86536032D01*
X191490438Y-86125554D01*
X191535298Y-85780561D01*
X191577866Y-85535520D01*
X191613147Y-85424900D01*
X191650523Y-85364613D01*
X191688667Y-85189244D01*
X191731341Y-85065002D01*
X191870534Y-84868296D01*
X192060915Y-84666984D01*
X192255051Y-84510181D01*
X192405512Y-84447000D01*
X192466563Y-84436988D01*
X192535334Y-84362333D01*
X192535928Y-84358363D01*
X192627360Y-84316610D01*
X192850374Y-84288172D01*
X193170334Y-84277667D01*
X193200112Y-84277746D01*
G37*
G36*
X175485293Y-89448139D02*
G01*
X176053881Y-89558664D01*
X176739201Y-89742747D01*
X176849316Y-89771647D01*
X177227735Y-89839169D01*
X177585868Y-89866598D01*
X177943742Y-89877016D01*
X178354199Y-89931460D01*
X178661651Y-90041192D01*
X178902838Y-90215959D01*
X178960601Y-90273344D01*
X179101586Y-90437338D01*
X179158000Y-90543736D01*
X179189748Y-90592515D01*
X179327334Y-90627667D01*
X179436799Y-90655496D01*
X179496667Y-90797000D01*
X179468838Y-90906465D01*
X179327334Y-90966333D01*
X179228913Y-90982210D01*
X179158000Y-91051000D01*
X179140518Y-91076303D01*
X179004220Y-91118850D01*
X178777000Y-91135667D01*
X178663138Y-91131782D01*
X178471675Y-91101493D01*
X178396000Y-91051000D01*
X178395981Y-91049946D01*
X178320342Y-90990857D01*
X178142000Y-90966333D01*
X178138840Y-90966327D01*
X177961573Y-90941114D01*
X177888000Y-90881667D01*
X177870518Y-90856364D01*
X177734220Y-90813816D01*
X177507000Y-90797000D01*
X177393138Y-90793115D01*
X177201675Y-90762826D01*
X177126000Y-90712333D01*
X177072041Y-90674097D01*
X176888590Y-90640520D01*
X176618000Y-90627667D01*
X176388583Y-90618673D01*
X176187120Y-90588098D01*
X176110000Y-90543000D01*
X176057389Y-90505113D01*
X175875543Y-90471300D01*
X175606997Y-90458333D01*
X175380930Y-90449692D01*
X175158253Y-90418968D01*
X175051667Y-90373667D01*
X174945866Y-90315099D01*
X174750337Y-90289000D01*
X174574791Y-90313765D01*
X174501334Y-90373667D01*
X174501314Y-90374720D01*
X174425676Y-90433809D01*
X174247334Y-90458333D01*
X174244174Y-90458340D01*
X174066906Y-90483553D01*
X173993334Y-90543000D01*
X173961581Y-90592210D01*
X173824000Y-90627667D01*
X173725580Y-90643543D01*
X173654667Y-90712333D01*
X173625175Y-90760581D01*
X173490331Y-90797000D01*
X173393087Y-90810541D01*
X173273667Y-90881667D01*
X173190553Y-90924010D01*
X173010082Y-90955596D01*
X172800268Y-90967311D01*
X172626459Y-90955862D01*
X172554000Y-90917952D01*
X172554486Y-90911147D01*
X172625285Y-90798971D01*
X172761956Y-90681821D01*
X172886620Y-90627667D01*
X172912115Y-90624241D01*
X172977334Y-90543000D01*
X172993062Y-90502876D01*
X173108182Y-90458333D01*
X173113231Y-90458195D01*
X173261607Y-90394928D01*
X173440639Y-90253550D01*
X173591327Y-90088490D01*
X173654667Y-89954182D01*
X173657735Y-89930608D01*
X173739334Y-89865667D01*
X173784723Y-89841981D01*
X173824000Y-89714706D01*
X173831925Y-89667417D01*
X173907724Y-89589603D01*
X174089531Y-89523627D01*
X174408635Y-89455622D01*
X174563445Y-89431148D01*
X174999720Y-89407019D01*
X175485293Y-89448139D01*
G37*
G36*
X185281300Y-85125924D02*
G01*
X185809369Y-85135311D01*
X186199448Y-85152648D01*
X186441128Y-85177392D01*
X186524000Y-85209000D01*
X186555753Y-85258210D01*
X186693334Y-85293667D01*
X186791899Y-85312307D01*
X186862667Y-85392747D01*
X186861023Y-85400809D01*
X186785939Y-85511541D01*
X186615483Y-85710142D01*
X186372416Y-85971143D01*
X186079500Y-86269074D01*
X186059168Y-86289273D01*
X185746246Y-86605132D01*
X185463736Y-86898844D01*
X185241935Y-87138409D01*
X185111142Y-87291827D01*
X185013373Y-87415381D01*
X184806497Y-87661185D01*
X184581975Y-87914944D01*
X184428689Y-88091156D01*
X184291044Y-88269554D01*
X184238000Y-88367809D01*
X184231844Y-88390013D01*
X184143599Y-88514426D01*
X183984000Y-88680333D01*
X183931525Y-88731874D01*
X183787733Y-88906498D01*
X183730000Y-89034278D01*
X183692040Y-89135044D01*
X183560667Y-89273000D01*
X183452528Y-89366668D01*
X183391334Y-89462839D01*
X183390452Y-89469713D01*
X183337121Y-89586168D01*
X183225291Y-89780283D01*
X183088646Y-89998100D01*
X182960866Y-90185659D01*
X182875635Y-90289000D01*
X182813152Y-90370387D01*
X182715223Y-90537667D01*
X182623207Y-90695492D01*
X182512048Y-90851947D01*
X182494648Y-90870543D01*
X182319719Y-90954801D01*
X182143200Y-90905132D01*
X182006742Y-90747211D01*
X181952000Y-90506714D01*
X181930328Y-90361636D01*
X181867334Y-90289000D01*
X181826631Y-90224590D01*
X181794729Y-90029270D01*
X181782667Y-89743663D01*
X181772276Y-89476284D01*
X181741699Y-89251783D01*
X181698000Y-89146000D01*
X181639317Y-89039478D01*
X181613334Y-88843521D01*
X181593519Y-88639390D01*
X181535785Y-88446351D01*
X181522851Y-88421227D01*
X181430513Y-88227737D01*
X181322595Y-87986994D01*
X181253556Y-87857716D01*
X181080580Y-87613571D01*
X180862691Y-87358538D01*
X180635366Y-87130039D01*
X180434082Y-86965497D01*
X180294316Y-86902333D01*
X180242087Y-86893887D01*
X180174000Y-86817667D01*
X180142248Y-86768456D01*
X180004667Y-86733000D01*
X179906552Y-86725531D01*
X179835334Y-86692895D01*
X179876018Y-86631914D01*
X180006321Y-86480125D01*
X180195167Y-86276783D01*
X180360127Y-86102450D01*
X180547975Y-85898845D01*
X180664172Y-85766555D01*
X180771618Y-85692373D01*
X180989206Y-85646078D01*
X181341505Y-85631843D01*
X181466340Y-85630708D01*
X182019355Y-85599309D01*
X182494831Y-85529194D01*
X182862621Y-85426144D01*
X183092578Y-85295943D01*
X183094514Y-85294128D01*
X183168633Y-85234869D01*
X183262436Y-85191225D01*
X183400863Y-85160828D01*
X183608854Y-85141309D01*
X183911351Y-85130299D01*
X184333294Y-85125430D01*
X184899624Y-85124333D01*
X185281300Y-85125924D01*
G37*
G36*
X179847702Y-91395165D02*
G01*
X179956429Y-91522700D01*
X180004667Y-91663019D01*
X180008543Y-91705042D01*
X180076056Y-91859566D01*
X180121847Y-91943095D01*
X180204764Y-92152638D01*
X180295603Y-92426833D01*
X180297886Y-92434320D01*
X180399997Y-92720707D01*
X180496054Y-92870447D01*
X180605214Y-92913667D01*
X180696113Y-92928460D01*
X180766667Y-92998333D01*
X180775108Y-93012339D01*
X180903097Y-93049536D01*
X181163548Y-93074119D01*
X181528667Y-93083000D01*
X181809570Y-93086053D01*
X182092231Y-93103041D01*
X182244905Y-93137914D01*
X182290667Y-93194035D01*
X182325904Y-93304474D01*
X182439417Y-93469202D01*
X182454082Y-93485812D01*
X182587765Y-93651256D01*
X182777412Y-93899555D01*
X182986971Y-94183667D01*
X183031668Y-94245234D01*
X183226683Y-94511245D01*
X183384072Y-94721949D01*
X183473221Y-94836260D01*
X183509313Y-94888499D01*
X183560667Y-95050402D01*
X183598754Y-95148347D01*
X183730000Y-95284333D01*
X183835453Y-95393332D01*
X183899334Y-95557024D01*
X183912571Y-95637652D01*
X183984000Y-95707667D01*
X184022950Y-95721995D01*
X184068667Y-95834667D01*
X184078219Y-95893090D01*
X184153334Y-95961667D01*
X184202544Y-95993419D01*
X184238000Y-96131000D01*
X184253877Y-96229421D01*
X184322667Y-96300333D01*
X184344811Y-96303240D01*
X184403069Y-96386468D01*
X184381551Y-96536288D01*
X184286381Y-96687381D01*
X184200966Y-96752045D01*
X184032381Y-96808333D01*
X183968318Y-96818864D01*
X183899334Y-96893000D01*
X183883719Y-96933032D01*
X183768794Y-96977667D01*
X183631474Y-97022996D01*
X183456495Y-97147000D01*
X183302251Y-97262647D01*
X183163702Y-97316333D01*
X183119993Y-97323209D01*
X183052667Y-97401000D01*
X183050214Y-97421231D01*
X182968196Y-97485667D01*
X182924462Y-97499686D01*
X182761889Y-97590539D01*
X182529500Y-97741421D01*
X182268972Y-97923688D01*
X182021980Y-98108696D01*
X181830202Y-98267801D01*
X181701332Y-98364703D01*
X181573727Y-98417000D01*
X181487368Y-98455609D01*
X181359334Y-98586333D01*
X181257930Y-98693141D01*
X181128976Y-98755667D01*
X181087750Y-98762076D01*
X181020667Y-98840333D01*
X181006339Y-98879282D01*
X180893667Y-98925000D01*
X180835244Y-98934552D01*
X180766667Y-99009667D01*
X180761808Y-99036218D01*
X180670765Y-99094333D01*
X180582025Y-99126375D01*
X180437932Y-99243202D01*
X180427204Y-99254447D01*
X180281035Y-99388043D01*
X180028484Y-99602631D01*
X179693640Y-99878342D01*
X179300587Y-100195310D01*
X178873413Y-100533667D01*
X178780626Y-100612125D01*
X178581245Y-100793649D01*
X178356763Y-101008115D01*
X178200982Y-101155178D01*
X177988606Y-101339542D01*
X177839114Y-101450040D01*
X177734683Y-101507919D01*
X177649120Y-101547092D01*
X177641977Y-101547114D01*
X177540919Y-101473459D01*
X177430170Y-101307222D01*
X177351821Y-101110249D01*
X177287896Y-100937600D01*
X177178018Y-100767113D01*
X177146873Y-100731653D01*
X177022724Y-100550304D01*
X176890182Y-100315306D01*
X176829545Y-100207245D01*
X176633281Y-99916746D01*
X176414704Y-99647901D01*
X176299033Y-99515939D01*
X176163019Y-99340081D01*
X176110000Y-99239808D01*
X176107454Y-99228835D01*
X176025687Y-99115335D01*
X175849309Y-98923716D01*
X175606202Y-98681153D01*
X175324249Y-98414820D01*
X175031332Y-98151892D01*
X174755334Y-97919542D01*
X174606533Y-97796333D01*
X174348078Y-97569340D01*
X174149865Y-97379833D01*
X174113081Y-97343003D01*
X173944475Y-97203481D01*
X173824000Y-97147000D01*
X173797248Y-97141269D01*
X173658018Y-97053340D01*
X173485334Y-96893000D01*
X173432533Y-96838776D01*
X173267089Y-96696184D01*
X173155031Y-96639000D01*
X173127498Y-96635192D01*
X173062000Y-96554333D01*
X173047672Y-96515384D01*
X172935000Y-96469667D01*
X172876577Y-96460114D01*
X172808000Y-96385000D01*
X172805564Y-96364782D01*
X172723978Y-96300333D01*
X172612419Y-96254430D01*
X172448811Y-96136131D01*
X172285185Y-95995673D01*
X172071862Y-95812772D01*
X171886056Y-95653614D01*
X172062375Y-95532474D01*
X172234010Y-95399720D01*
X172434832Y-95220833D01*
X172440915Y-95214963D01*
X172600514Y-95084365D01*
X172713780Y-95030333D01*
X172772686Y-94997878D01*
X172850334Y-94861000D01*
X172857162Y-94841068D01*
X172899846Y-94772930D01*
X172987311Y-94729303D01*
X173150688Y-94704805D01*
X173421109Y-94694054D01*
X173829706Y-94691667D01*
X174092377Y-94694365D01*
X174446149Y-94710070D01*
X174674403Y-94738058D01*
X174755334Y-94776333D01*
X174787087Y-94825544D01*
X174924667Y-94861000D01*
X175022920Y-94872965D01*
X175094000Y-94925052D01*
X175104194Y-94943840D01*
X175222664Y-95015444D01*
X175431334Y-95094385D01*
X175459212Y-95102326D01*
X175687864Y-95142219D01*
X176005574Y-95171831D01*
X176375495Y-95190830D01*
X176760781Y-95198883D01*
X177124588Y-95195658D01*
X177430068Y-95180825D01*
X177640376Y-95154049D01*
X177718667Y-95115000D01*
X177718687Y-95113946D01*
X177794325Y-95054857D01*
X177972667Y-95030333D01*
X177975827Y-95030327D01*
X178153095Y-95005114D01*
X178226667Y-94945667D01*
X178244092Y-94904240D01*
X178362031Y-94861000D01*
X178437155Y-94842636D01*
X178577119Y-94745357D01*
X178775341Y-94547785D01*
X179052167Y-94231360D01*
X179106347Y-94149437D01*
X179158000Y-93980570D01*
X179164525Y-93924755D01*
X179230892Y-93809944D01*
X179264305Y-93756258D01*
X179308690Y-93559776D01*
X179340271Y-93264390D01*
X179356341Y-92913135D01*
X179354196Y-92549049D01*
X179331131Y-92215167D01*
X179327536Y-92183302D01*
X179302895Y-91923541D01*
X179313231Y-91786894D01*
X179371887Y-91732203D01*
X179492206Y-91718307D01*
X179645880Y-91714224D01*
X179771834Y-91718307D01*
X179795160Y-91717597D01*
X179835839Y-91647574D01*
X179809701Y-91531709D01*
X179729500Y-91450647D01*
X179689623Y-91427973D01*
X179683135Y-91348845D01*
X179732470Y-91333162D01*
X179847702Y-91395165D01*
G37*
G36*
X184989867Y-80974679D02*
G01*
X184853615Y-81043654D01*
X184610407Y-81060333D01*
X184459826Y-81063653D01*
X184266182Y-81098606D01*
X184200305Y-81188821D01*
X184235487Y-81355315D01*
X184241936Y-81373618D01*
X184273997Y-81621819D01*
X184168241Y-81771933D01*
X183925745Y-81822333D01*
X183910590Y-81822195D01*
X183677553Y-81789424D01*
X183515224Y-81716500D01*
X183304674Y-81535764D01*
X183141346Y-81435361D01*
X182981045Y-81407067D01*
X182762528Y-81427356D01*
X182441726Y-81427147D01*
X182148472Y-81307077D01*
X181857403Y-81043897D01*
X181822699Y-81014264D01*
X181651214Y-80941853D01*
X181421404Y-80897138D01*
X181188667Y-80884425D01*
X181008400Y-80908023D01*
X180936000Y-80972240D01*
X180940814Y-80996910D01*
X181033074Y-81133812D01*
X181205256Y-81305517D01*
X181408056Y-81466897D01*
X181592167Y-81572822D01*
X181707824Y-81651260D01*
X181782667Y-81824098D01*
X181777677Y-81885832D01*
X181746578Y-81931810D01*
X181665514Y-81961101D01*
X181510629Y-81975921D01*
X181258068Y-81978482D01*
X180883977Y-81970997D01*
X180364500Y-81955680D01*
X180135645Y-81948344D01*
X179561909Y-81927916D01*
X178990766Y-81905111D01*
X178477776Y-81882220D01*
X178078500Y-81861530D01*
X177210667Y-81811087D01*
X177210667Y-81567707D01*
X177233782Y-81386731D01*
X177295334Y-81272000D01*
X177349569Y-81188901D01*
X177380000Y-81007437D01*
X177350181Y-80765870D01*
X177206950Y-80472847D01*
X176976476Y-80281708D01*
X176693600Y-80207260D01*
X176393162Y-80264310D01*
X176110000Y-80467667D01*
X176056391Y-80523066D01*
X175897175Y-80664851D01*
X175795663Y-80721667D01*
X175704965Y-80758551D01*
X175554465Y-80871996D01*
X175511004Y-80906877D01*
X175294175Y-81031858D01*
X175030500Y-81139547D01*
X175004077Y-81148365D01*
X174754598Y-81268844D01*
X174670667Y-81402185D01*
X174656554Y-81483123D01*
X174554399Y-81644094D01*
X174538657Y-81655824D01*
X174383091Y-81696500D01*
X174231102Y-81656117D01*
X174162667Y-81553227D01*
X174139490Y-81483165D01*
X174035667Y-81344571D01*
X174002545Y-81312592D01*
X173897469Y-81260848D01*
X173781667Y-81344571D01*
X173710268Y-81436412D01*
X173654667Y-81588938D01*
X173645888Y-81621705D01*
X173531821Y-81738182D01*
X173330560Y-81858837D01*
X173099189Y-81953417D01*
X172894791Y-81991667D01*
X172800621Y-82004785D01*
X172681000Y-82076333D01*
X172661582Y-82099489D01*
X172509250Y-82155309D01*
X172309458Y-82141042D01*
X172147600Y-82059400D01*
X172114948Y-82012738D01*
X172063695Y-81842830D01*
X172048106Y-81640081D01*
X172069869Y-81470226D01*
X172130667Y-81399000D01*
X172202400Y-81342246D01*
X172210693Y-81189722D01*
X172155733Y-80998450D01*
X172046000Y-80825838D01*
X171930987Y-80667441D01*
X171876667Y-80513540D01*
X171866540Y-80451819D01*
X171792000Y-80383000D01*
X171742790Y-80351247D01*
X171707334Y-80213667D01*
X171691457Y-80115246D01*
X171622667Y-80044333D01*
X171584539Y-80030918D01*
X171538000Y-79919908D01*
X171534951Y-79890983D01*
X171503655Y-79796410D01*
X181550365Y-79796410D01*
X181577589Y-79998106D01*
X181594865Y-80060080D01*
X181643667Y-80145903D01*
X181744260Y-80191829D01*
X181935817Y-80210277D01*
X182257512Y-80213667D01*
X182280812Y-80213717D01*
X182592054Y-80225713D01*
X182804641Y-80255508D01*
X182883334Y-80298333D01*
X182893412Y-80332975D01*
X182997777Y-80383000D01*
X183033791Y-80390710D01*
X183188984Y-80479933D01*
X183378006Y-80637000D01*
X183604077Y-80822753D01*
X183784780Y-80905193D01*
X183877593Y-80871634D01*
X183873597Y-80742073D01*
X183763873Y-80536509D01*
X183539500Y-80274938D01*
X183277477Y-80036079D01*
X182965923Y-79833595D01*
X182615458Y-79713906D01*
X182161740Y-79647724D01*
X182088225Y-79641261D01*
X181781150Y-79632703D01*
X181610041Y-79679514D01*
X181550365Y-79796410D01*
X171503655Y-79796410D01*
X171476991Y-79715837D01*
X171368667Y-79494000D01*
X171274362Y-79313417D01*
X171212232Y-79112141D01*
X171224067Y-78899894D01*
X171304615Y-78603666D01*
X171305846Y-78599740D01*
X171421473Y-78349517D01*
X171558615Y-78266333D01*
X171637422Y-78253381D01*
X171707334Y-78181667D01*
X171711615Y-78162062D01*
X171807775Y-78108360D01*
X171976178Y-78100556D01*
X172144368Y-78135039D01*
X172239888Y-78208199D01*
X172257136Y-78336445D01*
X172239077Y-78546866D01*
X172230537Y-78592641D01*
X172225245Y-78697553D01*
X172281384Y-78751507D01*
X172434923Y-78771451D01*
X172721828Y-78774333D01*
X172969102Y-78769648D01*
X173182659Y-78739263D01*
X173334595Y-78662858D01*
X173485334Y-78520333D01*
X173555866Y-78448107D01*
X173760751Y-78296855D01*
X173926253Y-78293929D01*
X174078000Y-78435667D01*
X174176195Y-78530245D01*
X174353722Y-78588858D01*
X174647025Y-78605000D01*
X174716772Y-78605364D01*
X174952061Y-78619884D01*
X175065404Y-78664911D01*
X175095297Y-78753167D01*
X175103642Y-78829843D01*
X175174457Y-79024420D01*
X175223131Y-79084865D01*
X175316827Y-79100157D01*
X175490661Y-79024420D01*
X175605125Y-78961797D01*
X175856627Y-78774894D01*
X175940667Y-78605000D01*
X175998520Y-78456372D01*
X176171440Y-78321275D01*
X176400286Y-78266333D01*
X176545364Y-78288006D01*
X176618000Y-78351000D01*
X176635483Y-78376303D01*
X176771781Y-78418850D01*
X176999000Y-78435667D01*
X177170039Y-78425045D01*
X177354105Y-78355955D01*
X177382822Y-78226818D01*
X177253000Y-78042571D01*
X177169874Y-77945819D01*
X177140122Y-77801264D01*
X177259048Y-77637381D01*
X177261183Y-77635277D01*
X177449826Y-77542521D01*
X177714237Y-77507782D01*
X177976745Y-77532665D01*
X178159679Y-77618773D01*
X178201512Y-77651462D01*
X178325698Y-77704845D01*
X178526860Y-77751665D01*
X178823451Y-77794341D01*
X179233925Y-77835294D01*
X179776735Y-77876942D01*
X180470334Y-77921704D01*
X180550460Y-77926482D01*
X181268617Y-77958469D01*
X181832040Y-77960573D01*
X182251718Y-77932100D01*
X182538637Y-77872355D01*
X182703785Y-77780644D01*
X182929211Y-77587514D01*
X183218563Y-77456548D01*
X183530127Y-77458626D01*
X183777184Y-77532108D01*
X183989912Y-77669989D01*
X184068667Y-77836952D01*
X184072092Y-77862448D01*
X184153334Y-77927667D01*
X184183832Y-77956235D01*
X184222771Y-78109512D01*
X184238000Y-78351000D01*
X184243714Y-78503491D01*
X184274370Y-78698186D01*
X184322667Y-78774333D01*
X184363435Y-78790881D01*
X184407334Y-78907381D01*
X184420391Y-78984959D01*
X184513167Y-79151933D01*
X184628371Y-79277132D01*
X184958587Y-79709460D01*
X185138518Y-80102918D01*
X185174052Y-80475371D01*
X185071077Y-80844683D01*
X185054240Y-80871634D01*
X184989867Y-80974679D01*
G37*
G36*
X187496317Y-69398312D02*
G01*
X187899710Y-69421264D01*
X188297579Y-69454990D01*
X188655100Y-69497980D01*
X188937447Y-69548725D01*
X189197999Y-69611320D01*
X189788082Y-69768185D01*
X190330991Y-69932403D01*
X190786909Y-70091468D01*
X191116018Y-70232878D01*
X191206964Y-70270324D01*
X191391185Y-70307666D01*
X191450678Y-70317406D01*
X191519334Y-70392333D01*
X191551087Y-70441544D01*
X191688667Y-70477000D01*
X191787088Y-70492876D01*
X191858000Y-70561667D01*
X191889753Y-70610877D01*
X192027334Y-70646333D01*
X192125755Y-70662210D01*
X192196667Y-70731000D01*
X192228420Y-70780210D01*
X192366000Y-70815667D01*
X192464337Y-70829707D01*
X192535334Y-70890686D01*
X192537833Y-70901977D01*
X192628954Y-70991783D01*
X192810500Y-71097500D01*
X192846100Y-71114825D01*
X193113810Y-71267095D01*
X193393380Y-71472692D01*
X193735206Y-71768167D01*
X193792513Y-71818422D01*
X193962376Y-71948754D01*
X194066922Y-72001000D01*
X194088968Y-72009404D01*
X194215694Y-72106782D01*
X194419054Y-72291456D01*
X194671628Y-72535953D01*
X194945997Y-72812801D01*
X195214739Y-73094527D01*
X195450436Y-73353660D01*
X195625667Y-73562726D01*
X195695833Y-73651411D01*
X195898821Y-73894940D01*
X196070167Y-74084488D01*
X196072876Y-74087269D01*
X196205599Y-74256462D01*
X196260667Y-74391460D01*
X196298747Y-74489568D01*
X196430000Y-74625667D01*
X196535676Y-74733432D01*
X196599334Y-74891302D01*
X196609107Y-74966052D01*
X196673481Y-75063111D01*
X196691878Y-75076738D01*
X196787557Y-75205549D01*
X196926524Y-75434752D01*
X197087635Y-75724321D01*
X197249747Y-76034234D01*
X197391719Y-76324466D01*
X197492406Y-76554994D01*
X197530667Y-76685792D01*
X197542480Y-76757512D01*
X197615334Y-76827000D01*
X197663581Y-76856492D01*
X197700000Y-76991336D01*
X197713542Y-77088580D01*
X197784667Y-77208000D01*
X197843235Y-77313801D01*
X197869334Y-77509330D01*
X197894099Y-77684876D01*
X197954000Y-77758333D01*
X197972979Y-77766969D01*
X198019889Y-77884926D01*
X198038667Y-78097000D01*
X198040826Y-78172915D01*
X198070315Y-78360554D01*
X198123334Y-78435667D01*
X198146262Y-78449316D01*
X198190451Y-78578458D01*
X198208000Y-78799733D01*
X198210740Y-78886170D01*
X198246379Y-79122085D01*
X198310064Y-79265863D01*
X198334882Y-79337705D01*
X198362517Y-79558810D01*
X198383801Y-79894379D01*
X198398669Y-80313106D01*
X198407057Y-80783685D01*
X198408899Y-81274807D01*
X198404131Y-81755168D01*
X198392688Y-82193461D01*
X198374506Y-82558378D01*
X198349519Y-82818614D01*
X198317664Y-82942861D01*
X198284460Y-83019685D01*
X198240456Y-83236215D01*
X198214821Y-83515667D01*
X198199945Y-83706238D01*
X198162934Y-83916404D01*
X198116608Y-84009555D01*
X198095031Y-84032035D01*
X198054677Y-84179556D01*
X198038667Y-84411722D01*
X198035081Y-84519207D01*
X198004890Y-84710079D01*
X197954000Y-84785667D01*
X197935860Y-84793429D01*
X197888374Y-84909116D01*
X197869334Y-85119336D01*
X197867787Y-85183752D01*
X197838786Y-85394322D01*
X197784667Y-85505333D01*
X197731053Y-85585752D01*
X197700000Y-85765479D01*
X197685448Y-85917618D01*
X197625858Y-86120315D01*
X197602180Y-86173978D01*
X197523163Y-86379887D01*
X197415549Y-86679863D01*
X197295534Y-87029333D01*
X197274648Y-87091390D01*
X197074365Y-87677421D01*
X196917937Y-88115256D01*
X196800469Y-88417560D01*
X196717066Y-88596994D01*
X196662834Y-88666222D01*
X196628026Y-88708426D01*
X196599334Y-88856722D01*
X196584425Y-88948407D01*
X196514667Y-89019000D01*
X196465457Y-89050753D01*
X196430000Y-89188333D01*
X196414124Y-89286754D01*
X196345334Y-89357667D01*
X196289650Y-89410218D01*
X196260667Y-89569333D01*
X196239646Y-89708544D01*
X196176000Y-89781000D01*
X196126790Y-89812753D01*
X196091334Y-89950333D01*
X196075457Y-90048754D01*
X196006667Y-90119667D01*
X195957457Y-90151419D01*
X195922000Y-90289000D01*
X195906124Y-90387421D01*
X195837334Y-90458333D01*
X195797292Y-90473960D01*
X195752667Y-90588907D01*
X195745551Y-90649104D01*
X195666335Y-90821740D01*
X195626067Y-90874398D01*
X195499854Y-91060816D01*
X195332602Y-91323224D01*
X195146347Y-91625175D01*
X194963123Y-91930222D01*
X194804968Y-92201918D01*
X194693915Y-92403816D01*
X194652000Y-92499468D01*
X194651034Y-92511603D01*
X194577606Y-92575000D01*
X194573249Y-92575401D01*
X194490796Y-92654419D01*
X194398000Y-92829000D01*
X194391957Y-92843307D01*
X194298494Y-93013071D01*
X194218395Y-93083000D01*
X194184259Y-93097250D01*
X194144000Y-93210000D01*
X194112571Y-93284060D01*
X193974667Y-93337000D01*
X193875855Y-93314317D01*
X193805334Y-93217096D01*
X193804971Y-93210512D01*
X193726154Y-93095263D01*
X193551334Y-92984762D01*
X193534610Y-92977221D01*
X193366478Y-92882716D01*
X193297334Y-92808332D01*
X193283153Y-92779033D01*
X193170334Y-92744333D01*
X193111910Y-92734781D01*
X193043334Y-92659667D01*
X193011581Y-92610456D01*
X192874000Y-92575000D01*
X192775580Y-92559123D01*
X192704667Y-92490333D01*
X192704648Y-92489280D01*
X192629009Y-92430191D01*
X192450667Y-92405667D01*
X192447642Y-92405661D01*
X192270284Y-92383669D01*
X192196667Y-92331772D01*
X192173659Y-92304210D01*
X192028673Y-92250006D01*
X191794500Y-92205728D01*
X191713966Y-92195028D01*
X191350012Y-92142695D01*
X191011334Y-92089123D01*
X190630334Y-92024667D01*
X190605743Y-91326167D01*
X190593338Y-91018700D01*
X190573733Y-90796632D01*
X190537203Y-90680099D01*
X190472121Y-90635109D01*
X190366862Y-90627667D01*
X190340592Y-90626591D01*
X190148693Y-90572399D01*
X189981911Y-90466865D01*
X189910667Y-90352473D01*
X189921869Y-90339524D01*
X190045998Y-90270447D01*
X190278555Y-90162317D01*
X190583301Y-90030016D01*
X190923996Y-89888423D01*
X191264403Y-89752419D01*
X191568282Y-89636887D01*
X191799394Y-89556705D01*
X191921500Y-89526757D01*
X191960204Y-89522015D01*
X192027334Y-89457638D01*
X192058341Y-89423207D01*
X192211854Y-89350203D01*
X192450667Y-89273000D01*
X192609281Y-89224727D01*
X192799708Y-89147720D01*
X192874000Y-89088361D01*
X192903398Y-89048893D01*
X193038337Y-89019000D01*
X193135581Y-89005459D01*
X193255000Y-88934333D01*
X193309582Y-88888545D01*
X193471664Y-88849667D01*
X193565312Y-88834472D01*
X193636000Y-88765000D01*
X193659553Y-88719684D01*
X193786643Y-88680333D01*
X193907186Y-88643247D01*
X194059334Y-88511000D01*
X194168333Y-88405547D01*
X194332025Y-88341667D01*
X194412466Y-88331336D01*
X194482667Y-88275255D01*
X194486407Y-88262176D01*
X194579286Y-88168850D01*
X194757834Y-88049430D01*
X194807218Y-88018369D01*
X195017392Y-87856685D01*
X195275452Y-87628193D01*
X195552159Y-87362590D01*
X195818272Y-87089574D01*
X196044555Y-86838843D01*
X196201766Y-86640094D01*
X196260667Y-86523025D01*
X196268777Y-86463226D01*
X196331027Y-86394333D01*
X196332305Y-86394325D01*
X196374244Y-86379898D01*
X196424317Y-86319523D01*
X196497517Y-86185928D01*
X196608839Y-85951844D01*
X196773278Y-85590000D01*
X196815542Y-85491644D01*
X196890864Y-85266392D01*
X196937132Y-85013323D01*
X196961183Y-84685336D01*
X196969850Y-84235333D01*
X196969356Y-83871431D01*
X196956924Y-83546778D01*
X196925478Y-83311385D01*
X196868619Y-83121356D01*
X196779947Y-82932797D01*
X196625950Y-82670769D01*
X196313139Y-82300956D01*
X195925797Y-82035963D01*
X195618493Y-81895367D01*
X194923502Y-81704180D01*
X194182106Y-81669105D01*
X193382000Y-81788947D01*
X193103044Y-81853826D01*
X192803788Y-81921246D01*
X192598834Y-81964916D01*
X192438746Y-82017204D01*
X192366000Y-82085943D01*
X192334308Y-82129531D01*
X192196667Y-82161000D01*
X192098246Y-82176876D01*
X192027334Y-82245667D01*
X192027314Y-82246720D01*
X191951676Y-82305809D01*
X191773334Y-82330333D01*
X191770174Y-82330340D01*
X191592906Y-82355553D01*
X191519334Y-82415000D01*
X191505006Y-82453949D01*
X191392334Y-82499667D01*
X191333910Y-82509219D01*
X191265334Y-82584333D01*
X191251006Y-82623282D01*
X191138334Y-82669000D01*
X191079910Y-82678552D01*
X191011334Y-82753667D01*
X191006475Y-82780218D01*
X190915432Y-82838333D01*
X190808018Y-82887099D01*
X190661432Y-83020621D01*
X190503334Y-83202909D01*
X190345236Y-83020621D01*
X190209723Y-82897198D01*
X190080000Y-82838333D01*
X189983283Y-82804591D01*
X189835932Y-82684290D01*
X189724833Y-82581350D01*
X189529667Y-82457727D01*
X189446027Y-82420238D01*
X189418145Y-82382166D01*
X189550834Y-82351882D01*
X189674906Y-82320416D01*
X189726827Y-82264389D01*
X189673515Y-82168675D01*
X189503566Y-82014482D01*
X189205573Y-81783019D01*
X189104823Y-81705071D01*
X188961571Y-81565312D01*
X188916132Y-81429574D01*
X188938164Y-81235755D01*
X188988050Y-81021201D01*
X189078741Y-80697061D01*
X189190443Y-80333851D01*
X189306921Y-79982222D01*
X189411940Y-79692827D01*
X189489266Y-79516315D01*
X189521375Y-79425847D01*
X189554852Y-79211617D01*
X189569483Y-78952146D01*
X189564904Y-78700772D01*
X189540751Y-78510833D01*
X189496658Y-78435667D01*
X189463489Y-78416423D01*
X189365228Y-78285560D01*
X189250257Y-78071755D01*
X189203270Y-77978091D01*
X189016327Y-77678923D01*
X188803926Y-77418788D01*
X188599721Y-77235199D01*
X188437365Y-77165667D01*
X188371133Y-77154768D01*
X188302000Y-77081000D01*
X188270248Y-77031789D01*
X188132667Y-76996333D01*
X188088956Y-76993713D01*
X187989944Y-76928253D01*
X187963334Y-76742333D01*
X187963334Y-76738449D01*
X187971633Y-76594922D01*
X188024224Y-76520550D01*
X188162786Y-76492598D01*
X188429000Y-76488333D01*
X188620643Y-76495880D01*
X188818115Y-76526633D01*
X188894667Y-76573000D01*
X188947219Y-76628684D01*
X189106334Y-76657667D01*
X189245544Y-76678687D01*
X189318000Y-76742333D01*
X189370552Y-76798017D01*
X189529667Y-76827000D01*
X189668878Y-76848021D01*
X189741334Y-76911667D01*
X189744241Y-76933810D01*
X189827469Y-76992069D01*
X189977289Y-76970551D01*
X190128381Y-76875381D01*
X190153389Y-76847738D01*
X190234087Y-76691616D01*
X190239887Y-76550041D01*
X190164667Y-76488333D01*
X190121690Y-76468671D01*
X190080000Y-76347222D01*
X190072436Y-76279112D01*
X190031823Y-76254289D01*
X190017387Y-76255704D01*
X189906125Y-76188976D01*
X189717099Y-76035070D01*
X189481489Y-75818668D01*
X189284747Y-75626434D01*
X189113494Y-75438508D01*
X189022234Y-75285731D01*
X188985877Y-75122329D01*
X188979334Y-74902526D01*
X188982247Y-74751757D01*
X189000770Y-74495912D01*
X189030726Y-74336258D01*
X189076793Y-74273248D01*
X189208009Y-74210547D01*
X189341546Y-74211831D01*
X189402667Y-74287000D01*
X189422745Y-74337835D01*
X189537586Y-74370472D01*
X189697549Y-74331990D01*
X189836800Y-74230898D01*
X189837206Y-74230406D01*
X189906903Y-74111842D01*
X189847167Y-74054509D01*
X189773229Y-73957844D01*
X189741334Y-73768096D01*
X189700332Y-73565421D01*
X189528049Y-73304018D01*
X189500161Y-73274996D01*
X189384851Y-73117302D01*
X189363712Y-73011533D01*
X189370063Y-73002759D01*
X189492786Y-72945641D01*
X189674896Y-72934907D01*
X189841411Y-72966952D01*
X189917351Y-73038167D01*
X189928345Y-73099810D01*
X189966488Y-73038922D01*
X190022365Y-72981469D01*
X190129137Y-73054041D01*
X190196609Y-73130718D01*
X190249334Y-73227264D01*
X190250693Y-73233370D01*
X190308437Y-73340153D01*
X190431918Y-73538537D01*
X190594453Y-73788097D01*
X190769359Y-74048408D01*
X190929953Y-74279045D01*
X191049550Y-74439582D01*
X191285918Y-74716736D01*
X191540596Y-74978483D01*
X191750131Y-75154141D01*
X191887224Y-75218333D01*
X191957776Y-75228412D01*
X192027334Y-75291933D01*
X192027859Y-75296940D01*
X192113154Y-75379445D01*
X192312744Y-75487080D01*
X192581187Y-75601950D01*
X192873046Y-75706158D01*
X193142879Y-75781807D01*
X193345248Y-75811000D01*
X193412813Y-75809666D01*
X193575443Y-75782708D01*
X193646235Y-75709910D01*
X193619446Y-75576655D01*
X193489333Y-75368329D01*
X193250155Y-75070316D01*
X192896169Y-74668000D01*
X192868377Y-74636200D01*
X192708149Y-74435401D01*
X192537754Y-74202333D01*
X192498730Y-74147516D01*
X192326225Y-73927299D01*
X192179517Y-73769069D01*
X192083404Y-73669107D01*
X192027334Y-73572521D01*
X192004359Y-73488339D01*
X191837582Y-73347823D01*
X191507389Y-73228042D01*
X191011334Y-73127926D01*
X190986550Y-73123857D01*
X190765499Y-73071168D01*
X190626240Y-73010768D01*
X190612913Y-73001877D01*
X190454645Y-72950813D01*
X190224073Y-72918830D01*
X190170737Y-72914256D01*
X189985501Y-72878964D01*
X189910667Y-72830362D01*
X189910650Y-72829579D01*
X189835078Y-72782530D01*
X189656667Y-72763000D01*
X189653507Y-72762993D01*
X189476240Y-72737780D01*
X189402667Y-72678333D01*
X189350115Y-72622649D01*
X189191000Y-72593667D01*
X189051790Y-72572646D01*
X188979334Y-72509000D01*
X188963605Y-72468876D01*
X188848485Y-72424333D01*
X188692232Y-72381009D01*
X188498864Y-72210570D01*
X188357073Y-71956044D01*
X188302000Y-71666182D01*
X188299693Y-71586850D01*
X188270107Y-71398834D01*
X188217334Y-71323667D01*
X188168123Y-71291914D01*
X188132667Y-71154333D01*
X188149499Y-71055865D01*
X188222331Y-70985000D01*
X188252954Y-70978352D01*
X188259667Y-70900333D01*
X188151449Y-70841383D01*
X187954489Y-70815667D01*
X187752064Y-70775519D01*
X187484839Y-70598869D01*
X187450836Y-70564239D01*
X187331125Y-70427862D01*
X187298187Y-70362669D01*
X187316592Y-70352222D01*
X187446729Y-70283342D01*
X187651731Y-70177301D01*
X187719068Y-70142402D01*
X187868954Y-70054605D01*
X187883954Y-70009901D01*
X187778731Y-69986229D01*
X187649151Y-69963323D01*
X187361283Y-69883465D01*
X187060889Y-69772627D01*
X186791914Y-69649796D01*
X186598303Y-69533959D01*
X186524000Y-69444102D01*
X186601245Y-69409192D01*
X186812260Y-69390766D01*
X187122226Y-69387642D01*
X187496317Y-69398312D01*
G37*
G36*
X207435689Y-112829176D02*
G01*
X207357706Y-112895000D01*
X207301013Y-112927502D01*
X207225000Y-113064333D01*
X207163138Y-113162697D01*
X207007628Y-113233667D01*
X206953410Y-113237562D01*
X206850547Y-113308768D01*
X206878710Y-113458640D01*
X207031874Y-113672878D01*
X207304015Y-113937185D01*
X207325929Y-113956051D01*
X207555782Y-114147352D01*
X207732241Y-114282874D01*
X207818653Y-114334333D01*
X207869069Y-114363710D01*
X208010621Y-114486718D01*
X208198667Y-114673000D01*
X208336465Y-114808443D01*
X208510255Y-114954811D01*
X208615363Y-115011667D01*
X208641377Y-115015189D01*
X208706667Y-115096333D01*
X208709874Y-115118881D01*
X208795182Y-115181000D01*
X208797489Y-115181061D01*
X208917302Y-115238565D01*
X209078513Y-115371500D01*
X209137966Y-115427538D01*
X209357264Y-115619001D01*
X209599789Y-115816000D01*
X209738883Y-115929326D01*
X210021281Y-116177427D01*
X210287898Y-116429833D01*
X210458628Y-116587933D01*
X210646896Y-116733506D01*
X210765182Y-116789667D01*
X210821534Y-116809926D01*
X210939326Y-116941749D01*
X211036752Y-117141361D01*
X211077334Y-117343984D01*
X211073967Y-117371059D01*
X210983725Y-117453029D01*
X210815228Y-117464978D01*
X210628776Y-117411620D01*
X210484667Y-117297667D01*
X210381725Y-117191130D01*
X210245945Y-117128333D01*
X210216714Y-117122845D01*
X210068703Y-117035106D01*
X209892000Y-116874333D01*
X209839200Y-116820110D01*
X209673755Y-116677517D01*
X209561698Y-116620333D01*
X209534165Y-116616525D01*
X209468667Y-116535667D01*
X209456790Y-116499041D01*
X209348723Y-116451000D01*
X209298001Y-116445465D01*
X209200556Y-116386050D01*
X209137395Y-116315497D01*
X208974466Y-116168719D01*
X208751605Y-115983884D01*
X208557650Y-115825428D01*
X208288439Y-115597281D01*
X208082881Y-115413833D01*
X208032612Y-115368369D01*
X207857406Y-115234751D01*
X207739134Y-115181000D01*
X207650745Y-115142482D01*
X207521334Y-115011667D01*
X207423438Y-114904248D01*
X207309667Y-114842333D01*
X207224936Y-114803650D01*
X207098000Y-114673000D01*
X207000699Y-114565158D01*
X206888810Y-114501702D01*
X206820657Y-114474309D01*
X206626623Y-114338041D01*
X206332035Y-114095192D01*
X205947704Y-113754348D01*
X205857671Y-113691037D01*
X205673738Y-113624474D01*
X205390929Y-113577162D01*
X204974037Y-113541402D01*
X204686981Y-113521502D01*
X204129083Y-113473872D01*
X203724979Y-113423716D01*
X203463772Y-113369492D01*
X203334567Y-113309661D01*
X203219747Y-113258881D01*
X203017067Y-113233667D01*
X202853165Y-113210029D01*
X202780000Y-113149000D01*
X202779981Y-113147946D01*
X202704342Y-113088857D01*
X202526000Y-113064333D01*
X202522840Y-113064327D01*
X202345573Y-113039114D01*
X202272000Y-112979667D01*
X202271981Y-112978613D01*
X202196342Y-112919524D01*
X202018000Y-112895000D01*
X202014840Y-112894993D01*
X201837573Y-112869780D01*
X201764000Y-112810333D01*
X201749259Y-112771027D01*
X201635852Y-112725667D01*
X201551801Y-112715549D01*
X201360685Y-112650878D01*
X201187989Y-112569956D01*
X200959667Y-112471667D01*
X200742872Y-112378529D01*
X200558649Y-112292455D01*
X200383807Y-112231270D01*
X200222762Y-112226021D01*
X200155334Y-112287028D01*
X200124326Y-112321460D01*
X199970813Y-112394463D01*
X199732000Y-112471667D01*
X199573387Y-112519939D01*
X199382960Y-112596946D01*
X199308667Y-112656305D01*
X199277007Y-112696567D01*
X199139334Y-112725667D01*
X199040913Y-112741543D01*
X198970000Y-112810333D01*
X198938248Y-112859544D01*
X198800667Y-112895000D01*
X198702246Y-112910876D01*
X198631334Y-112979667D01*
X198627782Y-113003155D01*
X198541170Y-113064333D01*
X198537159Y-113064527D01*
X198415533Y-113132444D01*
X198228312Y-113297229D01*
X198009461Y-113522090D01*
X197792942Y-113770237D01*
X197612719Y-114004877D01*
X197502756Y-114189219D01*
X197430811Y-114357003D01*
X197305977Y-114664743D01*
X197233744Y-114885040D01*
X197200571Y-115064189D01*
X197192917Y-115248484D01*
X197203988Y-115405813D01*
X197260843Y-115714878D01*
X197353523Y-116056829D01*
X197467920Y-116391942D01*
X197589928Y-116680491D01*
X197705440Y-116882752D01*
X197800348Y-116959000D01*
X197831964Y-116973213D01*
X197869334Y-117086000D01*
X197878886Y-117144423D01*
X197954000Y-117213000D01*
X197975949Y-117216000D01*
X198038667Y-117300489D01*
X198083983Y-117400037D01*
X198239254Y-117578879D01*
X198469348Y-117793119D01*
X198736942Y-118012471D01*
X199004716Y-118206648D01*
X199235349Y-118345364D01*
X199391519Y-118398333D01*
X199413325Y-118401077D01*
X199478000Y-118483000D01*
X199478020Y-118484053D01*
X199553659Y-118543142D01*
X199732000Y-118567667D01*
X199735161Y-118567673D01*
X199912428Y-118592886D01*
X199986000Y-118652333D01*
X199990899Y-118663245D01*
X200107002Y-118701882D01*
X200355192Y-118727636D01*
X200705667Y-118737000D01*
X200798421Y-118736423D01*
X201126836Y-118722764D01*
X201345742Y-118693565D01*
X201425334Y-118652333D01*
X201438259Y-118614667D01*
X201548350Y-118567667D01*
X201649596Y-118555925D01*
X201858010Y-118481780D01*
X202030680Y-118370284D01*
X202102667Y-118257743D01*
X202109947Y-118211864D01*
X202187334Y-118144333D01*
X202226283Y-118130005D01*
X202272000Y-118017333D01*
X202262448Y-117958910D01*
X202187334Y-117890333D01*
X202131650Y-117837781D01*
X202102667Y-117678667D01*
X202081646Y-117539456D01*
X202018000Y-117467000D01*
X202016947Y-117466980D01*
X201957858Y-117391342D01*
X201933334Y-117213000D01*
X201938813Y-117098311D01*
X201995738Y-116985184D01*
X202151048Y-116959000D01*
X202311545Y-116983058D01*
X202468548Y-117064833D01*
X202554003Y-117178955D01*
X202687368Y-117493053D01*
X202758140Y-117861820D01*
X202756884Y-118219409D01*
X202674167Y-118499975D01*
X202491233Y-118758510D01*
X202251447Y-119003516D01*
X202009420Y-119178313D01*
X201809156Y-119245000D01*
X201667208Y-119266327D01*
X201594667Y-119329667D01*
X201589768Y-119340579D01*
X201473666Y-119379216D01*
X201225475Y-119404969D01*
X200875000Y-119414333D01*
X200782247Y-119413757D01*
X200453831Y-119400098D01*
X200234926Y-119370899D01*
X200155334Y-119329667D01*
X200155314Y-119328613D01*
X200079676Y-119269524D01*
X199901334Y-119245000D01*
X199898174Y-119244993D01*
X199720906Y-119219780D01*
X199647334Y-119160333D01*
X199594782Y-119104649D01*
X199435667Y-119075667D01*
X199296457Y-119054646D01*
X199224000Y-118991000D01*
X199192248Y-118941789D01*
X199054667Y-118906333D01*
X198956246Y-118890457D01*
X198885334Y-118821667D01*
X198853581Y-118772456D01*
X198716000Y-118737000D01*
X198617580Y-118721123D01*
X198546667Y-118652333D01*
X198539226Y-118621152D01*
X198440834Y-118566606D01*
X198391529Y-118555760D01*
X198201012Y-118444570D01*
X197927422Y-118226240D01*
X197588920Y-117917006D01*
X197203669Y-117533105D01*
X196789834Y-117090772D01*
X196782461Y-117082532D01*
X196652875Y-116899639D01*
X196599334Y-116750359D01*
X196589289Y-116689117D01*
X196514667Y-116620333D01*
X196459620Y-116570372D01*
X196430000Y-116413663D01*
X196410873Y-116271374D01*
X196345334Y-116154667D01*
X196339126Y-116149141D01*
X196299364Y-116024618D01*
X196271298Y-115783600D01*
X196260667Y-115472336D01*
X196260730Y-115446095D01*
X196272816Y-115133979D01*
X196302584Y-114921072D01*
X196345334Y-114842333D01*
X196398496Y-114800569D01*
X196431883Y-114651833D01*
X196479161Y-114461638D01*
X196599334Y-114249667D01*
X196601576Y-114246793D01*
X196717565Y-114075990D01*
X196766785Y-113960060D01*
X196775555Y-113934192D01*
X196875394Y-113801463D01*
X197059959Y-113603234D01*
X197295831Y-113370821D01*
X197549592Y-113135541D01*
X197787823Y-112928711D01*
X197977106Y-112781647D01*
X198084021Y-112725667D01*
X198139435Y-112718143D01*
X198208000Y-112654772D01*
X198217095Y-112638114D01*
X198332220Y-112548798D01*
X198551751Y-112414906D01*
X198840384Y-112258558D01*
X199472767Y-111933239D01*
X199468543Y-111930670D01*
X201381501Y-111930670D01*
X201402931Y-111976437D01*
X201458450Y-112038149D01*
X201527084Y-112093910D01*
X201744455Y-112206756D01*
X202017033Y-112302070D01*
X202176545Y-112350622D01*
X202367034Y-112427649D01*
X202441334Y-112486972D01*
X202493810Y-112532562D01*
X202653000Y-112556333D01*
X202792211Y-112577354D01*
X202864667Y-112641000D01*
X202867227Y-112652111D01*
X202965133Y-112704401D01*
X203161000Y-112725667D01*
X203199890Y-112726398D01*
X203382905Y-112754371D01*
X203457334Y-112810333D01*
X203474816Y-112835636D01*
X203611114Y-112878183D01*
X203838334Y-112895000D01*
X203952196Y-112898885D01*
X204143660Y-112929173D01*
X204219334Y-112979667D01*
X204219353Y-112980720D01*
X204294992Y-113039809D01*
X204473334Y-113064333D01*
X204666171Y-113032242D01*
X204727334Y-112926098D01*
X204706053Y-112848296D01*
X204592103Y-112682609D01*
X204433937Y-112535290D01*
X204293868Y-112471667D01*
X204257337Y-112456937D01*
X204121047Y-112354425D01*
X203939670Y-112186358D01*
X203664125Y-111922806D01*
X203658227Y-111918460D01*
X204873009Y-111918460D01*
X204912141Y-112001152D01*
X205077387Y-112138534D01*
X205129842Y-112179140D01*
X205384741Y-112393661D01*
X205628773Y-112619833D01*
X205712649Y-112697536D01*
X205901870Y-112838950D01*
X206036845Y-112895000D01*
X206097897Y-112905011D01*
X206117321Y-112926098D01*
X206166667Y-112979667D01*
X206169127Y-112999904D01*
X206251334Y-113064333D01*
X206271571Y-113061873D01*
X206336000Y-112979667D01*
X206363691Y-112932241D01*
X206496275Y-112895000D01*
X206661030Y-112834303D01*
X206745795Y-112673236D01*
X206732184Y-112462211D01*
X206611167Y-112251788D01*
X206512012Y-112165455D01*
X206228697Y-112010789D01*
X205875990Y-111889661D01*
X205507884Y-111814884D01*
X205178373Y-111799267D01*
X204941448Y-111855622D01*
X204873009Y-111918460D01*
X203658227Y-111918460D01*
X203432121Y-111751845D01*
X203205745Y-111671144D01*
X202930541Y-111661810D01*
X202552055Y-111704950D01*
X202083516Y-111770904D01*
X201745168Y-111820964D01*
X201530278Y-111859741D01*
X201416503Y-111894040D01*
X201381501Y-111930670D01*
X199468543Y-111930670D01*
X199219338Y-111779120D01*
X199201676Y-111768557D01*
X198995080Y-111666820D01*
X198840954Y-111625000D01*
X198784654Y-111617513D01*
X198716000Y-111555638D01*
X198684993Y-111521207D01*
X198531480Y-111448203D01*
X198292667Y-111371000D01*
X198134053Y-111322727D01*
X197943626Y-111245720D01*
X197869334Y-111186361D01*
X197837674Y-111146100D01*
X197700000Y-111117000D01*
X197601580Y-111101123D01*
X197530667Y-111032333D01*
X197498914Y-110983123D01*
X197361334Y-110947667D01*
X197262913Y-110931790D01*
X197192000Y-110863000D01*
X197160248Y-110813789D01*
X197022667Y-110778333D01*
X196924246Y-110762457D01*
X196853334Y-110693667D01*
X196839006Y-110654717D01*
X196726334Y-110609000D01*
X196667910Y-110599448D01*
X196599334Y-110524333D01*
X196567581Y-110475123D01*
X196430000Y-110439667D01*
X196331696Y-110426373D01*
X196260667Y-110368590D01*
X196202651Y-110293702D01*
X196045818Y-110199622D01*
X195921309Y-110138834D01*
X195785246Y-110054935D01*
X195630028Y-109932794D01*
X195421912Y-109745465D01*
X195127152Y-109466000D01*
X194820055Y-109138857D01*
X194600466Y-108819023D01*
X194513963Y-108556665D01*
X194567397Y-108365257D01*
X194688458Y-108272826D01*
X194902262Y-108251691D01*
X195093162Y-108369009D01*
X195113876Y-108393744D01*
X195606185Y-108939989D01*
X196082804Y-109374169D01*
X196594489Y-109737446D01*
X197192000Y-110070979D01*
X197407639Y-110185821D01*
X197600697Y-110302403D01*
X197685889Y-110373054D01*
X197728116Y-110409579D01*
X197876389Y-110439667D01*
X197968074Y-110454575D01*
X198038667Y-110524333D01*
X198091219Y-110580017D01*
X198250334Y-110609000D01*
X198389544Y-110630021D01*
X198462000Y-110693667D01*
X198493753Y-110742877D01*
X198631334Y-110778333D01*
X198729755Y-110794210D01*
X198800667Y-110863000D01*
X198832420Y-110912210D01*
X198970000Y-110947667D01*
X199068421Y-110963543D01*
X199139334Y-111032333D01*
X199171087Y-111081544D01*
X199308667Y-111117000D01*
X199407088Y-111132876D01*
X199478000Y-111201667D01*
X199493554Y-111241648D01*
X199608373Y-111286333D01*
X199652914Y-111292085D01*
X199842165Y-111353202D01*
X200078353Y-111459587D01*
X200282673Y-111551617D01*
X200486864Y-111587706D01*
X200709980Y-111544254D01*
X200991776Y-111458946D01*
X201283178Y-111371000D01*
X201442624Y-111336631D01*
X201752983Y-111300394D01*
X202087512Y-111286333D01*
X202332855Y-111280577D01*
X202533616Y-111262864D01*
X202610667Y-111237362D01*
X202589261Y-111195587D01*
X202474336Y-111063334D01*
X202298490Y-110889057D01*
X202105741Y-110713782D01*
X201940108Y-110578533D01*
X201845607Y-110524333D01*
X201842827Y-110524210D01*
X201733118Y-110465449D01*
X201577349Y-110331735D01*
X201513393Y-110271393D01*
X201291384Y-110081127D01*
X201044334Y-109887508D01*
X200953729Y-109818128D01*
X200692465Y-109600685D01*
X200481198Y-109402772D01*
X200444300Y-109365788D01*
X200275756Y-109226179D01*
X200155334Y-109169667D01*
X200128582Y-109163936D01*
X199989352Y-109076006D01*
X199816667Y-108915667D01*
X199763025Y-108860044D01*
X199605711Y-108717443D01*
X199507531Y-108659006D01*
X199504400Y-108658704D01*
X199406182Y-108589058D01*
X199274409Y-108435224D01*
X199178690Y-108259858D01*
X199188958Y-108085505D01*
X199351327Y-107979580D01*
X199662482Y-107946260D01*
X199853142Y-107958820D01*
X200088191Y-108037332D01*
X200320304Y-108221427D01*
X200407685Y-108301484D01*
X200579557Y-108438248D01*
X200684255Y-108492333D01*
X200707398Y-108498404D01*
X200834750Y-108586587D01*
X201002000Y-108746333D01*
X201056693Y-108803387D01*
X201207081Y-108944036D01*
X201293818Y-109000333D01*
X201297267Y-109000643D01*
X201396741Y-109059954D01*
X201550872Y-109190833D01*
X201760573Y-109378834D01*
X201991524Y-109573001D01*
X202046903Y-109617626D01*
X202544418Y-110023482D01*
X202984640Y-110391399D01*
X203341898Y-110699649D01*
X203590521Y-110926500D01*
X203592843Y-110928728D01*
X203769909Y-111061774D01*
X203919152Y-111117000D01*
X203981161Y-111127177D01*
X204050000Y-111201667D01*
X204057978Y-111215319D01*
X204184578Y-111252682D01*
X204443594Y-111277398D01*
X204807004Y-111286333D01*
X204966031Y-111288198D01*
X205282976Y-111304296D01*
X205513564Y-111333343D01*
X205616334Y-111371000D01*
X205697762Y-111424851D01*
X205878145Y-111455667D01*
X206024585Y-111477749D01*
X206319246Y-111582646D01*
X206651281Y-111747893D01*
X206964780Y-111944487D01*
X207203834Y-112143421D01*
X207282486Y-112242855D01*
X207387816Y-112452973D01*
X207442304Y-112665123D01*
X207441977Y-112673236D01*
X207435689Y-112829176D01*
G37*
G36*
X180851334Y-111286333D02*
G01*
X180966669Y-111390636D01*
X181161361Y-111455667D01*
X181283822Y-111472472D01*
X181401667Y-111540333D01*
X181504182Y-111598360D01*
X181697743Y-111625000D01*
X181708297Y-111625098D01*
X181948875Y-111650066D01*
X182292810Y-111710885D01*
X182684761Y-111795648D01*
X183069383Y-111892449D01*
X183391334Y-111989380D01*
X183514255Y-112042514D01*
X183764712Y-112201535D01*
X183998236Y-112401938D01*
X184170706Y-112603295D01*
X184238000Y-112765178D01*
X184232088Y-112808731D01*
X184143491Y-112886647D01*
X183989858Y-112865007D01*
X183824598Y-112746255D01*
X183768176Y-112690319D01*
X183413612Y-112474840D01*
X182925667Y-112346668D01*
X182903943Y-112343407D01*
X182579650Y-112294631D01*
X182269500Y-112247858D01*
X182247874Y-112244719D01*
X182028449Y-112237374D01*
X181952000Y-112293440D01*
X181961096Y-112330423D01*
X182063036Y-112387000D01*
X182188159Y-112432922D01*
X182355829Y-112556333D01*
X182505033Y-112672716D01*
X182625794Y-112725667D01*
X182649098Y-112728685D01*
X182714000Y-112810333D01*
X182716425Y-112830541D01*
X182797699Y-112895000D01*
X182898433Y-112932678D01*
X183058813Y-113043167D01*
X183247326Y-113201142D01*
X183461947Y-113381730D01*
X183484413Y-113400407D01*
X183650611Y-113522315D01*
X183755016Y-113572230D01*
X183758933Y-113572510D01*
X183867296Y-113631705D01*
X184026106Y-113762833D01*
X184054813Y-113789622D01*
X184225041Y-113943758D01*
X184340612Y-114038000D01*
X184384331Y-114073651D01*
X184583408Y-114218517D01*
X184873000Y-114417574D01*
X185064517Y-114553007D01*
X185244229Y-114693083D01*
X185324556Y-114773905D01*
X185346184Y-114801501D01*
X185472723Y-114842333D01*
X185524609Y-114850717D01*
X185592667Y-114927000D01*
X185597526Y-114953551D01*
X185688569Y-115011667D01*
X185777505Y-115043558D01*
X185922308Y-115159833D01*
X185978653Y-115214418D01*
X186160028Y-115354802D01*
X186349965Y-115471151D01*
X186480518Y-115519667D01*
X186509493Y-115463788D01*
X186524000Y-115301362D01*
X186523465Y-115284159D01*
X186431615Y-115045204D01*
X186185334Y-114757667D01*
X186049891Y-114619868D01*
X185903522Y-114446079D01*
X185846667Y-114340971D01*
X185843145Y-114314957D01*
X185762000Y-114249667D01*
X185738204Y-114245997D01*
X185677334Y-114158952D01*
X185663408Y-114099768D01*
X185571500Y-113959231D01*
X185490964Y-113871151D01*
X185325069Y-113681897D01*
X185127000Y-113450744D01*
X184990282Y-113292603D01*
X184699877Y-112968899D01*
X184428500Y-112679028D01*
X184266226Y-112501761D01*
X184123585Y-112322702D01*
X184068667Y-112219895D01*
X184065858Y-112197731D01*
X183984000Y-112133000D01*
X183945051Y-112118672D01*
X183899334Y-112006000D01*
X183889782Y-111947576D01*
X183814667Y-111879000D01*
X183758983Y-111826448D01*
X183747098Y-111761199D01*
X185344067Y-111761199D01*
X185369346Y-111976141D01*
X185423334Y-112090667D01*
X185476783Y-112170390D01*
X185508000Y-112349663D01*
X185528468Y-112484033D01*
X185592667Y-112556333D01*
X185637983Y-112579886D01*
X185677334Y-112706976D01*
X185714420Y-112827519D01*
X185846667Y-112979667D01*
X185953475Y-113081071D01*
X186016000Y-113210024D01*
X186022410Y-113251251D01*
X186100667Y-113318333D01*
X186122731Y-113321372D01*
X186185334Y-113406019D01*
X186238579Y-113496688D01*
X186388448Y-113673984D01*
X186604905Y-113906179D01*
X186857804Y-114163323D01*
X187117000Y-114415462D01*
X187352349Y-114632644D01*
X187533704Y-114784919D01*
X187630920Y-114842333D01*
X187656619Y-114848164D01*
X187792282Y-114936171D01*
X187963334Y-115096333D01*
X188013830Y-115147424D01*
X188195671Y-115292166D01*
X188335970Y-115350333D01*
X188402202Y-115361232D01*
X188471334Y-115435000D01*
X188473432Y-115454939D01*
X188545743Y-115519667D01*
X188649483Y-115559712D01*
X188853318Y-115666255D01*
X189112262Y-115816000D01*
X189372232Y-115960722D01*
X189609558Y-116070388D01*
X189757520Y-116112333D01*
X189840320Y-116122571D01*
X189910667Y-116176385D01*
X189943735Y-116213271D01*
X190093315Y-116287142D01*
X190310661Y-116364781D01*
X190537027Y-116426097D01*
X190713667Y-116451000D01*
X190773332Y-116460770D01*
X190842000Y-116535667D01*
X190895960Y-116573903D01*
X191079411Y-116607480D01*
X191350000Y-116620333D01*
X191411209Y-116620083D01*
X191680686Y-116606669D01*
X191818987Y-116567076D01*
X191858000Y-116493333D01*
X191867553Y-116434910D01*
X191942667Y-116366333D01*
X191967970Y-116348851D01*
X192010517Y-116212553D01*
X192027334Y-115985333D01*
X192023449Y-115871471D01*
X191993160Y-115680007D01*
X191942667Y-115604333D01*
X191886983Y-115551781D01*
X191858000Y-115392667D01*
X191836980Y-115253456D01*
X191773334Y-115181000D01*
X191724123Y-115149247D01*
X191688667Y-115011667D01*
X191672791Y-114913246D01*
X191604000Y-114842333D01*
X191554790Y-114810580D01*
X191519334Y-114673000D01*
X191507379Y-114574748D01*
X191455335Y-114503667D01*
X191379996Y-114435649D01*
X191287807Y-114270833D01*
X191275949Y-114247337D01*
X191156549Y-114078570D01*
X190955918Y-113841900D01*
X190701636Y-113565191D01*
X190421283Y-113276308D01*
X190142442Y-113003116D01*
X189892692Y-112773480D01*
X189699613Y-112615264D01*
X189590788Y-112556333D01*
X189501875Y-112519516D01*
X189350821Y-112408167D01*
X189253036Y-112330158D01*
X188997586Y-112157069D01*
X188679931Y-111965441D01*
X188340883Y-111777477D01*
X188021254Y-111615379D01*
X187761856Y-111501349D01*
X187603500Y-111457590D01*
X187525312Y-111443740D01*
X187455334Y-111371000D01*
X187389150Y-111312463D01*
X187218267Y-111286333D01*
X187038305Y-111264490D01*
X186896049Y-111201182D01*
X186852970Y-111174795D01*
X186661734Y-111129570D01*
X186383048Y-111105168D01*
X186068047Y-111101289D01*
X185767867Y-111117636D01*
X185533642Y-111153909D01*
X185416508Y-111209812D01*
X185381704Y-111296268D01*
X185348015Y-111512390D01*
X185344067Y-111761199D01*
X183747098Y-111761199D01*
X183730000Y-111667333D01*
X183731179Y-111622851D01*
X183782294Y-111489322D01*
X183945207Y-111455667D01*
X184134916Y-111499085D01*
X184343379Y-111626124D01*
X184465299Y-111719214D01*
X184559275Y-111714080D01*
X184631881Y-111578637D01*
X184703654Y-111293948D01*
X184752661Y-111139435D01*
X184909902Y-110876324D01*
X185116722Y-110683725D01*
X185329822Y-110609000D01*
X185431540Y-110593714D01*
X185555246Y-110516385D01*
X185559168Y-110510836D01*
X185688979Y-110461881D01*
X185920076Y-110470803D01*
X186098882Y-110498531D01*
X186471866Y-110561080D01*
X186713625Y-110611819D01*
X186850988Y-110657036D01*
X186910782Y-110703021D01*
X186962662Y-110743959D01*
X187121664Y-110778333D01*
X187215312Y-110793528D01*
X187286000Y-110863000D01*
X187286020Y-110864053D01*
X187361659Y-110923142D01*
X187540000Y-110947667D01*
X187543161Y-110947673D01*
X187720428Y-110972886D01*
X187794000Y-111032333D01*
X187796461Y-111052571D01*
X187878667Y-111117000D01*
X187927878Y-111085247D01*
X187963334Y-110947667D01*
X187965954Y-110903955D01*
X188031414Y-110804944D01*
X188217334Y-110778333D01*
X188220494Y-110778340D01*
X188397761Y-110803553D01*
X188471334Y-110863000D01*
X188485662Y-110901949D01*
X188598334Y-110947667D01*
X188656757Y-110957219D01*
X188725334Y-111032333D01*
X188757087Y-111081544D01*
X188894667Y-111117000D01*
X188992937Y-111129411D01*
X189064000Y-111183412D01*
X189064204Y-111186316D01*
X189135657Y-111274179D01*
X189296834Y-111389387D01*
X189356257Y-111425718D01*
X189732654Y-111689870D01*
X190157702Y-112048333D01*
X190180693Y-112068792D01*
X190422835Y-112273029D01*
X190674789Y-112471667D01*
X190709851Y-112498381D01*
X190949027Y-112693189D01*
X191149157Y-112873833D01*
X191154953Y-112879522D01*
X191307913Y-113011392D01*
X191409652Y-113068123D01*
X191415875Y-113069711D01*
X191514792Y-113145801D01*
X191687332Y-113312876D01*
X191900334Y-113539107D01*
X192021504Y-113671945D01*
X192311019Y-113985605D01*
X192640176Y-114338747D01*
X192958667Y-114677267D01*
X193318897Y-115058714D01*
X193586482Y-115345849D01*
X193769243Y-115549831D01*
X193883312Y-115690593D01*
X193944819Y-115788071D01*
X193969893Y-115862202D01*
X193974667Y-115932919D01*
X193992443Y-116030557D01*
X194079745Y-116133248D01*
X194127241Y-116192343D01*
X194038061Y-116315035D01*
X194008299Y-116343353D01*
X193896670Y-116407971D01*
X193775585Y-116381843D01*
X193614282Y-116250096D01*
X193382000Y-115997860D01*
X193304972Y-115910310D01*
X192941573Y-115510816D01*
X192663543Y-115230411D01*
X192476469Y-115074423D01*
X192385935Y-115048176D01*
X192372539Y-115085955D01*
X192442146Y-115175733D01*
X192443549Y-115176624D01*
X192508418Y-115292508D01*
X192548714Y-115548202D01*
X192566694Y-115957872D01*
X192566966Y-115985333D01*
X192569131Y-116204090D01*
X192560742Y-116472699D01*
X192528270Y-116647563D01*
X192461116Y-116774438D01*
X192348682Y-116899076D01*
X192313166Y-116933177D01*
X192130737Y-117072032D01*
X191988849Y-117128333D01*
X191926840Y-117138511D01*
X191858000Y-117213000D01*
X191857534Y-117216526D01*
X191767601Y-117258472D01*
X191546101Y-117287085D01*
X191227997Y-117297667D01*
X191181664Y-117297440D01*
X190877491Y-117284007D01*
X190650076Y-117253948D01*
X190545667Y-117213000D01*
X190539919Y-117205530D01*
X190412893Y-117150768D01*
X190202004Y-117128333D01*
X190167408Y-117127735D01*
X189985005Y-117100009D01*
X189910667Y-117043667D01*
X189858115Y-116987982D01*
X189699000Y-116959000D01*
X189559790Y-116937979D01*
X189487334Y-116874333D01*
X189455581Y-116825123D01*
X189318000Y-116789667D01*
X189219580Y-116773790D01*
X189148667Y-116705000D01*
X189116914Y-116655789D01*
X188979334Y-116620333D01*
X188880913Y-116604457D01*
X188810000Y-116535667D01*
X188802524Y-116504482D01*
X188704167Y-116450896D01*
X188695048Y-116450288D01*
X188554543Y-116389767D01*
X188373384Y-116260396D01*
X188162331Y-116090745D01*
X187961418Y-115943000D01*
X187800674Y-115830183D01*
X187580347Y-115667833D01*
X187536552Y-115636127D01*
X187326831Y-115535193D01*
X187175095Y-115543370D01*
X187116667Y-115661166D01*
X187113879Y-115706796D01*
X187016182Y-115913792D01*
X186812115Y-116052543D01*
X186547109Y-116111416D01*
X186266594Y-116078779D01*
X186016000Y-115943000D01*
X185861495Y-115823797D01*
X185762215Y-115773667D01*
X185748379Y-115770476D01*
X185630428Y-115698700D01*
X185457669Y-115562103D01*
X185418160Y-115529229D01*
X185234749Y-115402014D01*
X185105834Y-115350437D01*
X185066862Y-115344417D01*
X185000000Y-115265667D01*
X184985672Y-115226717D01*
X184873000Y-115181000D01*
X184814577Y-115171448D01*
X184746000Y-115096333D01*
X184731672Y-115057384D01*
X184619000Y-115011667D01*
X184560577Y-115002114D01*
X184492000Y-114927000D01*
X184477672Y-114888051D01*
X184365000Y-114842333D01*
X184306662Y-114833452D01*
X184238000Y-114763372D01*
X184210274Y-114710154D01*
X184079020Y-114633952D01*
X184060791Y-114627424D01*
X183880998Y-114527554D01*
X183676854Y-114374350D01*
X183632272Y-114337267D01*
X183423398Y-114201405D01*
X183277114Y-114169593D01*
X183222000Y-114249667D01*
X183224461Y-114269904D01*
X183306667Y-114334333D01*
X183355878Y-114366086D01*
X183391334Y-114503667D01*
X183407210Y-114602087D01*
X183476000Y-114673000D01*
X183525211Y-114704753D01*
X183560667Y-114842333D01*
X183576544Y-114940754D01*
X183645334Y-115011667D01*
X183645948Y-115011670D01*
X183713768Y-115083901D01*
X183734865Y-115261423D01*
X183723463Y-115387100D01*
X183714249Y-115488667D01*
X183656932Y-115710065D01*
X183567925Y-115870048D01*
X183478311Y-115949348D01*
X183250408Y-116040977D01*
X182951633Y-116030271D01*
X182562480Y-115914927D01*
X182063444Y-115692647D01*
X181860532Y-115590380D01*
X181574428Y-115437623D01*
X181372368Y-115318544D01*
X181288778Y-115252693D01*
X181267113Y-115223748D01*
X181140612Y-115181000D01*
X181088725Y-115172616D01*
X181020667Y-115096333D01*
X181006339Y-115057384D01*
X180893667Y-115011667D01*
X180835244Y-115002114D01*
X180766667Y-114927000D01*
X180714115Y-114871316D01*
X180555000Y-114842333D01*
X180392943Y-114878882D01*
X180343334Y-115011667D01*
X180333995Y-115086667D01*
X180272374Y-115147680D01*
X180119062Y-115174821D01*
X179835334Y-115181000D01*
X179605916Y-115172007D01*
X179404453Y-115141431D01*
X179327334Y-115096333D01*
X179295581Y-115047123D01*
X179158000Y-115011667D01*
X179059580Y-114995790D01*
X178988667Y-114927000D01*
X178956914Y-114877789D01*
X178819334Y-114842333D01*
X178720913Y-114858210D01*
X178650000Y-114927000D01*
X178635672Y-114965949D01*
X178523000Y-115011667D01*
X178464577Y-115021219D01*
X178396000Y-115096333D01*
X178364248Y-115145544D01*
X178226667Y-115181000D01*
X178128246Y-115165123D01*
X178057334Y-115096333D01*
X178025581Y-115047123D01*
X177888000Y-115011667D01*
X177789580Y-114995790D01*
X177718667Y-114927000D01*
X177690092Y-114879164D01*
X177556389Y-114842333D01*
X177462727Y-114830876D01*
X177365889Y-114772878D01*
X177349028Y-114748826D01*
X177226790Y-114639177D01*
X177033526Y-114497712D01*
X176644975Y-114217193D01*
X176237428Y-113893534D01*
X175895685Y-113593500D01*
X175890005Y-113588167D01*
X175717660Y-113457208D01*
X175582207Y-113403000D01*
X175484099Y-113364920D01*
X175348000Y-113233667D01*
X175246596Y-113126859D01*
X175117643Y-113064333D01*
X175076416Y-113057924D01*
X175009334Y-112979667D01*
X175006909Y-112959459D01*
X174925635Y-112895000D01*
X174812584Y-112851175D01*
X174588937Y-112686208D01*
X174282876Y-112408167D01*
X174282073Y-112407392D01*
X174098496Y-112275343D01*
X173933682Y-112224351D01*
X173860335Y-112236711D01*
X173887500Y-112273740D01*
X173929318Y-112300430D01*
X173993334Y-112436389D01*
X174001718Y-112488275D01*
X174078000Y-112556333D01*
X174127211Y-112588086D01*
X174162667Y-112725667D01*
X174176589Y-112823998D01*
X174237062Y-112895000D01*
X174241419Y-112895401D01*
X174323872Y-112974419D01*
X174416667Y-113149000D01*
X174423041Y-113164133D01*
X174511658Y-113333339D01*
X174581265Y-113403000D01*
X174593234Y-113405895D01*
X174679449Y-113502697D01*
X174787873Y-113697884D01*
X174894529Y-113938441D01*
X174920402Y-114012915D01*
X174975444Y-114171353D01*
X175006641Y-114343607D01*
X174961379Y-114567676D01*
X174802516Y-114767621D01*
X174560340Y-114842333D01*
X174372768Y-114806008D01*
X174087772Y-114688091D01*
X173797477Y-114520893D01*
X173568157Y-114338094D01*
X173565005Y-114334903D01*
X173408650Y-114184848D01*
X173215605Y-114008915D01*
X172991897Y-113810497D01*
X172745690Y-113992525D01*
X172653368Y-114058393D01*
X172513722Y-114125238D01*
X172362150Y-114118925D01*
X172125558Y-114045726D01*
X172011316Y-114002734D01*
X171813732Y-113906894D01*
X171722428Y-113829282D01*
X171675841Y-113758275D01*
X171561720Y-113769573D01*
X171368667Y-113911000D01*
X171319580Y-113950561D01*
X171027555Y-114076350D01*
X170700732Y-114041786D01*
X170335773Y-113845889D01*
X169929343Y-113487675D01*
X169918096Y-113476147D01*
X169708633Y-113268241D01*
X169547641Y-113120530D01*
X169469164Y-113064333D01*
X169452886Y-113088869D01*
X169430227Y-113236533D01*
X169421334Y-113473360D01*
X169421308Y-113489909D01*
X169405686Y-113746223D01*
X169346298Y-113893885D01*
X169221197Y-113989496D01*
X169159952Y-114016536D01*
X168953126Y-114030734D01*
X168707107Y-113932070D01*
X168403893Y-113711039D01*
X168025483Y-113358135D01*
X167977617Y-113310681D01*
X167753348Y-113099511D01*
X167577118Y-112951069D01*
X167483611Y-112895000D01*
X167406464Y-112855410D01*
X167239260Y-112725017D01*
X167029030Y-112535167D01*
X166776373Y-112297475D01*
X166459434Y-112005447D01*
X166153426Y-111728565D01*
X166120672Y-111699283D01*
X165853313Y-111460230D01*
X165616293Y-111248245D01*
X165457569Y-111106218D01*
X165450122Y-111099599D01*
X165305657Y-110991020D01*
X165225623Y-110966488D01*
X165223294Y-110969349D01*
X165232610Y-111071536D01*
X165299434Y-111235363D01*
X165388156Y-111387597D01*
X165463167Y-111455006D01*
X165492200Y-111469450D01*
X165526667Y-111582667D01*
X165536219Y-111641090D01*
X165611334Y-111709667D01*
X165650283Y-111723995D01*
X165696000Y-111836667D01*
X165705553Y-111895090D01*
X165780667Y-111963667D01*
X165804463Y-111967336D01*
X165865334Y-112054381D01*
X165918167Y-112186522D01*
X166067634Y-112325795D01*
X166240286Y-112387000D01*
X166304350Y-112397530D01*
X166373334Y-112471667D01*
X166386969Y-112509996D01*
X166498382Y-112556333D01*
X166612968Y-112593809D01*
X166753795Y-112752379D01*
X166839392Y-112982714D01*
X166839530Y-113015952D01*
X166840410Y-113227247D01*
X166834066Y-113466087D01*
X166959871Y-113669925D01*
X167099223Y-113849661D01*
X167240612Y-114096237D01*
X167242016Y-114099396D01*
X167334585Y-114265432D01*
X167410002Y-114334333D01*
X167410737Y-114334350D01*
X167455443Y-114409911D01*
X167474000Y-114588333D01*
X167468521Y-114703022D01*
X167411596Y-114816149D01*
X167256286Y-114842333D01*
X167095772Y-114818280D01*
X166938637Y-114736500D01*
X166927847Y-114724663D01*
X166815096Y-114578905D01*
X166670692Y-114369746D01*
X166527211Y-114147445D01*
X166417233Y-113962255D01*
X166373334Y-113864434D01*
X166373168Y-113859356D01*
X166297834Y-113734590D01*
X166135579Y-113621570D01*
X165960032Y-113572333D01*
X165784218Y-113547744D01*
X165551818Y-113477124D01*
X165348569Y-113395672D01*
X165103334Y-113297913D01*
X164939224Y-113229179D01*
X164744649Y-113139122D01*
X164624020Y-113099340D01*
X164404097Y-113070305D01*
X164173582Y-113069376D01*
X163991780Y-113095843D01*
X163918000Y-113149000D01*
X163917981Y-113150053D01*
X163842342Y-113209142D01*
X163664000Y-113233667D01*
X163660840Y-113233673D01*
X163483573Y-113258886D01*
X163410000Y-113318333D01*
X163378248Y-113367544D01*
X163240667Y-113403000D01*
X163142246Y-113418876D01*
X163071334Y-113487667D01*
X163060649Y-113523010D01*
X162954998Y-113572333D01*
X162944213Y-113573030D01*
X162789793Y-113624068D01*
X162554354Y-113735353D01*
X162291815Y-113877834D01*
X162056097Y-114022457D01*
X161901120Y-114140170D01*
X161832584Y-114196677D01*
X161714468Y-114249667D01*
X161705141Y-114250906D01*
X161589018Y-114319679D01*
X161428031Y-114461333D01*
X161402563Y-114486464D01*
X161254401Y-114618989D01*
X161168614Y-114673000D01*
X161158919Y-114675637D01*
X161053267Y-114755179D01*
X160874416Y-114920618D01*
X160654972Y-115138253D01*
X160427537Y-115374386D01*
X160224716Y-115595315D01*
X160079113Y-115767342D01*
X160023334Y-115856765D01*
X160020629Y-115878357D01*
X159938667Y-115943000D01*
X159889457Y-115974753D01*
X159854000Y-116112333D01*
X159838124Y-116210754D01*
X159769334Y-116281667D01*
X159720123Y-116313419D01*
X159684667Y-116451000D01*
X159668791Y-116549421D01*
X159600000Y-116620333D01*
X159552165Y-116648908D01*
X159515334Y-116782611D01*
X159500502Y-116876618D01*
X159425541Y-116974820D01*
X159404377Y-117000040D01*
X159366831Y-117168881D01*
X159342052Y-117477849D01*
X159332024Y-117907180D01*
X159328300Y-118809610D01*
X159614058Y-119090805D01*
X159768595Y-119227650D01*
X160238508Y-119539743D01*
X160827825Y-119823958D01*
X161501545Y-120064795D01*
X162224667Y-120246757D01*
X162404656Y-120282892D01*
X162713497Y-120345314D01*
X162944334Y-120392473D01*
X163300530Y-120457644D01*
X163740717Y-120520690D01*
X164268272Y-120580409D01*
X164899579Y-120638297D01*
X165651019Y-120695851D01*
X166538977Y-120754567D01*
X167579834Y-120815941D01*
X167961893Y-120843272D01*
X168280303Y-120877397D01*
X168495571Y-120913585D01*
X168574667Y-120947471D01*
X168575651Y-120950736D01*
X168671359Y-120978920D01*
X168900856Y-121001884D01*
X169232089Y-121017340D01*
X169633000Y-121023000D01*
X170012839Y-121027309D01*
X170377533Y-121043713D01*
X170609822Y-121070989D01*
X170691334Y-121107667D01*
X170691679Y-121110133D01*
X170784049Y-121144530D01*
X171029484Y-121170391D01*
X171412847Y-121186674D01*
X171919000Y-121192333D01*
X172056839Y-121192765D01*
X172496452Y-121200795D01*
X172841155Y-121217745D01*
X173066157Y-121242005D01*
X173146667Y-121271968D01*
X173171298Y-121288869D01*
X173340217Y-121318833D01*
X173658106Y-121346956D01*
X174111773Y-121372817D01*
X174688025Y-121395994D01*
X175373670Y-121416066D01*
X176155517Y-121432614D01*
X177020371Y-121445217D01*
X177955041Y-121453454D01*
X178946334Y-121456904D01*
X179888046Y-121454715D01*
X180783648Y-121444820D01*
X181517807Y-121426879D01*
X182094593Y-121400702D01*
X182518079Y-121366098D01*
X182792335Y-121322877D01*
X182921434Y-121270848D01*
X183038831Y-121217968D01*
X183242782Y-121192333D01*
X183451689Y-121144634D01*
X183696464Y-120979567D01*
X183820186Y-120843249D01*
X183853166Y-120740330D01*
X183783330Y-120640900D01*
X183693016Y-120570544D01*
X183541315Y-120515000D01*
X183483996Y-120506219D01*
X183329877Y-120419677D01*
X183316021Y-120409665D01*
X183157076Y-120374702D01*
X182875699Y-120363154D01*
X182509330Y-120373267D01*
X182095408Y-120403286D01*
X181671374Y-120451455D01*
X181274667Y-120516019D01*
X181168254Y-120536681D01*
X180768214Y-120611902D01*
X180491187Y-120656987D01*
X180302078Y-120675755D01*
X180165792Y-120672027D01*
X180047230Y-120649623D01*
X179891633Y-120566131D01*
X179841471Y-120407972D01*
X179945307Y-120223598D01*
X180096810Y-120099377D01*
X180427692Y-119937609D01*
X180880606Y-119821561D01*
X181477690Y-119744311D01*
X181750343Y-119723181D01*
X182551990Y-119705311D01*
X183213379Y-119765296D01*
X183732058Y-119902281D01*
X184105577Y-120115411D01*
X184331486Y-120403830D01*
X184407334Y-120766683D01*
X184364584Y-121073632D01*
X184235063Y-121286019D01*
X184032381Y-121361667D01*
X183968318Y-121372197D01*
X183899334Y-121446333D01*
X183867581Y-121495544D01*
X183730000Y-121531000D01*
X183631661Y-121545113D01*
X183560667Y-121606403D01*
X183559824Y-121612458D01*
X183472533Y-121676491D01*
X183285500Y-121728339D01*
X183157424Y-121750566D01*
X182858635Y-121804259D01*
X182537643Y-121863558D01*
X182506499Y-121869293D01*
X182171197Y-121923602D01*
X181759143Y-121981272D01*
X181352310Y-122030739D01*
X181317000Y-122034415D01*
X180950160Y-122058977D01*
X180442809Y-122076114D01*
X179820358Y-122086180D01*
X179108217Y-122089532D01*
X178331793Y-122086523D01*
X177516498Y-122077511D01*
X176687739Y-122062848D01*
X175870928Y-122042892D01*
X175091472Y-122017996D01*
X174374781Y-121988516D01*
X173746265Y-121954808D01*
X173231334Y-121917226D01*
X172879135Y-121886523D01*
X172248850Y-121832194D01*
X171614589Y-121778177D01*
X171033901Y-121729362D01*
X170564334Y-121690638D01*
X170143534Y-121656263D01*
X169588113Y-121610400D01*
X169054826Y-121565902D01*
X168617000Y-121528861D01*
X168505819Y-121519474D01*
X167982915Y-121477536D01*
X167420908Y-121435178D01*
X166923667Y-121400289D01*
X166685110Y-121381679D01*
X166353884Y-121345457D01*
X166110883Y-121305723D01*
X165996567Y-121268242D01*
X165945663Y-121248168D01*
X165749294Y-121219430D01*
X165449198Y-121199678D01*
X165086401Y-121192333D01*
X164905130Y-121190719D01*
X164561551Y-121175772D01*
X164337058Y-121147237D01*
X164256667Y-121107667D01*
X164190810Y-121066652D01*
X163993916Y-121034963D01*
X163706334Y-121023000D01*
X163439740Y-121012868D01*
X163233758Y-120982577D01*
X163156000Y-120938333D01*
X163127432Y-120907835D01*
X162974155Y-120868896D01*
X162732667Y-120853667D01*
X162580221Y-120848531D01*
X162385494Y-120820963D01*
X162309334Y-120777525D01*
X162296500Y-120755857D01*
X162169146Y-120700426D01*
X161949500Y-120658019D01*
X161778451Y-120635591D01*
X161277110Y-120543462D01*
X160912334Y-120430744D01*
X160899716Y-120425490D01*
X160723417Y-120356274D01*
X160448639Y-120252099D01*
X160129167Y-120133387D01*
X160062259Y-120108309D01*
X159784267Y-119993041D01*
X159589031Y-119893976D01*
X159515334Y-119830265D01*
X159507917Y-119801915D01*
X159409500Y-119752896D01*
X159386367Y-119749322D01*
X159237995Y-119674797D01*
X159049667Y-119534131D01*
X158929804Y-119423995D01*
X158854781Y-119315564D01*
X158817688Y-119168622D01*
X158807707Y-118939592D01*
X158814020Y-118584896D01*
X158817591Y-118475090D01*
X158839766Y-118119329D01*
X158873318Y-117822377D01*
X158912488Y-117639495D01*
X158938673Y-117565222D01*
X159019558Y-117310754D01*
X159103120Y-117022500D01*
X159145501Y-116883246D01*
X159221318Y-116694378D01*
X159279818Y-116620333D01*
X159323314Y-116567870D01*
X159346000Y-116408667D01*
X159367021Y-116269456D01*
X159430667Y-116197000D01*
X159479878Y-116165247D01*
X159515334Y-116027667D01*
X159531210Y-115929246D01*
X159600000Y-115858333D01*
X159649211Y-115826580D01*
X159684667Y-115689000D01*
X159700544Y-115590579D01*
X159769334Y-115519667D01*
X159809528Y-115503850D01*
X159854000Y-115388579D01*
X159897587Y-115295041D01*
X160043618Y-115107459D01*
X160264581Y-114863697D01*
X160531522Y-114592964D01*
X160815490Y-114324465D01*
X161087532Y-114087408D01*
X161318696Y-113911000D01*
X161405780Y-113849435D01*
X161567155Y-113717562D01*
X161631422Y-113635833D01*
X161663352Y-113599008D01*
X161801334Y-113572333D01*
X161899622Y-113559459D01*
X161970667Y-113503469D01*
X161974944Y-113490134D01*
X162075264Y-113410028D01*
X162267000Y-113318333D01*
X162317162Y-113297657D01*
X162492491Y-113205551D01*
X162563334Y-113133197D01*
X162615808Y-113087935D01*
X162775000Y-113064333D01*
X162914211Y-113043312D01*
X162986667Y-112979667D01*
X163039219Y-112923982D01*
X163198334Y-112895000D01*
X163337544Y-112873979D01*
X163410000Y-112810333D01*
X163410020Y-112809280D01*
X163413917Y-112806236D01*
X165200861Y-112806236D01*
X165308953Y-112943381D01*
X165315469Y-112949533D01*
X165454055Y-113020893D01*
X165637219Y-113061661D01*
X165796974Y-113062970D01*
X165865334Y-113015952D01*
X165864868Y-113006807D01*
X165782863Y-112879355D01*
X165607061Y-112771273D01*
X165405715Y-112725667D01*
X165241882Y-112740531D01*
X165200861Y-112806236D01*
X163413917Y-112806236D01*
X163485659Y-112750191D01*
X163664000Y-112725667D01*
X163667161Y-112725660D01*
X163844428Y-112700447D01*
X163918000Y-112641000D01*
X163915540Y-112620762D01*
X163833334Y-112556333D01*
X163794385Y-112542005D01*
X163748667Y-112429333D01*
X163739115Y-112370910D01*
X163664000Y-112302333D01*
X163641631Y-112299189D01*
X163579334Y-112214126D01*
X163540228Y-112113865D01*
X163423543Y-111958697D01*
X163291718Y-111791608D01*
X163148511Y-111560071D01*
X163048762Y-111385519D01*
X162973406Y-111286139D01*
X162966445Y-111279069D01*
X162913152Y-111154991D01*
X162861689Y-110945889D01*
X162861435Y-110944526D01*
X162875838Y-110629560D01*
X163036072Y-110388307D01*
X163326037Y-110245061D01*
X163368175Y-110236967D01*
X163537846Y-110240531D01*
X163677944Y-110284872D01*
X163742405Y-110348727D01*
X163685167Y-110410834D01*
X163627741Y-110460279D01*
X163579334Y-110616055D01*
X163564425Y-110707740D01*
X163494667Y-110778333D01*
X163493614Y-110778353D01*
X163434525Y-110853991D01*
X163410000Y-111032333D01*
X163410007Y-111035493D01*
X163435220Y-111212761D01*
X163494667Y-111286333D01*
X163534791Y-111302062D01*
X163579334Y-111417182D01*
X163579368Y-111419698D01*
X163636491Y-111570776D01*
X163769834Y-111749229D01*
X163955479Y-111947417D01*
X164159720Y-112168714D01*
X164185144Y-112195870D01*
X164336321Y-112316376D01*
X164525840Y-112372925D01*
X164818544Y-112387000D01*
X165083775Y-112376204D01*
X165255237Y-112332163D01*
X165332890Y-112243911D01*
X165347012Y-112160648D01*
X165287900Y-112067522D01*
X165250946Y-112047153D01*
X165188000Y-111921333D01*
X165183505Y-111877723D01*
X165124500Y-111780222D01*
X165080019Y-111739440D01*
X164959809Y-111588700D01*
X164807000Y-111371000D01*
X164708184Y-111225949D01*
X164553152Y-111010373D01*
X164447167Y-110878119D01*
X164399020Y-110818965D01*
X165036756Y-110818965D01*
X165046889Y-110919444D01*
X165072356Y-110932690D01*
X165103334Y-110863000D01*
X165097224Y-110818178D01*
X165046889Y-110806555D01*
X165036756Y-110818965D01*
X164399020Y-110818965D01*
X164392981Y-110811545D01*
X164341334Y-110700788D01*
X164338238Y-110686033D01*
X164266567Y-110564023D01*
X164129771Y-110389335D01*
X164096896Y-110349826D01*
X163969681Y-110166415D01*
X163918104Y-110037500D01*
X163912084Y-109998528D01*
X163833334Y-109931667D01*
X163809538Y-109927997D01*
X163748667Y-109840952D01*
X163730705Y-109762333D01*
X164823358Y-109762333D01*
X165122289Y-110037500D01*
X165215301Y-110122804D01*
X165608153Y-110478320D01*
X166037470Y-110860973D01*
X166039776Y-110863000D01*
X166449741Y-111223304D01*
X166791454Y-111517854D01*
X166922869Y-111631558D01*
X167233559Y-111911646D01*
X167512151Y-112175333D01*
X167654611Y-112307712D01*
X167895807Y-112505604D01*
X168088865Y-112634140D01*
X168091432Y-112635475D01*
X168253420Y-112740353D01*
X168320667Y-112824640D01*
X168323028Y-112841120D01*
X168405334Y-112895000D01*
X168454544Y-112863247D01*
X168490000Y-112725667D01*
X168474124Y-112627246D01*
X168405334Y-112556333D01*
X168376344Y-112531415D01*
X168336355Y-112383272D01*
X168320667Y-112146122D01*
X168323859Y-112040357D01*
X168398323Y-111712954D01*
X168573745Y-111519344D01*
X168853102Y-111455667D01*
X169002229Y-111481076D01*
X169098827Y-111586492D01*
X169182455Y-111815500D01*
X169260323Y-112004707D01*
X169413399Y-112238957D01*
X169656696Y-112523988D01*
X170011353Y-112887130D01*
X170026774Y-112902312D01*
X170352087Y-113213027D01*
X170576241Y-113404264D01*
X170709222Y-113483638D01*
X170761016Y-113458765D01*
X170758865Y-113369114D01*
X170676349Y-113201842D01*
X170577935Y-113086439D01*
X170437334Y-112895000D01*
X170333527Y-112750385D01*
X170204500Y-112594340D01*
X170153941Y-112525244D01*
X170098667Y-112350714D01*
X170102431Y-112319658D01*
X170193060Y-112231371D01*
X170360894Y-112217721D01*
X170547341Y-112274215D01*
X170693810Y-112396359D01*
X170875919Y-112629762D01*
X171180753Y-112935435D01*
X171474500Y-113142143D01*
X171477780Y-113143842D01*
X171640018Y-113248543D01*
X171707334Y-113332640D01*
X171707872Y-113337083D01*
X171792682Y-113383785D01*
X171978267Y-113403000D01*
X172082574Y-113400148D01*
X172182674Y-113371546D01*
X172147600Y-113301400D01*
X172099605Y-113235210D01*
X172046000Y-113047400D01*
X172032505Y-112965106D01*
X171961334Y-112895000D01*
X171912123Y-112863247D01*
X171876667Y-112725667D01*
X171904496Y-112616202D01*
X172046000Y-112556333D01*
X172144421Y-112572210D01*
X172215334Y-112641000D01*
X172229662Y-112679949D01*
X172342334Y-112725667D01*
X172400757Y-112735219D01*
X172469334Y-112810333D01*
X172477533Y-112842561D01*
X172577643Y-112895000D01*
X172673479Y-112933181D01*
X172808000Y-113064333D01*
X172902069Y-113172405D01*
X172999873Y-113233667D01*
X173002581Y-113233795D01*
X173110061Y-113291970D01*
X173265835Y-113424167D01*
X173447918Y-113585722D01*
X173652786Y-113741667D01*
X173815509Y-113854195D01*
X174037654Y-114016833D01*
X174185111Y-114118839D01*
X174281855Y-114165000D01*
X174325572Y-114137698D01*
X174330617Y-114012915D01*
X174271542Y-113839622D01*
X174162667Y-113676505D01*
X174046553Y-113525431D01*
X173993334Y-113398176D01*
X173987526Y-113372234D01*
X173899537Y-113235758D01*
X173739334Y-113064333D01*
X173685940Y-113012123D01*
X173542778Y-112842308D01*
X173485334Y-112722795D01*
X173452111Y-112628192D01*
X173332813Y-112481598D01*
X173277955Y-112427385D01*
X173111585Y-112236853D01*
X172931582Y-112006000D01*
X172852945Y-111901778D01*
X172673271Y-111680708D01*
X172533769Y-111530402D01*
X172441070Y-111427284D01*
X172384667Y-111311037D01*
X172342332Y-111227840D01*
X172209961Y-111055873D01*
X172038157Y-110863000D01*
X173231334Y-110863000D01*
X173234334Y-110884948D01*
X173318823Y-110947667D01*
X173365379Y-110964895D01*
X173514022Y-111071779D01*
X173702645Y-111244000D01*
X173807207Y-111344087D01*
X173975478Y-111485006D01*
X174074775Y-111540333D01*
X174128837Y-111555072D01*
X174262567Y-111646167D01*
X174359494Y-111730747D01*
X174557123Y-111894216D01*
X174797781Y-112087682D01*
X174999342Y-112251975D01*
X175219267Y-112441845D01*
X175357932Y-112574516D01*
X175465273Y-112668117D01*
X175599129Y-112725667D01*
X175626357Y-112731351D01*
X175767231Y-112819245D01*
X175940667Y-112979667D01*
X175995582Y-113037073D01*
X176144076Y-113177479D01*
X176227668Y-113233667D01*
X176231498Y-113233807D01*
X176279052Y-113252116D01*
X176370218Y-113316279D01*
X176533208Y-113447871D01*
X176796232Y-113668464D01*
X176825908Y-113692918D01*
X177023018Y-113843205D01*
X177254190Y-114007131D01*
X177324973Y-114057194D01*
X177484713Y-114188112D01*
X177548755Y-114270833D01*
X177580685Y-114307658D01*
X177718667Y-114334333D01*
X177828132Y-114306504D01*
X177888000Y-114165000D01*
X177874628Y-114066692D01*
X177816503Y-113995667D01*
X177800971Y-113992652D01*
X177675388Y-113921075D01*
X177499003Y-113784103D01*
X177454900Y-113746844D01*
X177293535Y-113622623D01*
X177203091Y-113572437D01*
X177133826Y-113515864D01*
X177057062Y-113357077D01*
X177046850Y-113318333D01*
X178057334Y-113318333D01*
X178057340Y-113321493D01*
X178082553Y-113498761D01*
X178142000Y-113572333D01*
X178180950Y-113586661D01*
X178226667Y-113699333D01*
X178234546Y-113757553D01*
X178297027Y-113826333D01*
X178377419Y-113885880D01*
X178482216Y-114040894D01*
X178504687Y-114077959D01*
X178674883Y-114269283D01*
X178898690Y-114443061D01*
X178934280Y-114464985D01*
X179344635Y-114679398D01*
X179656279Y-114762432D01*
X179866202Y-114713247D01*
X179911395Y-114672202D01*
X179990467Y-114529187D01*
X179996508Y-114394219D01*
X179920000Y-114334333D01*
X179898052Y-114331333D01*
X179835334Y-114246844D01*
X179826057Y-114205787D01*
X179717928Y-114045402D01*
X179519728Y-113840635D01*
X179270935Y-113624281D01*
X179011024Y-113429137D01*
X178779475Y-113288000D01*
X178615764Y-113233667D01*
X178549782Y-113222810D01*
X178480667Y-113149000D01*
X178428115Y-113093316D01*
X178269000Y-113064333D01*
X178176955Y-113070399D01*
X178080115Y-113136806D01*
X178057334Y-113318333D01*
X177046850Y-113318333D01*
X177007304Y-113168297D01*
X177010331Y-113023003D01*
X177072769Y-112929983D01*
X177165221Y-112898814D01*
X177210667Y-112979667D01*
X177232600Y-113036861D01*
X177344803Y-113063626D01*
X177498876Y-113012285D01*
X177634000Y-112895000D01*
X177641267Y-112885169D01*
X177755498Y-112787305D01*
X177938415Y-112738763D01*
X178239653Y-112725667D01*
X178372914Y-112724394D01*
X178599982Y-112705914D01*
X178720042Y-112654505D01*
X178777000Y-112556333D01*
X178804849Y-112497850D01*
X178911126Y-112404420D01*
X179022062Y-112389566D01*
X179073334Y-112471667D01*
X179076541Y-112494215D01*
X179161849Y-112556333D01*
X179170749Y-112556993D01*
X179301781Y-112627706D01*
X179466063Y-112774586D01*
X179606501Y-112939916D01*
X179666000Y-113065982D01*
X179681583Y-113108050D01*
X179795313Y-113258927D01*
X179994401Y-113473975D01*
X180249173Y-113723514D01*
X180529954Y-113977861D01*
X180807068Y-114207333D01*
X180877072Y-114263096D01*
X181031418Y-114394219D01*
X181159488Y-114503019D01*
X181412425Y-114736500D01*
X181498058Y-114815998D01*
X181680302Y-114956171D01*
X181803487Y-115011667D01*
X181900989Y-115049773D01*
X182036667Y-115181000D01*
X182145666Y-115286453D01*
X182309358Y-115350333D01*
X182389986Y-115363571D01*
X182460000Y-115435000D01*
X182462560Y-115446111D01*
X182560466Y-115498401D01*
X182756334Y-115519667D01*
X182806137Y-115518896D01*
X182995366Y-115483548D01*
X183052667Y-115387100D01*
X183051896Y-115361241D01*
X182983795Y-115123202D01*
X182797401Y-114829393D01*
X182481167Y-114461105D01*
X182472768Y-114452037D01*
X182343873Y-114286961D01*
X182290667Y-114168848D01*
X182287599Y-114145275D01*
X182206000Y-114080333D01*
X182167051Y-114066005D01*
X182155688Y-114038000D01*
X183052667Y-114038000D01*
X183095000Y-114080333D01*
X183137334Y-114038000D01*
X183095000Y-113995667D01*
X183052667Y-114038000D01*
X182155688Y-114038000D01*
X182121334Y-113953333D01*
X182111782Y-113894910D01*
X182036667Y-113826333D01*
X182011609Y-113822149D01*
X181952000Y-113733302D01*
X181946135Y-113707963D01*
X181858103Y-113573502D01*
X181698000Y-113403000D01*
X181643955Y-113350324D01*
X181501240Y-113183943D01*
X181444000Y-113070292D01*
X181435468Y-113036554D01*
X181346151Y-112889553D01*
X181190992Y-112702094D01*
X181160459Y-112668990D01*
X180923314Y-112404011D01*
X180699031Y-112143178D01*
X180632263Y-112066373D01*
X180522915Y-111965124D01*
X180388680Y-111886510D01*
X180200965Y-111821539D01*
X179931175Y-111761216D01*
X179550718Y-111696550D01*
X179031000Y-111618545D01*
X178720573Y-111575452D01*
X178313066Y-111524018D01*
X177972667Y-111486275D01*
X177783886Y-111462258D01*
X177550694Y-111414289D01*
X177426567Y-111363550D01*
X177366828Y-111335486D01*
X177169290Y-111300147D01*
X176902397Y-111286333D01*
X176733741Y-111280238D01*
X176514211Y-111249544D01*
X176501719Y-111244000D01*
X179666000Y-111244000D01*
X179708334Y-111286333D01*
X179750667Y-111244000D01*
X179708334Y-111201667D01*
X179666000Y-111244000D01*
X176501719Y-111244000D01*
X176406334Y-111201667D01*
X176334052Y-111164945D01*
X176131901Y-111130357D01*
X175856000Y-111117000D01*
X175634795Y-111108570D01*
X175412354Y-111077836D01*
X175305667Y-111032333D01*
X175213699Y-110991818D01*
X174997023Y-110959897D01*
X174708004Y-110947667D01*
X174445838Y-110937667D01*
X174240354Y-110907342D01*
X174162667Y-110863000D01*
X174121157Y-110828156D01*
X173952015Y-110792252D01*
X173697000Y-110778333D01*
X173505358Y-110785880D01*
X173307886Y-110816633D01*
X173231334Y-110863000D01*
X172038157Y-110863000D01*
X172018877Y-110841356D01*
X171894427Y-110711532D01*
X171728705Y-110563261D01*
X171566820Y-110480209D01*
X171351143Y-110437373D01*
X171024044Y-110409751D01*
X171005479Y-110408427D01*
X170592023Y-110374062D01*
X170115494Y-110327690D01*
X169675334Y-110278955D01*
X169633111Y-110273892D01*
X169172204Y-110219316D01*
X168657843Y-110159345D01*
X168193667Y-110106072D01*
X167923022Y-110074849D01*
X167438141Y-110017465D01*
X166910897Y-109953792D01*
X166415667Y-109892752D01*
X166025702Y-109846417D01*
X165629293Y-109804192D01*
X165309327Y-109775252D01*
X165111513Y-109764105D01*
X164823358Y-109762333D01*
X163730705Y-109762333D01*
X163719228Y-109712096D01*
X163608395Y-109613758D01*
X163394294Y-109551103D01*
X163055198Y-109518004D01*
X162569381Y-109508333D01*
X162255803Y-109507865D01*
X161952886Y-109502535D01*
X161768428Y-109486006D01*
X161673048Y-109451929D01*
X161637366Y-109393952D01*
X161632000Y-109305725D01*
X161648838Y-109181092D01*
X161723155Y-109088413D01*
X161882932Y-109033437D01*
X162156016Y-109007098D01*
X162570259Y-109000333D01*
X162660056Y-108999739D01*
X162955772Y-108988252D01*
X163162732Y-108965138D01*
X163240667Y-108934357D01*
X163201336Y-108863852D01*
X163071334Y-108746333D01*
X162993724Y-108674190D01*
X162912860Y-108517046D01*
X162923155Y-108381002D01*
X163030149Y-108323000D01*
X163180706Y-108352644D01*
X163479001Y-108525474D01*
X163844666Y-108852167D01*
X163954924Y-108960134D01*
X164136715Y-109098131D01*
X164330278Y-109157180D01*
X164614096Y-109169667D01*
X164792368Y-109175412D01*
X165025236Y-109203301D01*
X165149901Y-109246552D01*
X165173516Y-109260106D01*
X165338484Y-109301624D01*
X165612252Y-109341265D01*
X165950000Y-109372002D01*
X166410895Y-109407619D01*
X166928101Y-109454367D01*
X167389334Y-109502103D01*
X167472121Y-109511447D01*
X167933253Y-109562663D01*
X168445788Y-109618572D01*
X168913334Y-109668640D01*
X169014341Y-109679426D01*
X169489794Y-109732346D01*
X169979767Y-109789639D01*
X170392757Y-109840663D01*
X170663350Y-109870417D01*
X170986081Y-109880125D01*
X171150905Y-109839141D01*
X171160418Y-109746469D01*
X171017213Y-109601114D01*
X171014719Y-109599151D01*
X170635557Y-109277853D01*
X170388840Y-109017382D01*
X170278052Y-108823811D01*
X170306679Y-108703215D01*
X170478204Y-108661667D01*
X170543078Y-108666513D01*
X170668396Y-108706625D01*
X170822895Y-108801454D01*
X171028601Y-108967856D01*
X171307538Y-109222690D01*
X171681729Y-109582810D01*
X171820471Y-109713518D01*
X172025578Y-109880528D01*
X172242224Y-110011736D01*
X172496642Y-110115053D01*
X172815064Y-110198390D01*
X173223720Y-110269658D01*
X173748844Y-110336769D01*
X174416667Y-110407633D01*
X174605503Y-110432218D01*
X174838660Y-110480807D01*
X174962767Y-110531783D01*
X175060707Y-110567468D01*
X175285074Y-110597471D01*
X175576600Y-110609000D01*
X175828231Y-110618682D01*
X176032487Y-110649086D01*
X176110000Y-110693667D01*
X176110595Y-110697637D01*
X176202026Y-110739389D01*
X176425040Y-110767828D01*
X176745000Y-110778333D01*
X176774779Y-110778412D01*
X177087923Y-110790603D01*
X177301208Y-110820338D01*
X177380000Y-110863000D01*
X177432612Y-110900886D01*
X177614458Y-110934699D01*
X177883004Y-110947667D01*
X178109071Y-110956308D01*
X178331748Y-110987032D01*
X178438334Y-111032333D01*
X178466595Y-111050323D01*
X178620979Y-111082752D01*
X178861442Y-111105550D01*
X179137080Y-111117175D01*
X179396988Y-111116082D01*
X179590263Y-111100727D01*
X179666000Y-111069567D01*
X179634070Y-111023735D01*
X179502703Y-110879299D01*
X179293192Y-110664313D01*
X179031000Y-110405409D01*
X178764011Y-110137412D01*
X178531609Y-109871072D01*
X178419405Y-109682010D01*
X178419436Y-109555654D01*
X178523736Y-109477433D01*
X178549686Y-109468673D01*
X178699883Y-109462747D01*
X178883380Y-109535002D01*
X179119218Y-109698193D01*
X179426438Y-109965071D01*
X179824081Y-110348391D01*
X179870493Y-110394336D01*
X180161162Y-110676662D01*
X180406724Y-110906255D01*
X180582529Y-111060554D01*
X180663926Y-111117000D01*
X180734058Y-111156348D01*
X180813140Y-111244000D01*
X180851334Y-111286333D01*
G37*
%TD*%
M02*
