%TF.GenerationSoftware,KiCad,Pcbnew,9.0.3*%
%TF.CreationDate,2025-07-30T09:19:55+03:00*%
%TF.ProjectId,KiCad Projeleri,4b694361-6420-4507-926f-6a656c657269,rev?*%
%TF.SameCoordinates,Original*%
%TF.FileFunction,Soldermask,Bot*%
%TF.FilePolarity,Negative*%
%FSLAX46Y46*%
G04 Gerber Fmt 4.6, Leading zero omitted, Abs format (unit mm)*
G04 Created by KiCad (PCBNEW 9.0.3) date 2025-07-30 09:19:55*
%MOMM*%
%LPD*%
G01*
G04 APERTURE LIST*
G04 Aperture macros list*
%AMRoundRect*
0 Rectangle with rounded corners*
0 $1 Rounding radius*
0 $2 $3 $4 $5 $6 $7 $8 $9 X,Y pos of 4 corners*
0 Add a 4 corners polygon primitive as box body*
4,1,4,$2,$3,$4,$5,$6,$7,$8,$9,$2,$3,0*
0 Add four circle primitives for the rounded corners*
1,1,$1+$1,$2,$3*
1,1,$1+$1,$4,$5*
1,1,$1+$1,$6,$7*
1,1,$1+$1,$8,$9*
0 Add four rect primitives between the rounded corners*
20,1,$1+$1,$2,$3,$4,$5,0*
20,1,$1+$1,$4,$5,$6,$7,0*
20,1,$1+$1,$6,$7,$8,$9,0*
20,1,$1+$1,$8,$9,$2,$3,0*%
G04 Aperture macros list end*
%ADD10RoundRect,0.250000X0.600000X0.725000X-0.600000X0.725000X-0.600000X-0.725000X0.600000X-0.725000X0*%
%ADD11O,1.700000X1.950000*%
%ADD12RoundRect,0.250000X1.550000X-0.650000X1.550000X0.650000X-1.550000X0.650000X-1.550000X-0.650000X0*%
%ADD13O,3.600000X1.800000*%
%ADD14RoundRect,0.250000X-1.550000X0.650000X-1.550000X-0.650000X1.550000X-0.650000X1.550000X0.650000X0*%
%ADD15RoundRect,0.250000X0.725000X-0.600000X0.725000X0.600000X-0.725000X0.600000X-0.725000X-0.600000X0*%
%ADD16O,1.950000X1.700000*%
%ADD17C,0.800000*%
%ADD18C,6.400000*%
%ADD19R,2.000000X2.000000*%
%ADD20C,2.000000*%
%ADD21C,3.250000*%
%ADD22RoundRect,0.250500X-0.499500X0.499500X-0.499500X-0.499500X0.499500X-0.499500X0.499500X0.499500X0*%
%ADD23C,1.500000*%
%ADD24C,2.500000*%
%ADD25C,1.000000*%
%ADD26C,0.750000*%
%ADD27C,2.400000*%
%ADD28R,1.700000X1.700000*%
%ADD29C,1.700000*%
G04 APERTURE END LIST*
D10*
%TO.C,J9*%
X190450000Y-58450000D03*
D11*
X187950000Y-58450000D03*
X185450000Y-58450000D03*
X182950000Y-58450000D03*
X180450000Y-58450000D03*
X177950000Y-58450000D03*
%TD*%
D12*
%TO.C,J6*%
X211342500Y-77450000D03*
D13*
X211342500Y-72370000D03*
X211342500Y-67290000D03*
X211342500Y-62210000D03*
X211342500Y-57130000D03*
%TD*%
D14*
%TO.C,J5*%
X106707500Y-133495000D03*
D13*
X106707500Y-137305000D03*
%TD*%
D15*
%TO.C,J10*%
X217142500Y-90095000D03*
D16*
X217142500Y-87595000D03*
X217142500Y-85095000D03*
%TD*%
D10*
%TO.C,J3*%
X133025000Y-83095000D03*
D11*
X130525000Y-83095000D03*
X128025000Y-83095000D03*
X125525000Y-83095000D03*
%TD*%
D10*
%TO.C,J8*%
X109275000Y-57845000D03*
D11*
X106775000Y-57845000D03*
X104275000Y-57845000D03*
X101775000Y-57845000D03*
%TD*%
D17*
%TO.C,REF\u002A\u002A*%
X195300000Y-58160000D03*
X196002944Y-56462944D03*
X196002944Y-59857056D03*
X197700000Y-55760000D03*
D18*
X197700000Y-58160000D03*
D17*
X197700000Y-60560000D03*
X199397056Y-56462944D03*
X199397056Y-59857056D03*
X200100000Y-58160000D03*
%TD*%
D19*
%TO.C,BZ1*%
X188500000Y-76800000D03*
D20*
X188500000Y-69200000D03*
%TD*%
D12*
%TO.C,J1*%
X211342500Y-101695000D03*
D13*
X211342500Y-97885000D03*
%TD*%
D21*
%TO.C,J7*%
X109415000Y-66700000D03*
X109415000Y-78130000D03*
D22*
X115775000Y-67975000D03*
D23*
X118315000Y-69235000D03*
X115775000Y-70515000D03*
X118315000Y-71775000D03*
X115775000Y-73055000D03*
X118315000Y-74315000D03*
X115775000Y-75595000D03*
X118315000Y-76855000D03*
X104515000Y-65790000D03*
X104515000Y-68330000D03*
X104515000Y-76500000D03*
X104515000Y-79040000D03*
D24*
X112465000Y-64670000D03*
X112465000Y-80160000D03*
%TD*%
D25*
%TO.C,Y2*%
X130825000Y-100840000D03*
X132725000Y-100840000D03*
%TD*%
D26*
%TO.C,J12*%
X113110000Y-136850000D03*
X121610000Y-136850000D03*
%TD*%
D17*
%TO.C,REF\u002A\u002A*%
X122200000Y-114950000D03*
X122902944Y-113252944D03*
X122902944Y-116647056D03*
X124600000Y-112550000D03*
D18*
X124600000Y-114950000D03*
D17*
X124600000Y-117350000D03*
X126297056Y-113252944D03*
X126297056Y-116647056D03*
X127000000Y-114950000D03*
%TD*%
D27*
%TO.C,TP1*%
X147750000Y-122500000D03*
%TD*%
D28*
%TO.C,J4*%
X129240000Y-93925000D03*
D29*
X126700000Y-93925000D03*
X129240000Y-91385000D03*
X126700000Y-91385000D03*
X129240000Y-88845000D03*
X126700000Y-88845000D03*
%TD*%
D10*
%TO.C,J11*%
X171770000Y-58440000D03*
D11*
X169270000Y-58440000D03*
X166770000Y-58440000D03*
X164270000Y-58440000D03*
%TD*%
D25*
%TO.C,U9*%
X142525000Y-60095000D03*
X150525000Y-60095000D03*
%TD*%
M02*
